<?xml version="1.0" encoding="UTF-8" standalone="no"?>
<!-- Created with Inkscape (http://www.inkscape.org/) -->
<svg
   xmlns:svg="http://www.w3.org/2000/svg"
   xmlns="http://www.w3.org/2000/svg"
   version="1.0"
   width="21.02655"
   height="14.11223"
   id="svg2464">
  <defs
     id="defs2466" />
  <g
     transform="translate(-177.96221,-256.41254)"
     id="layer1">
    <path
       d="M 178.40416,267.08166 C 179.07969,266.39642 179.7453,265.29292 180.29166,264.71796 C 181.98014,266.33728 182.55039,266.86534 183.82858,267.75605 C 184.73539,266.6668 186.33602,264.06911 187.71154,262.59077 C 190.02023,260.10951 193.47643,258.10636 195.39518,257.42269 C 196.68673,258.59836 197.96082,259.71036 198.98876,261.13231 C 197.8525,261.13231 191.97414,263.20034 190.14691,264.68695 C 188.31969,266.17356 187.0712,267.33128 185.97704,268.54113 C 184.86184,269.77425 185.31867,269.47646 184.22381,270.52477 C 182.18874,269.54267 180.31124,268.28604 178.40416,267.08166 z "
       style="fill:#000000"
       id="path2517" />
    <path
       d="M 177.96221,266.07151 C 178.63774,265.38627 179.30335,264.28277 179.84971,263.70781 C 181.53819,265.32713 182.10844,265.85519 183.38663,266.7459 C 184.29344,265.65665 185.89407,263.05896 187.26959,261.58062 C 189.57828,259.09936 193.03448,257.09621 194.95323,256.41254 C 196.24478,257.58821 197.51887,258.70021 198.54681,260.12216 C 197.41055,260.12216 191.53219,262.19019 189.70496,263.6768 C 187.87774,265.16341 186.62925,266.32113 185.53509,267.53098 C 184.41989,268.7641 184.87672,268.46631 183.78186,269.51462 C 181.74679,268.53252 179.86929,267.27589 177.96221,266.07151 z "
       style="fill:#aa0000;fill-opacity:1"
       id="path2515" />
  </g>
</svg>
