<?xml version="1.0" encoding="UTF-8" standalone="no"?>
<!DOCTYPE svg PUBLIC "-//W3C//DTD SVG 1.1//EN" "http://www.w3.org/Graphics/SVG/1.1/DTD/svg11.dtd">
<svg width="100%" height="100%" viewBox="0 0 22 15" version="1.1" xmlns="http://www.w3.org/2000/svg" xmlns:xlink="http://www.w3.org/1999/xlink" xml:space="preserve" xmlns:serif="http://www.serif.com/" style="fill-rule:evenodd;clip-rule:evenodd;stroke-linejoin:round;stroke-miterlimit:2;">
    <g id="path2515" transform="matrix(1,0,0,1,-178.792,-255.537)">
        <path d="M178.805,259.002L182.767,256.57L199.536,267.474L197.633,270.565L178.805,259.002Z" style="fill-rule:nonzero;"/>
    </g>
    <g id="path25151" serif:id="path2515" transform="matrix(3.94817e-17,-0.644785,1.37421,8.41464e-17,-350.646,129.329)">
        <path d="M178.641,259.365L182.145,256.454L199.536,267.474L197.633,270.565L178.641,259.365Z" style="fill-rule:nonzero;"/>
    </g>
    <g id="path25152" serif:id="path2515" transform="matrix(1,0,0,1,-178.661,-256.56)">
        <path d="M178.805,259.002L182.767,256.57L199.536,267.474L197.633,270.565L178.805,259.002Z" style="fill:rgb(170,0,0);fill-rule:nonzero;"/>
    </g>
    <g id="path25153" serif:id="path2515" transform="matrix(4.14817e-17,-0.677448,1.48211,9.07529e-17,-380.022,135.164)">
        <path d="M178.641,259.365L182.145,256.454L199.536,267.474L197.633,270.565L178.641,259.365Z" style="fill:rgb(170,0,0);fill-rule:nonzero;"/>
    </g>
    <g id="layer1">
    </g>
</svg>
