<?xml version="1.0" encoding="UTF-8" standalone="no"?>
<!DOCTYPE svg PUBLIC "-//W3C//DTD SVG 1.1//EN" "http://www.w3.org/Graphics/SVG/1.1/DTD/svg11.dtd">
<svg width="100%" height="100%" viewBox="0 0 24 36" version="1.1" xmlns="http://www.w3.org/2000/svg" xmlns:xlink="http://www.w3.org/1999/xlink" xml:space="preserve" xmlns:serif="http://www.serif.com/" style="fill-rule:evenodd;clip-rule:evenodd;stroke-linejoin:round;stroke-miterlimit:1.41421;">
    <g transform="matrix(1,0,0,1,-372.237,-119.37)">
        <g transform="matrix(1,0,0,1,102.444,0)">
            <g transform="matrix(0.998951,0,0,0.998951,257.581,113.048)">
                <g>
                    <g transform="matrix(0.878714,0,0,0.878714,2.4321,3.56021)">
                        <path d="M23.739,7.453C23.673,8.83 23.826,10.291 24.487,11.423C24.739,11.855 25.199,12.1 25.608,12.362C26.355,12.839 27.057,13.396 27.648,14.052C27.648,14.052 27.74,13.933 27.818,13.807C28.361,12.931 28.977,12.095 29.676,11.349L29.716,11.307L33.19,7.712C33.531,11.533 33.702,15.38 34.71,19.07C35.034,20.258 35.635,21.358 36.074,22.506C37.585,26.447 37.83,30.936 36.543,34.871C35.598,37.763 33.622,40.262 30.979,41.777C27.566,43.734 23.278,44.266 19.607,42.843C15.867,41.394 12.946,37.999 12.099,34.051C11.602,31.739 11.691,29.228 12.647,27.097C12.876,26.585 13.092,26.067 13.361,25.575C13.361,25.575 13.49,25.314 13.574,25.128C13.665,24.926 13.749,24.721 13.825,24.512C14.188,23.504 14.254,22.359 13.698,21.347L11.145,16.75L16.273,18.021C17.173,18.249 18.047,18.581 18.837,19.072L18.857,19.085C18.99,18.164 18.694,17.234 18.185,16.446C16.292,13.487 16.753,9.214 18.971,6.517C19.342,6.067 19.776,5.661 20.272,5.357L23.967,3.15C23.891,4.585 23.815,6.019 23.739,7.453Z" style="fill:rgb(23,23,23);fill-rule:nonzero;"/>
                    </g>
                    <g transform="matrix(0.878714,0,0,0.878714,2.4321,3.56021)">
                        <path d="M22.602,7.396C22.527,8.95 22.722,10.571 23.447,11.896C23.896,12.715 24.819,13.164 25.574,13.715C26.492,14.386 27.251,15.254 27.82,16.253C27.82,16.253 28.008,15.822 28.182,15.479C28.804,14.251 29.58,13.096 30.537,12.095L32.278,10.293L32.501,12.79C32.736,15.352 33.077,17.938 33.92,20.374C34.223,21.25 34.682,22.052 35.012,22.913C36.406,26.549 36.664,30.68 35.512,34.359C34.83,36.538 33.504,38.596 31.619,40.001C28.63,42.228 24.601,43.122 21.014,42.114C17.183,41.038 14.06,37.764 13.212,33.812C12.767,31.74 12.823,29.511 13.672,27.592C13.894,27.09 14.102,26.585 14.372,26.1C14.417,26.019 14.429,25.986 14.457,25.928C15.225,24.322 15.609,22.463 14.694,20.797L13.41,18.484L15.997,19.125C17.26,19.445 18.467,20.031 19.381,20.972L19.398,20.99C20.245,19.487 20.251,17.526 19.302,16.072C18.768,15.252 18.364,14.347 18.206,13.365C17.857,11.185 18.52,8.836 19.872,7.214C20.156,6.873 20.484,6.562 20.862,6.33L22.718,5.222C22.679,5.947 22.641,6.671 22.602,7.396Z" style="fill:rgb(207,179,77);fill-rule:nonzero;"/>
                    </g>
                    <g transform="matrix(0.878714,0,0,0.878714,2.4321,3.56021)">
                        <path d="M15.389,26.612C16.185,25 17.07,22.715 15.675,20.218C17.641,20.7 18.507,21.539 19.345,22.732C20.577,22.037 22.281,18.409 20.183,15.342C18.086,12.275 20,8.159 21.468,7.294C21.363,9.181 21.769,12.754 23.843,13.952C26.291,15.368 26.789,16.469 28.126,19.615C28.389,15.918 31.366,12.875 31.366,12.875C31.366,12.875 31.907,19.099 33.319,21.895C35.723,26.657 35.501,32.595 33.599,35.966C33.444,36.266 33.115,36.829 32.821,37.225C30.898,39.82 27.293,41.386 24,41.386C18.538,41.386 14.104,36.952 14.104,31.49C14.104,30.254 14.265,29.023 14.746,27.979C14.956,27.522 15.142,27.048 15.389,26.612Z" style="fill:rgb(220,64,64);"/>
                    </g>
                    <g transform="matrix(1.75,0,0,1.75379,-18.811,-23.3886)">
                        <circle cx="24.464" cy="31.201" r="3.822" style="fill:rgb(255,98,98);"/>
                    </g>
                    <g transform="matrix(0.785035,0,0,0.730925,4.79547,8.52572)">
                        <circle cx="24.464" cy="31.201" r="3.822" style="fill:rgb(253,228,228);"/>
                    </g>
                </g>
            </g>
        </g>
    </g>
</svg>
