<?xml version="1.0" encoding="UTF-8" standalone="no"?>
<!DOCTYPE svg PUBLIC "-//W3C//DTD SVG 1.1//EN" "http://www.w3.org/Graphics/SVG/1.1/DTD/svg11.dtd">
<svg width="100%" height="100%" viewBox="0 0 482 482" version="1.1" xmlns="http://www.w3.org/2000/svg" xmlns:xlink="http://www.w3.org/1999/xlink" xml:space="preserve" xmlns:serif="http://www.serif.com/" style="fill-rule:evenodd;clip-rule:evenodd;stroke-linejoin:round;stroke-miterlimit:2;">
    <g transform="matrix(1.35622,0,0,1.19291,-94.5842,-78.4688)">
        <path d="M388.511,374.849C393.211,374.849 391.293,364.51 391.293,364.51L391.393,213.31L391.393,212.71C391.393,212.41 391.393,212.21 391.293,211.91L391.293,211.51C391.293,211.11 390.693,209.11 390.693,209.01C390.593,208.61 390.393,208.31 390.293,207.91C390.293,207.81 389.893,206.91 389.693,206.51C389.493,206.21 389.293,205.81 389.093,205.51C388.993,205.41 388.993,205.31 388.893,205.21C388.693,204.91 388.393,204.61 388.193,204.31L387.093,203.21C386.793,203.01 386.593,202.71 386.293,202.51C386.193,202.41 386.093,202.31 385.993,202.31C385.793,202.21 385.593,202.01 385.393,201.91C385.293,201.81 385.093,201.71 384.993,201.71L384.893,201.61L239.146,116.943L95.993,201.61L95.893,201.71C95.793,201.81 95.593,201.91 95.493,201.91C95.293,202.01 95.093,202.21 94.893,202.31C94.793,202.41 94.693,202.51 94.593,202.51C94.293,202.71 94.093,202.91 93.793,203.21L92.693,204.31C92.493,204.61 92.193,204.91 91.993,205.21C91.893,205.31 91.893,205.41 91.793,205.51C91.293,206.21 90.893,206.91 90.593,207.61C90.593,207.71 90.493,207.81 90.493,207.91C90.293,208.21 90.193,208.61 90.093,209.01C90.093,209.11 89.993,209.21 89.993,209.31C89.893,209.61 89.793,209.91 89.793,210.11C89.793,210.21 89.693,210.41 89.693,210.51C89.593,210.81 89.593,211.21 89.493,211.61L89.493,212.01C89.493,212.31 89.493,212.51 89.393,212.81L89.393,213.41L89.293,365.71L93.91,379.226L103.593,388.61L233.493,463.71C233.493,463.71 233.593,463.71 233.593,463.81C234.093,464.11 234.593,464.31 235.093,464.51L235.193,464.51C235.693,464.71 236.093,464.81 236.593,465.01C236.693,465.01 236.893,465.11 236.993,465.11C237.393,465.21 237.793,465.31 238.193,465.31C238.293,465.31 238.493,465.31 238.593,465.41C239.093,465.51 239.693,465.51 240.193,465.51C240.693,465.51 241.293,465.51 241.793,465.41C241.893,465.41 242.093,465.41 242.193,465.31C242.593,465.21 242.993,465.21 243.393,465.11C243.493,465.11 243.693,465.01 243.793,465.01C244.293,464.91 244.793,464.71 245.193,464.51L245.293,464.51C245.793,464.31 246.293,464.01 246.793,463.81C246.793,463.81 246.893,463.81 246.893,463.71L377.893,388.21L383.948,380.994C386.048,382.194 386.311,374.849 388.511,374.849ZM226.593,428.41L115.993,364.41L116.093,236.61L226.693,300.61L226.593,428.41ZM240.093,277.21L129.493,213.21L240.193,149.41L350.793,213.41L240.093,277.21ZM364.293,364.51L253.593,428.31L253.693,300.51L364.293,236.71L364.293,364.51Z" style="fill:rgb(89,89,89);fill-rule:nonzero;"/>
    </g>
    <g transform="matrix(1.40636,0,0,1.25428,118.439,-72.7859)">
        <g transform="matrix(0.574935,1.20201,-0.648689,0.390078,174.46,80.7744)">
            <path d="M75.577,65.493L65.659,78.84L63.734,218.558L73.912,208.769L75.577,65.493Z" style="fill:rgb(255,135,0);"/>
        </g>
        <g transform="matrix(0.903537,0,0,0.796359,-6.78664,31.7324)">
            <g transform="matrix(-0.370092,1.18182,-0.730255,-0.370092,183.009,209.751)">
                <path d="M78.681,77.634L65.549,60.767L55.052,195.379L67.009,211.836L78.681,77.634Z" style="fill:rgb(255,135,0);"/>
            </g>
            <g transform="matrix(-0.370092,1.18182,-0.730255,-0.370092,265.141,156.134)">
                <path d="M74.27,73.456L61.536,60.334L55.052,195.379L67.009,211.836L74.27,73.456Z" style="fill:rgb(255,135,0);"/>
            </g>
            <g transform="matrix(0.478857,1.11681,-0.690085,0.478857,119.543,45.8353)">
                <path d="M74.216,62.138L60.252,72.331L56.44,210.954L71.172,197.888L74.216,62.138Z" style="fill:rgb(255,135,0);"/>
            </g>
        </g>
    </g>
</svg>
