<?xml version="1.0" encoding="UTF-8" standalone="no"?>
<!DOCTYPE svg PUBLIC "-//W3C//DTD SVG 1.1//EN" "http://www.w3.org/Graphics/SVG/1.1/DTD/svg11.dtd">
<svg width="100%" height="100%" viewBox="0 0 26 23" version="1.1" xmlns="http://www.w3.org/2000/svg" xmlns:xlink="http://www.w3.org/1999/xlink" xml:space="preserve" xmlns:serif="http://www.serif.com/" style="fill-rule:evenodd;clip-rule:evenodd;stroke-linejoin:round;stroke-miterlimit:1.41421;">
    <g transform="matrix(1,0,0,1,-407.274,-161.726)">
        <g transform="matrix(1.00054,0,0,1.00054,-0.178016,39.9368)">
            <g transform="matrix(0.0999463,0,0,0.0999463,298.012,101.766)">
                <path d="M1121.05,370.124L1092.8,377.694L1115.57,310.387L1168.94,357.292L1140.97,364.786C1149.48,377.521 1161.11,388.168 1174.56,395.429C1193.36,405.569 1215.68,408.964 1236.76,404.887C1248.55,402.607 1259.88,398 1269.91,391.461C1284.08,382.222 1295.69,369.093 1303.09,353.894L1324.6,353.894C1323.55,356.629 1322.38,359.324 1321.11,361.968C1310.72,383.611 1293.21,401.841 1272,413.121C1249.38,425.152 1222.64,429.165 1197.29,424.264C1176.03,420.151 1156.08,409.791 1140.36,394.666C1132.82,387.417 1126.32,379.126 1121.05,370.124ZM1219.07,289.954C1231.78,289.954 1242.11,300.276 1242.11,312.989C1242.11,325.703 1231.78,336.025 1219.07,336.025C1206.36,336.025 1196.04,325.703 1196.04,312.989C1196.04,300.276 1206.36,289.954 1219.07,289.954ZM1134.74,272.085L1113.2,272.085C1119.3,256.388 1128.96,242.061 1141.22,230.515C1153.94,218.53 1169.48,209.51 1186.22,204.469C1196.51,201.368 1207.26,199.764 1217.99,199.678C1218.35,199.676 1218.72,199.675 1219.08,199.675C1234.93,199.713 1250.57,203.036 1264.9,209.415C1285.24,218.467 1302.78,233.631 1314.72,252.504C1316.65,255.557 1318.44,258.705 1320.07,261.934L1347.7,254.529L1324.93,321.836L1271.56,274.931L1300.5,267.178C1298.4,263.452 1296.05,259.87 1293.47,256.465C1281.73,241.018 1265.16,229.329 1246.58,223.576C1237.68,220.821 1228.41,219.433 1219.05,219.41L1218.75,219.41C1205.75,219.442 1192.7,222.185 1180.8,227.503C1166.39,233.939 1153.68,244.081 1144.16,256.69C1140.53,261.499 1137.37,266.663 1134.74,272.085Z" style="fill:rgb(103,103,103);"/>
            </g>
        </g>
    </g>
</svg>
