<?xml version="1.0" encoding="UTF-8" standalone="no"?>
<!DOCTYPE svg PUBLIC "-//W3C//DTD SVG 1.1//EN" "http://www.w3.org/Graphics/SVG/1.1/DTD/svg11.dtd">
<svg width="100%" height="100%" viewBox="0 0 482 482" version="1.1" xmlns="http://www.w3.org/2000/svg" xmlns:xlink="http://www.w3.org/1999/xlink" xml:space="preserve" xmlns:serif="http://www.serif.com/" style="fill-rule:evenodd;clip-rule:evenodd;stroke-linecap:round;stroke-linejoin:round;stroke-miterlimit:1.5;">
    <g transform="matrix(1.35622,0,0,1.19291,-94.5842,-78.4688)">
        <path d="M385.473,382.14C389.377,379.164 391.293,364.51 391.293,364.51L391.393,213.31L391.393,212.71C391.393,212.41 391.393,212.21 391.293,211.91L391.293,211.51C391.293,211.11 390.693,209.11 390.693,209.01C390.593,208.61 390.393,208.31 390.293,207.91C390.293,207.81 389.893,206.91 389.693,206.51C389.493,206.21 389.293,205.81 389.093,205.51C388.993,205.41 388.993,205.31 388.893,205.21C388.693,204.91 388.393,204.61 388.193,204.31L387.093,203.21C386.793,203.01 386.593,202.71 386.293,202.51C386.193,202.41 386.093,202.31 385.993,202.31C385.793,202.21 385.593,202.01 385.393,201.91C385.293,201.81 385.093,201.71 384.993,201.71L384.893,201.61L239.146,116.943L95.993,201.61L95.893,201.71C95.793,201.81 95.593,201.91 95.493,201.91C95.293,202.01 95.093,202.21 94.893,202.31C94.793,202.41 94.693,202.51 94.593,202.51C94.293,202.71 94.093,202.91 93.793,203.21L92.693,204.31C92.493,204.61 92.193,204.91 91.993,205.21C91.893,205.31 91.893,205.41 91.793,205.51C91.293,206.21 90.893,206.91 90.593,207.61C90.593,207.71 90.493,207.81 90.493,207.91C90.293,208.21 90.193,208.61 90.093,209.01C90.093,209.11 89.993,209.21 89.993,209.31C89.893,209.61 89.793,209.91 89.793,210.11C89.793,210.21 89.693,210.41 89.693,210.51C89.593,210.81 89.593,211.21 89.493,211.61L89.493,212.01C89.493,212.31 89.493,212.51 89.393,212.81L89.393,213.41L89.293,365.71L93.91,379.226L103.593,388.61L233.493,463.71C233.493,463.71 233.593,463.71 233.593,463.81C234.093,464.11 234.593,464.31 235.093,464.51L235.193,464.51C235.693,464.71 236.093,464.81 236.593,465.01C236.693,465.01 236.893,465.11 236.993,465.11C237.393,465.21 237.793,465.31 238.193,465.31C238.293,465.31 238.493,465.31 238.593,465.41C239.093,465.51 239.693,465.51 240.193,465.51C240.693,465.51 241.293,465.51 241.793,465.41C241.893,465.41 242.093,465.41 242.193,465.31C242.593,465.21 242.993,465.21 243.393,465.11C243.493,465.11 243.693,465.01 243.793,465.01C244.293,464.91 244.793,464.71 245.193,464.51L245.293,464.51C245.793,464.31 246.293,464.01 246.793,463.81C246.793,463.81 246.893,463.81 246.893,463.71L377.893,388.21C377.893,388.21 383.636,383.54 385.473,382.14ZM226.593,428.41L115.993,364.41L116.093,236.61L226.693,300.61L226.593,428.41ZM240.093,277.21L129.493,213.21L240.193,149.41L350.793,213.41L240.093,277.21ZM364.293,364.51L253.593,428.31L253.693,300.51L364.293,236.71L364.293,364.51Z" style="fill:rgb(89,89,89);fill-rule:nonzero;"/>
        <g transform="matrix(0.737343,0,0,0.838286,-29.4873,99.1627)">
            <path d="M191.939,159.405C188.447,157.62 185.871,154.442 184.848,150.655C183.825,146.869 184.449,142.826 186.567,139.524C187.022,138.816 187.474,138.111 187.918,137.419C191.289,132.164 198.09,130.312 203.66,133.131C234.214,148.596 327.85,195.989 364.865,214.724C368.637,216.633 371.361,220.123 372.297,224.245C373.233,228.367 372.283,232.692 369.706,236.043C369.197,236.704 368.694,237.358 368.202,237.997C364.517,242.788 357.938,244.268 352.557,241.516C322.463,226.132 227.525,177.598 191.939,159.405Z" style="fill:rgb(255,156,0);stroke:rgb(255,154,0);stroke-width:5.6px;"/>
        </g>
        <g transform="matrix(0.343314,0.741875,-0.687556,0.411257,273.104,88.9454)">
            <path d="M191.19,159.023C187.833,157.306 185.366,154.356 184.367,150.863C183.369,147.369 183.927,143.64 185.91,140.549C186.569,139.521 187.23,138.491 187.873,137.488C191.229,132.257 198.304,130.42 203.998,133.302C235.144,149.066 329.462,196.804 365.73,215.161C369.358,216.998 371.968,220.237 372.886,224.041C373.804,227.845 372.939,231.84 370.514,234.992C369.762,235.97 369.014,236.942 368.29,237.883C364.596,242.686 357.733,244.163 352.217,241.343C321.539,225.659 226.045,176.841 191.19,159.023Z" style="fill:rgb(255,156,0);stroke:rgb(255,154,0);stroke-width:5.61px;"/>
        </g>
        <g transform="matrix(0.429896,-0.681064,0.599054,0.488748,78.8736,349.014)">
            <path d="M191.939,159.405C188.447,157.62 185.871,154.442 184.848,150.655C183.825,146.869 184.449,142.826 186.567,139.524C187.022,138.816 187.474,138.111 187.918,137.419C191.289,132.164 198.09,130.312 203.66,133.131C234.214,148.596 327.85,195.989 364.865,214.724C368.637,216.633 371.361,220.123 372.297,224.245C373.233,228.367 372.283,232.692 369.706,236.043C369.197,236.704 368.694,237.358 368.202,237.997C364.517,242.788 357.938,244.268 352.557,241.516C322.463,226.132 227.525,177.598 191.939,159.405Z" style="fill:rgb(255,156,0);stroke:rgb(255,154,0);stroke-width:5.6px;"/>
        </g>
    </g>
</svg>
