<?xml version="1.0" encoding="UTF-8" standalone="no"?>
<!DOCTYPE svg PUBLIC "-//W3C//DTD SVG 1.1//EN" "http://www.w3.org/Graphics/SVG/1.1/DTD/svg11.dtd">
<svg width="100%" height="100%" viewBox="0 0 21 24" version="1.1" xmlns="http://www.w3.org/2000/svg" xmlns:xlink="http://www.w3.org/1999/xlink" xml:space="preserve" xmlns:serif="http://www.serif.com/" style="fill-rule:evenodd;clip-rule:evenodd;stroke-linejoin:round;stroke-miterlimit:1.41421;">
    <g transform="matrix(1,0,0,1,-1559.16,-81.1144)">
        <g transform="matrix(0.876462,0,0,0.876462,393.462,27.2653)">
            <g transform="matrix(0.410936,0,0,0.410936,736.197,15.4142)">
                <path d="M1445,164L1445,132L1478,146L1478,178L1445,164Z" style="fill:rgb(4,63,188);"/>
            </g>
        </g>
        <g transform="matrix(0.876462,0,0,0.876462,393.462,27.2653)">
            <g transform="matrix(0.410936,0,0,0.410936,736.197,15.4142)">
                <path d="M1445,132L1469,112L1502,126L1478,146L1445,132" style="fill:rgb(0,80,253);"/>
            </g>
        </g>
        <g transform="matrix(0.876462,0,0,0.876462,393.462,27.2653)">
            <g transform="matrix(0.410936,0,0,0.410936,736.197,15.4142)">
                <path d="M1502,159L1502,126L1478,146L1478,178L1502,159Z" style="fill:rgb(14,30,65);"/>
            </g>
        </g>
    </g>
</svg>
