<?xml version="1.0" encoding="UTF-8" standalone="no"?>
<!DOCTYPE svg PUBLIC "-//W3C//DTD SVG 1.1//EN" "http://www.w3.org/Graphics/SVG/1.1/DTD/svg11.dtd">
<svg width="100%" height="100%" viewBox="0 0 263 247" version="1.1" xmlns="http://www.w3.org/2000/svg" xmlns:xlink="http://www.w3.org/1999/xlink" xml:space="preserve" xmlns:serif="http://www.serif.com/" style="fill-rule:evenodd;clip-rule:evenodd;stroke-linejoin:round;">
    <g id="Layer-1" serif:id="Layer 1" transform="matrix(1.2575,0,0,1.2575,-199.904,-1223.38)">
        <g transform="matrix(1,0,0,1,3,-233)">
            <g id="g1215">
                <g id="g1157">
                    <path id="path1129" d="M178,1266.52L276,1302.52L337,1245.52L248,1210.52L178,1266.52Z" style="fill:rgb(217,217,217);fill-opacity:0;fill-rule:nonzero;stroke:rgb(128,128,128);stroke-width:8.57px;"/>
                    <path id="path1131" d="M337,1245.52L338,1332.52L276,1396.52L276,1302.52L337,1245.52Z" style="fill:rgb(217,217,217);fill-opacity:0;fill-rule:nonzero;stroke:rgb(128,128,128);stroke-width:6.86px;"/>
                    <path id="path1133" d="M178,1266.52L276,1302.52L276,1396.52L178,1360.52L178,1266.52Z" style="fill:rgb(217,217,217);fill-opacity:0;stroke:rgb(128,128,128);stroke-width:8px;"/>
                </g>
            </g>
        </g>
        <g id="g1347" transform="matrix(0.799801,0,0,1.19551,8.11423,-281.527)">
            <g id="path1217-1" transform="matrix(1.3718,0,0,0.905244,-122.18,103.894)">
                <circle cx="316.028" cy="1091.6" r="6.449" style="fill:none;stroke:rgb(245,121,0);stroke-width:4px;stroke-linecap:round;stroke-linejoin:miter;"/>
            </g>
            <g id="path1258-6-8-6-3" transform="matrix(1.1166,0,0,1.42011,-39.6014,-458.136)">
                <path d="M369,1078.52L322,1090.52" style="fill:none;stroke:rgb(245,121,0);stroke-width:4px;stroke-linejoin:miter;"/>
            </g>
        </g>
        <g id="g13471" serif:id="g1347" transform="matrix(-0.766732,0.0106658,-0.0159428,-1.14608,503.246,2345.83)">
            <g id="path1217-11" serif:id="path1217-1" transform="matrix(1.3718,0,0,0.905244,-122.18,103.894)">
                <circle cx="316.028" cy="1091.6" r="6.449" style="fill:none;stroke:rgb(245,121,0);stroke-width:4px;stroke-linecap:round;stroke-linejoin:miter;"/>
            </g>
            <g id="path1258-6-8-6-31" serif:id="path1258-6-8-6-3" transform="matrix(1.1166,0,0,1.42011,-39.6014,-458.136)">
                <path d="M369,1078.52L322,1090.52" style="fill:none;stroke:rgb(245,121,0);stroke-width:4px;stroke-linejoin:miter;"/>
            </g>
        </g>
        <g id="g13472" serif:id="g1347" transform="matrix(0.499928,0.302411,-0.899632,1.48722,1138.25,-630.142)">
            <g id="path1217-12" serif:id="path1217-1" transform="matrix(1.3718,0,0,0.905244,-122.18,103.894)">
                <circle cx="316.028" cy="1091.6" r="6.449" style="fill:none;stroke:rgb(245,121,0);stroke-width:4px;stroke-linecap:round;stroke-linejoin:miter;"/>
            </g>
            <g id="path1258-6-8-6-32" serif:id="path1258-6-8-6-3" transform="matrix(1.1166,0,0,1.42011,-39.6014,-458.136)">
                <path d="M369,1078.52L322,1090.52" style="fill:none;stroke:rgb(245,121,0);stroke-width:4px;stroke-linejoin:miter;"/>
            </g>
        </g>
    </g>
</svg>
