<?xml version="1.0" encoding="UTF-8" standalone="no"?>
<!DOCTYPE svg PUBLIC "-//W3C//DTD SVG 1.1//EN" "http://www.w3.org/Graphics/SVG/1.1/DTD/svg11.dtd">
<svg width="100%" height="100%" viewBox="0 0 22 22" version="1.1" xmlns="http://www.w3.org/2000/svg" xmlns:xlink="http://www.w3.org/1999/xlink" xml:space="preserve" xmlns:serif="http://www.serif.com/" style="fill-rule:evenodd;clip-rule:evenodd;stroke-linejoin:round;stroke-miterlimit:1.41421;">
    <g transform="matrix(1,0,0,1,-450.332,-162.161)">
        <g transform="matrix(1.00054,0,0,1.00054,-0.178016,39.9368)">
            <g transform="matrix(0.0999463,0,0,0.0999463,298.012,101.766)">
                <path d="M1523.38,420.979L1535.6,359.909L1584.45,408.765L1523.38,420.979ZM1740.34,420.979L1679.27,408.765L1728.12,359.909L1740.34,420.979ZM1695.44,376.43L1567.59,376.43L1567.59,248.577L1695.44,248.577L1695.44,376.43ZM1677.18,266.841L1585.85,266.841L1585.85,358.165L1677.18,358.165L1677.18,266.841ZM1647.8,296.558C1656.79,305.548 1656.79,320.146 1647.8,329.136C1638.81,338.126 1624.22,338.126 1615.23,329.136C1606.24,320.146 1606.24,305.548 1615.23,296.558C1624.22,287.568 1638.81,287.568 1647.8,296.558ZM1523.38,204.027L1584.45,216.241L1535.6,265.097L1523.38,204.027ZM1740.34,204.027L1728.12,265.097L1679.27,216.241L1740.34,204.027Z" style="fill:rgb(103,103,103);"/>
            </g>
        </g>
    </g>
</svg>
