<?xml version="1.0" encoding="UTF-8" standalone="no"?>
<!DOCTYPE svg PUBLIC "-//W3C//DTD SVG 1.1//EN" "http://www.w3.org/Graphics/SVG/1.1/DTD/svg11.dtd">
<svg width="100%" height="100%" viewBox="0 0 263 247" version="1.1" xmlns="http://www.w3.org/2000/svg" xmlns:xlink="http://www.w3.org/1999/xlink" xml:space="preserve" xmlns:serif="http://www.serif.com/" style="fill-rule:evenodd;clip-rule:evenodd;stroke-linejoin:round;">
    <g id="Layer-1" serif:id="Layer 1" transform="matrix(1.2575,0,0,1.2575,-199.904,-1223.38)">
        <g transform="matrix(1,0,0,1,3,-233)">
            <g id="g1215">
                <g id="g1157">
                    <path id="path1129" d="M178,1266.52L276,1302.52L337,1245.52L248,1210.52L178,1266.52Z" style="fill:rgb(217,217,217);fill-opacity:0;fill-rule:nonzero;stroke:rgb(128,128,128);stroke-width:8.57px;"/>
                    <path id="path1131" d="M337,1245.52L338,1332.52L276,1396.52L276,1302.52L337,1245.52Z" style="fill:rgb(217,217,217);fill-opacity:0;fill-rule:nonzero;stroke:rgb(128,128,128);stroke-width:6.86px;"/>
                    <path id="path1133" d="M178,1266.52L276,1302.52L276,1396.52L178,1360.52L178,1266.52Z" style="fill:rgb(217,217,217);fill-opacity:0;stroke:rgb(128,128,128);stroke-width:8px;"/>
                </g>
            </g>
        </g>
        <g id="g1347" transform="matrix(1.2219,0,0,1.82645,-119.571,-974.232)">
            <g id="path1217" transform="matrix(1,0,0,1,164.639,29.6367)">
                <circle cx="190.048" cy="1119.64" r="6.449" style="fill:none;stroke:rgb(245,121,0);stroke-width:4px;stroke-linecap:round;stroke-linejoin:miter;"/>
            </g>
            <g id="path1258-6" transform="matrix(0.518616,0,0,0.90834,283.381,115.325)">
                <path d="M185,1121.52L148,1136.52" style="fill:none;stroke:rgb(245,121,0);stroke-width:4px;stroke-linejoin:miter;"/>
            </g>
        </g>
    </g>
</svg>
