<?xml version="1.0" encoding="UTF-8" standalone="no"?>
<!DOCTYPE svg PUBLIC "-//W3C//DTD SVG 1.1//EN" "http://www.w3.org/Graphics/SVG/1.1/DTD/svg11.dtd">
<svg width="100%" height="100%" viewBox="0 0 21 24" version="1.1" xmlns="http://www.w3.org/2000/svg" xmlns:xlink="http://www.w3.org/1999/xlink" xml:space="preserve" xmlns:serif="http://www.serif.com/" style="fill-rule:evenodd;clip-rule:evenodd;stroke-linejoin:round;stroke-miterlimit:1.41421;">
    <g transform="matrix(1,0,0,1,-1513.18,-74.6772)">
        <g>
            <path d="M1513.27,81.8C1513.31,81.714 1513.36,81.632 1513.44,81.562L1521.49,74.849C1521.74,74.662 1521.81,74.671 1522.04,74.683C1522.09,74.689 1522.12,74.689 1522.25,74.737L1533.33,79.436C1533.41,79.474 1533.48,79.526 1533.54,79.586C1533.67,79.719 1533.77,79.905 1533.78,80.112L1533.78,91.188C1533.77,91.366 1533.71,91.541 1533.59,91.673C1533.55,91.717 1533.54,91.725 1533.5,91.764L1525.44,98.141C1525.36,98.2 1525.27,98.238 1525.17,98.257C1525.03,98.302 1524.86,98.302 1524.7,98.241L1513.62,93.542C1513.36,93.417 1513.19,93.163 1513.17,92.866L1513.17,82.126C1513.18,82.009 1513.21,81.898 1513.27,81.8ZM1514.64,92.379L1524.25,96.455L1524.25,87.311L1516.62,84.073L1514.64,83.236L1514.64,92.379ZM1531.05,82.728L1525.72,87.169L1525.72,96.046L1532.31,90.832L1532.31,81.681L1531.05,82.728ZM1515.31,81.92L1517.19,82.72L1524.86,85.973L1530.11,81.599L1531.64,80.319L1522.09,76.265L1515.31,81.92Z" style="fill:rgb(103,103,103);fill-rule:nonzero;"/>
        </g>
    </g>
</svg>
