<?xml version="1.0" encoding="UTF-8" standalone="no"?>
<!DOCTYPE svg PUBLIC "-//W3C//DTD SVG 1.1//EN" "http://www.w3.org/Graphics/SVG/1.1/DTD/svg11.dtd">
<svg width="100%" height="100%" viewBox="0 0 14 15" version="1.1" xmlns="http://www.w3.org/2000/svg" xmlns:xlink="http://www.w3.org/1999/xlink" xml:space="preserve" xmlns:serif="http://www.serif.com/" style="fill-rule:evenodd;clip-rule:evenodd;stroke-linejoin:round;stroke-miterlimit:1.41421;">
    <g transform="matrix(1,0,0,1,-59.1659,-454.661)">
        <g transform="matrix(1.0022,0,0,1.0022,1.50222,11.8703)">
            <g transform="matrix(0.099661,0,0,0.099661,51.6765,397.157)">
                <path d="M79.303,512.39C79.529,511.626 79.808,510.871 80.142,510.129L92.818,482.47L110.244,490.456C114.895,485.044 120.69,480.569 127.78,477.565C134.717,474.681 142.044,472.224 147.401,466.812C151.357,462.816 153.864,457.623 155.831,452.457C155.831,452.457 156.363,451.225 157.022,450.463C158.379,448.894 160.446,448.073 162.57,448.166C163.997,448.312 164.415,448.51 165.173,448.905C168.155,450.458 169.363,454.543 168.156,457.686C164.523,467.143 158.925,475.915 150.382,481.549C141.657,487.302 130.84,489.556 122.909,496.26L138.891,503.584C143.492,498.325 149.192,493.975 156.134,491.032C163.123,488.128 170.529,485.51 175.667,480.368C179.675,476.359 182.206,471.124 184.186,465.925C184.186,465.925 184.718,464.693 185.377,463.93C186.733,462.361 188.8,461.54 190.925,461.633C192.352,461.779 192.769,461.977 193.527,462.372C196.51,463.925 197.718,468.011 196.511,471.153C192.87,480.629 187.28,489.382 178.737,495.016C170.145,500.682 159.509,502.944 151.619,509.417L166.677,516.318L154.001,543.978C153.438,545.187 153.281,545.422 152.87,546.083C152.76,546.259 152.647,546.434 152.531,546.606C146.291,559.543 140.142,572.328 133.976,585.56C133.389,586.78 133.234,587.004 132.814,587.661C128.035,595.139 117.646,598.414 109.235,594.751C95.957,588.768 82.755,582.617 69.515,576.55C60.2,572.208 56.109,560.365 60.694,550.463C66.51,537.981 72.695,525.678 78.827,513.345L79.303,512.39ZM82.657,529.656C78.486,538.047 74.356,546.461 70.401,554.973C68.399,559.283 69.51,564.671 73.893,566.782C87.08,572.927 100.306,578.988 113.57,584.965C117.453,586.656 122.4,584.932 124.304,580.978C128.367,572.259 132.505,563.567 136.67,554.886C134.131,554.905 131.571,554.423 129.163,553.374C115.887,547.388 102.684,541.24 89.444,535.173C86.739,533.912 84.437,531.986 82.657,529.656ZM104.012,499.373L98.089,496.659C95.355,502.625 92.62,508.591 89.886,514.558C88.125,518.465 89.812,523.475 93.822,525.404C107.008,531.551 120.236,537.609 133.5,543.588C137.413,545.293 142.391,543.555 144.285,539.489L152.488,521.589L144.569,517.96C142.713,521.254 141.298,524.795 140.015,528.327C140.015,528.327 138.998,530.582 137.407,531.63C133.101,534.466 125.861,530.245 127.218,524.505C127.517,523.238 127.744,522.923 128.003,522.229C129.273,518.848 130.793,515.572 132.581,512.466L116.004,504.869C114.253,508.051 112.899,511.451 111.661,514.86C111.661,514.86 110.255,518.095 107.296,518.983C102.864,520.313 97.73,515.834 98.863,511.038C99.162,509.771 99.389,509.455 99.648,508.761C100.867,505.518 102.316,502.369 104.012,499.373Z" style="fill:rgb(217,217,217);fill-rule:nonzero;"/>
            </g>
        </g>
    </g>
</svg>
