<?xml version="1.0" encoding="UTF-8" standalone="no"?>
<!DOCTYPE svg PUBLIC "-//W3C//DTD SVG 1.1//EN" "http://www.w3.org/Graphics/SVG/1.1/DTD/svg11.dtd">
<svg width="100%" height="100%" viewBox="0 0 11 11" version="1.1" xmlns="http://www.w3.org/2000/svg" xmlns:xlink="http://www.w3.org/1999/xlink" xml:space="preserve" xmlns:serif="http://www.serif.com/" style="fill-rule:evenodd;clip-rule:evenodd;stroke-linejoin:round;stroke-miterlimit:1.41421;">
    <g transform="matrix(1,0,0,1,-60.4268,-276.299)">
        <g transform="matrix(10,0,0,10,-219,-912.743)">
            <g transform="matrix(0.00991917,0,0,0.00991917,27.3869,116.206)">
                <path d="M111.355,271.973C131.42,272.163 150.859,284.147 159.976,301.937C167.682,316.972 167.898,335.614 160.57,350.812C148.671,375.49 116.814,388.97 89.906,377.774C72.351,370.47 59.174,353.501 56.534,334.654C54.118,317.409 60.454,299.185 73.06,287.166C83.071,277.62 96.682,272.105 110.645,271.973C110.882,271.972 111.118,271.972 111.355,271.973ZM135.222,289.091C133.56,287.999 131.818,287.022 130.004,286.175C123.997,283.368 117.402,281.951 110.708,281.972C97.264,282.1 84.227,288.953 75.756,299.448C83.686,306.551 89.887,316.558 87.696,327.544C87.64,327.826 87.57,328.105 87.517,328.388C86.804,332.456 95.105,334.849 95.77,342.046C96.25,347.253 92.442,351.78 91.528,356.769C90.892,360.237 91.201,364.034 93.112,367.005C93.112,367.005 93.337,367.518 93.521,368.294C104.352,372.779 116.94,373.167 128,368.646C128.627,368.389 129.247,368.118 129.86,367.832C130.09,366.975 130.009,366.829 130.071,366.246C130.688,360.49 130.741,354.214 128.225,349.481C125.543,344.433 120.701,341.114 117.357,335.633C110.371,324.179 111.01,307.858 120.815,297.673C124.723,293.614 129.805,291.019 135.222,289.091ZM69.995,308.64C68.621,311.579 67.575,314.682 66.915,317.903C63.903,332.607 68.825,348.671 79.571,359.164C79.958,359.541 80.351,359.911 80.751,360.272C80.747,355.329 82.062,350.259 84.376,345.634C84.438,345.507 84.499,345.379 84.558,345.251C84.689,344.959 84.811,344.664 84.912,344.361C86.085,340.86 79.572,338.758 77.527,333.158C76.361,329.966 77.411,326.247 77.456,323.385C77.546,317.548 74.008,312.509 69.995,308.64ZM144.572,297.35C144.504,297.372 144.435,297.392 144.365,297.412C144.225,297.45 144.086,297.489 143.946,297.528C137.423,299.383 130.289,301.864 126.986,306.978C121.632,315.267 122.717,326.455 129.862,334.662C133.043,338.316 136.572,341.798 138.471,346.195C140.342,350.527 141.185,355.335 141.232,360.165C148.78,353.2 154.033,343.712 155.523,333.546C157.411,320.663 153.039,307.216 144.572,297.35Z" style="fill:rgb(205,205,205);fill-rule:nonzero;"/>
            </g>
        </g>
    </g>
</svg>
