<?xml version="1.0" encoding="UTF-8" standalone="no"?>
<!DOCTYPE svg PUBLIC "-//W3C//DTD SVG 1.1//EN" "http://www.w3.org/Graphics/SVG/1.1/DTD/svg11.dtd">
<svg width="100%" height="100%" viewBox="0 0 12 12" version="1.1" xmlns="http://www.w3.org/2000/svg" xmlns:xlink="http://www.w3.org/1999/xlink" xml:space="preserve" xmlns:serif="http://www.serif.com/" style="fill-rule:evenodd;clip-rule:evenodd;stroke-linejoin:round;stroke-miterlimit:1.41421;">
    <g transform="matrix(1,0,0,1,-60.0436,-396.007)">
        <g transform="matrix(1.00024,0,0,1.00024,-0.0398281,-0.126976)">
            <g transform="matrix(0.992791,0,0,0.992791,0.256096,2.89777)">
                <path d="M66.26,395.994C68.467,396.015 70.598,397.348 71.577,399.315C72.383,400.938 72.395,402.93 71.608,404.562C70.476,406.912 67.703,408.36 65.054,407.835C62.644,407.357 60.644,405.25 60.302,402.806C60.042,400.947 60.717,398.978 62.072,397.67C63.162,396.619 64.665,396.009 66.183,395.994C66.208,395.994 66.234,395.994 66.26,395.994ZM66.19,397.069C63.979,397.09 61.87,398.779 61.418,400.984C61.088,402.595 61.634,404.357 62.818,405.499C64.178,406.812 66.323,407.24 68.101,406.501C69.674,405.846 70.854,404.319 71.081,402.627C71.358,400.556 70.157,398.37 68.238,397.502C67.597,397.212 66.895,397.067 66.19,397.069Z" style="fill:rgb(217,217,217);fill-rule:nonzero;"/>
            </g>
            <g transform="matrix(0.767151,0,0,1.37187,22.4268,-151.648)">
                <path d="M58.225,404.977L52.058,404.977L55.373,402.123L61.54,402.123C60.435,403.075 59.33,404.026 58.225,404.977ZM56.128,402.901L54.619,404.2L57.47,404.2L58.978,402.901C58.028,402.901 57.078,402.901 56.128,402.901Z" style="fill:rgb(217,217,217);fill-rule:nonzero;"/>
            </g>
        </g>
    </g>
</svg>
