<?xml version="1.0" encoding="UTF-8" standalone="no"?>
<!DOCTYPE svg PUBLIC "-//W3C//DTD SVG 1.1//EN" "http://www.w3.org/Graphics/SVG/1.1/DTD/svg11.dtd">
<svg width="100%" height="100%" viewBox="0 0 512 512" version="1.1" xmlns="http://www.w3.org/2000/svg" xmlns:xlink="http://www.w3.org/1999/xlink" xml:space="preserve" xmlns:serif="http://www.serif.com/" style="fill-rule:evenodd;clip-rule:evenodd;stroke-linejoin:round;stroke-miterlimit:2;">
    <g>
        <path d="M120,45L120,61.509C103.797,64.811 89.488,73.363 78.905,85.293L64.558,77.01C57.383,72.867 48.21,75.325 44.068,82.5C39.925,89.674 42.383,98.848 49.558,102.99L63.875,111.256C61.375,118.724 60,126.702 60,135C60,143.298 61.375,151.276 63.875,158.744L49.558,167.01C42.383,171.152 39.925,180.326 44.068,187.5C48.223,194.697 57.404,197.12 64.558,192.99L78.905,184.707C89.488,196.637 103.797,205.188 120,208.491L120,225C120,233.284 126.716,240 135,240C143.284,240 150,233.284 150,225L150,208.491C166.203,205.189 180.512,196.637 191.095,184.707L205.442,192.99C212.591,197.118 221.775,194.699 225.932,187.5C230.075,180.326 227.617,171.152 220.442,167.01L206.125,158.744C208.625,151.276 210,143.298 210,135C210,126.702 208.625,118.724 206.125,111.256L220.442,102.99C227.617,98.848 230.075,89.674 225.932,82.5C221.789,75.325 212.616,72.868 205.442,77.01L191.095,85.293C180.512,73.363 166.203,64.812 150,61.509L150,45C150,36.716 143.284,30 135,30C126.716,30 120,36.716 120,45ZM180,135C180,159.813 159.813,180 135,180C110.187,180 90,159.813 90,135C90,110.187 110.187,90 135,90C159.813,90 180,110.187 180,135Z" style="fill:rgb(128,128,128);fill-rule:nonzero;"/>
        <path d="M15,482L362,482L362,497C362,502.682 365.21,507.875 370.292,510.417C375.362,512.952 381.444,512.417 386,509L506,419C509.777,416.167 512,411.721 512,407L512,15C512,6.778 505.305,0 497,0L15,0C6.716,0 0,6.716 0,15L0,467C0,475.284 6.716,482 15,482ZM482,399.5L392,467L392,404.39C409.829,402.56 427.383,397.579 443.708,389.417C451.118,385.712 454.121,376.702 450.416,369.292C446.711,361.882 437.703,358.878 430.292,362.584C418.171,368.644 405.204,372.511 392,374.21L392,344.39C409.829,342.56 427.383,337.579 443.708,329.417C451.118,325.712 454.121,316.702 450.416,309.292C446.711,301.883 437.703,298.88 430.292,302.584C418.171,308.644 405.204,312.511 392,314.21L392,284.39C409.829,282.56 427.383,277.579 443.708,269.417C451.118,265.712 454.121,256.702 450.416,249.292C446.711,241.882 437.703,238.879 430.292,242.584C418.171,248.644 405.204,252.511 392,254.21L392,112.5L482,45L482,399.5ZM30,30L452,30L368,93C364.223,95.833 362,100.279 362,105L362,254.339C348.451,252.71 335.135,248.797 322.708,242.584C280.624,221.542 230.376,221.542 188.292,242.584C180.882,246.289 177.879,255.299 181.584,262.709C185.289,270.119 194.297,273.122 201.708,269.417C235.392,252.575 275.608,252.575 309.292,269.417C325.922,277.732 343.828,282.747 362,284.49L362,314.339C348.451,312.71 335.135,308.797 322.708,302.584C280.624,281.542 230.376,281.542 188.292,302.584C180.882,306.289 177.879,315.299 181.584,322.709C185.289,330.119 194.297,333.122 201.708,329.417C235.392,312.575 275.608,312.575 309.292,329.417C325.922,337.732 343.828,342.747 362,344.49L362,374.339C348.451,372.71 335.135,368.797 322.708,362.584C280.624,341.542 230.376,341.542 188.292,362.584C180.882,366.289 177.879,375.299 181.584,382.709C185.289,390.119 194.297,393.123 201.708,389.417C235.392,372.575 275.608,372.575 309.292,389.417C325.922,397.732 343.828,402.747 362,404.49L362,452L30,452L30,30Z" style="fill:rgb(128,128,128);fill-rule:nonzero;stroke:rgb(128,128,128);stroke-width:1px;"/>
    </g>
</svg>
