<?xml version="1.0" encoding="UTF-8" standalone="no"?>
<!DOCTYPE svg PUBLIC "-//W3C//DTD SVG 1.1//EN" "http://www.w3.org/Graphics/SVG/1.1/DTD/svg11.dtd">
<svg width="100%" height="100%" viewBox="0 0 12 12" version="1.1" xmlns="http://www.w3.org/2000/svg" xmlns:xlink="http://www.w3.org/1999/xlink" xml:space="preserve" xmlns:serif="http://www.serif.com/" style="fill-rule:evenodd;clip-rule:evenodd;stroke-linejoin:round;stroke-miterlimit:1.41421;">
    <g transform="matrix(1,0,0,1,-60.4948,-296.486)">
        <g transform="matrix(1.0002,0,0,1.0002,32.9934,177.995)">
            <g transform="matrix(0.1,0,0,0.1,26.4,93.7743)">
                <path d="M91.193,246.972C106.736,247.119 120.845,260.616 120.999,276.778C121.052,293.574 121.052,310.369 120.999,327.165C120.853,342.517 107.728,356.711 91.386,356.969C74.527,357.128 57.667,357.024 40.807,356.971C25.234,356.824 11.154,343.327 11.001,327.165C10.947,310.369 10.947,293.574 11.001,276.778C11.148,261.256 24.621,247.125 40.807,246.972C57.602,246.919 74.398,246.919 91.193,246.972ZM107.419,265.847L32.056,344.73C34.716,346.126 37.71,346.941 40.87,346.971C57.666,347.024 74.464,347.128 91.26,346.97C101.555,346.808 110.896,337.912 111,327.101C111.052,310.305 111.159,293.508 110.998,276.712C110.936,272.796 109.62,269.025 107.419,265.847ZM99.933,259.207C97.276,257.814 94.286,257.002 91.13,256.972C74.423,256.919 57.715,256.972 41.008,256.972C30.659,257.004 21.173,265.919 21.002,276.712C20.842,293.551 20.842,310.392 21.002,327.231C21.064,331.142 22.377,334.909 24.574,338.084L99.933,259.207Z" style="fill:rgb(205,205,205);fill-rule:nonzero;"/>
            </g>
        </g>
    </g>
</svg>
