<?xml version="1.0" encoding="UTF-8" standalone="no"?>
<!DOCTYPE svg PUBLIC "-//W3C//DTD SVG 1.1//EN" "http://www.w3.org/Graphics/SVG/1.1/DTD/svg11.dtd">
<svg width="100%" height="100%" viewBox="0 0 11 14" version="1.1" xmlns="http://www.w3.org/2000/svg" xmlns:xlink="http://www.w3.org/1999/xlink" xml:space="preserve" xmlns:serif="http://www.serif.com/" style="fill-rule:evenodd;clip-rule:evenodd;stroke-linejoin:round;stroke-miterlimit:1.41421;">
    <g transform="matrix(1,0,0,1,-60.9849,-435.203)">
        <g transform="matrix(1,0,0,1,5.04627,4.27043)">
            <g transform="matrix(0.0995828,0,0,0.0995828,50.3681,388.019)">
                <path d="M122.936,449.237L129.903,434.033C130.209,433.395 130.345,433.222 130.61,432.895C131.677,431.583 132.576,430.86 135.004,430.939C138.477,431.178 141.049,435.071 139.568,438.463L132.601,453.666L142.311,458.116L149.345,442.766C149.652,442.128 149.787,441.955 150.053,441.628C151.12,440.316 152.018,439.593 154.447,439.672C157.944,439.912 160.464,443.867 159.011,447.196L151.976,462.546L160.374,466.394L147.782,493.871C147.223,495.07 147.067,495.305 146.658,495.961C142.062,503.355 132.039,506.749 123.667,503.436C120.053,511.989 114.715,519.802 106.889,524.964C96.133,532.056 82.154,533.779 74.472,545.268C71.84,549.205 70.028,553.637 68.424,558.053C68.424,558.053 63.385,564.962 58.214,561.117C53.673,557.742 56.788,550.178 60.105,543.604C65.197,533.512 73.889,525.475 84.436,521.006C91.436,518.096 98.846,515.458 103.928,510.324C107.357,506.86 109.689,502.492 111.526,498.025C109.653,496.995 107.925,495.825 106.454,494.403C100.923,489.057 99.208,480.231 102.428,473.086L115.02,445.609L122.936,449.237ZM112.108,477.485C110.354,481.376 112.034,486.341 116.017,488.259C121.689,490.902 127.598,495.362 132.899,493.883C135.181,493.246 137.119,491.581 138.131,489.411L146.279,471.63L120.256,459.704C117.54,465.631 114.824,471.558 112.108,477.485Z" style="fill:rgb(217,217,217);fill-rule:nonzero;"/>
            </g>
        </g>
    </g>
</svg>
