<?xml version="1.0" encoding="UTF-8" standalone="no"?>
<!DOCTYPE svg PUBLIC "-//W3C//DTD SVG 1.1//EN" "http://www.w3.org/Graphics/SVG/1.1/DTD/svg11.dtd">
<svg width="100%" height="100%" viewBox="0 0 12 13" version="1.1" xmlns="http://www.w3.org/2000/svg" xmlns:xlink="http://www.w3.org/1999/xlink" xml:space="preserve" xmlns:serif="http://www.serif.com/" style="fill-rule:evenodd;clip-rule:evenodd;stroke-linejoin:round;stroke-miterlimit:1.41421;">
    <g transform="matrix(1,0,0,1,-270.969,-256.11)">
        <g transform="matrix(0.0997779,0,0,0.0997779,249.334,235.96)">
            <g transform="matrix(8.91667,0,0,8.91667,-159.917,-1200.19)">
                <circle cx="49" cy="164" r="6" style="fill:rgb(160,56,56);"/>
            </g>
            <g transform="matrix(8.91667,0,0,8.91667,-159.917,-1200.19)">
                <path d="M49.044,157.249C51.516,157.273 53.915,158.755 55.03,160.964C55.957,162.801 55.978,165.072 55.084,166.926C53.81,169.568 50.705,171.202 47.723,170.63C44.98,170.104 42.703,167.714 42.315,164.943C42.018,162.826 42.796,160.589 44.343,159.114C45.572,157.943 47.243,157.266 48.956,157.249C48.985,157.249 49.015,157.249 49.044,157.249ZM48.966,158.751C46.583,158.773 44.322,160.599 43.851,162.974C43.511,164.688 44.095,166.561 45.356,167.777C46.814,169.184 49.117,169.638 51.012,168.849C52.687,168.152 53.947,166.531 54.198,164.734C54.509,162.517 53.234,160.168 51.188,159.228C50.495,158.909 49.739,158.748 48.966,158.751Z" style="fill:rgb(255,77,0);fill-rule:nonzero;"/>
            </g>
        </g>
    </g>
</svg>
