<?xml version="1.0" encoding="UTF-8" standalone="no"?>
<!DOCTYPE svg PUBLIC "-//W3C//DTD SVG 1.1//EN" "http://www.w3.org/Graphics/SVG/1.1/DTD/svg11.dtd">
<svg width="100%" height="100%" viewBox="0 0 37 36" version="1.1" xmlns="http://www.w3.org/2000/svg" xmlns:xlink="http://www.w3.org/1999/xlink" xml:space="preserve" xmlns:serif="http://www.serif.com/" style="fill-rule:evenodd;clip-rule:evenodd;stroke-linejoin:round;stroke-miterlimit:1.41421;">
    <g transform="matrix(1,0,0,1,-620.757,-65.995)">
        <g transform="matrix(0.998845,0,0,0.998845,0.73929,0.104104)">
            <g transform="matrix(0.1,0,0,0.1,575.1,74.7381)">
                <path d="M696.016,89.222L525.623,89.222C522.996,89.116 522.282,88.762 520.975,88.076C515.531,85.219 514.096,76.786 518.411,72.294C520.272,70.357 522.913,69.331 525.623,69.222L696.016,69.222C696.284,69.232 696.553,69.243 696.821,69.254C697.531,69.34 697.713,69.341 698.409,69.512C706.029,71.39 708.658,83.881 700.663,88.076C699.357,88.762 698.643,89.116 696.016,89.222ZM752.377,46.296L679.632,46.296C677.453,46.238 676.739,45.964 675.5,45.402C669.03,42.466 667.707,31.716 674.556,27.68C675.627,27.049 676.814,26.621 678.042,26.423C678.567,26.338 679.1,26.31 679.632,26.296L752.377,26.296C752.555,26.3 752.732,26.305 752.909,26.31C755.082,26.484 755.781,26.795 756.988,27.422C763.203,30.651 763.99,41.06 757.454,44.911C756.383,45.542 755.195,45.971 753.968,46.168C753.442,46.253 752.91,46.281 752.377,46.296ZM632.774,46.296L525.623,46.296C518.106,46.049 512.57,36.013 518.104,29.702C519.689,27.895 521.94,26.694 524.317,26.381C524.895,26.305 525.042,26.315 525.623,26.296L632.774,26.296C632.992,26.303 633.21,26.31 633.428,26.317C640.751,27.038 645.583,36.857 640.292,42.889C638.708,44.696 636.457,45.897 634.079,46.21C633.502,46.286 633.355,46.277 632.774,46.296ZM752.377,3.369L525.623,3.369C516.934,2.968 511.628,-9.727 520.358,-15.133C521.798,-16.024 522.612,-16.491 525.623,-16.631L752.377,-16.631C752.685,-16.616 752.992,-16.602 753.3,-16.588C761.14,-15.494 765.323,-4.901 759.114,0.76C757.746,2.007 756.035,2.859 754.215,3.199C753.406,3.35 753.196,3.332 752.377,3.369Z" style="fill:rgb(253,186,5);fill-rule:nonzero;"/>
            </g>
        </g>
        <g transform="matrix(0.998845,0,0,0.998845,0.73929,0.104104)">
            <g transform="matrix(1,0,0,1,0,-0.946821)">
                <path d="M653.859,66.938C655.607,66.954 657.232,68.461 657.25,70.328C657.27,76.776 657.27,83.224 657.25,89.672C657.233,91.438 655.7,93.057 653.839,93.063L630.142,93.063L620.75,102.455C620.75,91.746 620.717,81.037 620.75,70.328C620.767,68.577 622.274,66.955 624.141,66.938C634.047,66.906 643.953,66.906 653.859,66.938ZM624.164,68.937C623.431,68.94 622.758,69.563 622.75,70.341C622.75,70.341 622.75,97.627 622.75,97.627L629.314,91.063C637.498,91.063 645.683,91.192 653.865,91.062C654.589,91.046 655.238,90.422 655.25,89.668C655.311,83.22 655.354,76.77 655.25,70.322C655.234,69.601 654.61,68.95 653.856,68.938C643.959,68.843 634.061,68.937 624.164,68.937Z" style="fill:rgb(217,217,217);fill-rule:nonzero;"/>
            </g>
        </g>
    </g>
</svg>
