<?xml version="1.0" encoding="UTF-8" standalone="no"?>
<!DOCTYPE svg PUBLIC "-//W3C//DTD SVG 1.1//EN" "http://www.w3.org/Graphics/SVG/1.1/DTD/svg11.dtd">
<svg width="100%" height="100%" viewBox="0 0 38 37" version="1.1" xmlns="http://www.w3.org/2000/svg" xmlns:xlink="http://www.w3.org/1999/xlink" xml:space="preserve" xmlns:serif="http://www.serif.com/" style="fill-rule:evenodd;clip-rule:evenodd;stroke-linejoin:round;stroke-miterlimit:1.41421;">
    <g transform="matrix(1,0,0,1,-824.292,-65.995)">
        <g transform="matrix(1,0,0,1,102.005,-0.937498)">
            <g transform="matrix(0.10001,0,0,0.10001,650.929,61.2102)">
                <path d="M725.515,161.871C721.472,159.994 718.369,156.086 717.909,151.425L713.539,100.742C713.043,94.04 718.295,87.619 725.147,86.941L1069.42,57.258C1069.83,57.228 1070.24,57.216 1070.66,57.217C1076.98,57.394 1082.58,62.447 1083.22,68.864L1087.59,119.551C1088.08,126.235 1082.83,132.674 1075.98,133.352L819.232,155.488C899.905,155.228 980.579,155.355 1061.25,155.868C1072.63,156.084 1082.79,165.792 1083.02,177.636C1083.47,250.074 1083.02,322.515 1083.02,394.955C1082.95,406.415 1073.13,416.748 1061.25,416.972C954.247,417.664 847.24,416.974 740.236,416.974C728.863,416.9 718.446,407.227 718.219,395.205C717.765,322.766 718.218,250.325 718.218,177.886C718.256,171.798 721.08,165.992 725.515,161.871ZM740.3,175.856C739.198,175.863 738.242,176.783 738.208,177.86C736.843,250.191 738.207,322.548 738.207,394.892C738.207,395.999 739.148,396.964 740.239,396.984C847.135,397.675 954.036,396.985 1060.93,396.985C1062.04,396.985 1063.01,396.043 1063.03,394.953C1063.48,322.62 1063.03,250.283 1063.03,177.949C1063.03,176.824 1062.06,175.856 1060.93,175.856C954.057,175.856 847.178,175.856 740.3,175.856ZM781.039,102.185L734.076,106.234L737.203,142.498L756.929,140.797L781.039,102.185ZM833.875,97.63L809.764,136.242L858.27,132.059L882.381,93.448L833.875,97.63ZM983.722,84.71L935.216,88.892L911.106,127.504L959.74,123.311C959.991,122.801 960.263,122.299 960.558,121.807L983.722,84.71ZM1036.56,80.155L1012.45,118.767L1067.05,114.059L1063.92,77.795L1036.56,80.155Z" style="fill:rgb(217,217,217);fill-rule:nonzero;"/>
            </g>
        </g>
        <g transform="matrix(1,0,0,1,102.005,-0.937498)">
            <g transform="matrix(0.995854,0,0,0.995854,53.8609,9.52033)">
                <path d="M696.024,73.401C696.727,74.046 697.327,74.802 697.797,75.637L698.089,76.161L695.942,77.938C695.951,77.967 695.961,77.995 695.971,78.024C696.102,78.426 696.195,78.842 696.246,79.264L698.953,79.95L698.918,80.548C698.856,81.517 698.639,82.473 698.273,83.376L698.045,83.93L695.316,83.36C695.3,83.385 695.284,83.411 695.268,83.436C695.035,83.791 694.768,84.121 694.469,84.425L695.622,86.969L695.132,87.314C694.334,87.871 693.447,88.297 692.519,88.573L691.943,88.74L690.688,86.251C690.658,86.255 690.628,86.258 690.598,86.261C690.176,86.3 689.751,86.297 689.327,86.253L688.057,88.74L687.481,88.573C686.55,88.297 685.667,87.872 684.868,87.314L684.378,86.969L685.541,84.436C685.52,84.414 685.499,84.393 685.478,84.371C685.184,84.065 684.921,83.731 684.692,83.373L681.955,83.93L681.727,83.376C681.362,82.474 681.144,81.514 681.082,80.548L681.047,79.95L683.752,79.28C683.756,79.25 683.759,79.22 683.763,79.19C683.819,78.769 683.916,78.355 684.053,77.953L681.911,76.161L682.203,75.637C682.679,74.79 683.294,74.021 684.011,73.369L684.457,72.969L686.668,74.666C686.693,74.65 686.719,74.635 686.745,74.619C687.108,74.4 687.492,74.218 687.893,74.074L687.959,71.282L688.55,71.183C689.508,71.028 690.488,71.028 691.45,71.183L692.041,71.282L692.093,74.069C692.121,74.079 692.149,74.089 692.177,74.1C692.575,74.248 692.958,74.435 693.319,74.658L695.543,72.969C695.703,73.113 695.864,73.256 696.024,73.401ZM689.96,72.398C689.734,72.4 689.507,72.411 689.282,72.432L689.222,75.078L688.707,75.216C688.116,75.377 687.558,75.647 687.066,76.006L686.637,76.323L684.539,74.712C684.201,75.06 683.9,75.44 683.636,75.843L685.667,77.539C685.349,78.266 685.082,79.012 685.048,79.804L685.028,80.337L682.461,80.973C682.522,81.454 682.632,81.926 682.782,82.384L685.374,81.853C685.745,82.555 686.159,83.227 686.759,83.749L687.164,84.097L686.06,86.501C686.474,86.753 686.912,86.962 687.363,87.13L688.565,84.772L689.09,84.871C689.69,84.982 690.308,84.982 690.91,84.871L691.435,84.772L692.626,87.134C693.081,86.967 693.518,86.755 693.93,86.507L692.836,84.097L693.241,83.749C693.701,83.349 694.087,82.866 694.376,82.326L694.625,81.853L697.215,82.394C697.368,81.935 697.474,81.461 697.538,80.984L694.972,80.337L694.952,79.804C694.926,79.195 694.789,78.591 694.547,78.028L694.333,77.539L696.37,75.852C696.107,75.447 695.805,75.07 695.469,74.72L693.363,76.323C692.734,75.858 692.078,75.436 691.322,75.224L690.778,75.078L690.729,72.433C690.473,72.408 690.217,72.398 689.96,72.398ZM690.019,77.018C691.401,77.031 692.691,78.107 692.935,79.473C693.172,80.798 692.392,82.235 691.144,82.754C689.757,83.331 687.974,82.663 687.313,81.293C686.773,80.174 687.031,78.722 687.93,77.854C688.469,77.334 689.206,77.03 689.962,77.018C689.981,77.018 690,77.018 690.019,77.018ZM689.989,78.352C688.909,78.362 688.013,79.626 688.501,80.687C688.85,81.445 689.833,81.844 690.613,81.531C691.449,81.195 691.895,80.095 691.473,79.259C691.198,78.716 690.605,78.35 689.989,78.352Z" style="fill:rgb(253,186,5);fill-rule:nonzero;"/>
            </g>
        </g>
    </g>
</svg>
