<?xml version="1.0" encoding="UTF-8" standalone="no"?>
<!DOCTYPE svg PUBLIC "-//W3C//DTD SVG 1.1//EN" "http://www.w3.org/Graphics/SVG/1.1/DTD/svg11.dtd">
<svg width="100%" height="100%" viewBox="0 0 39 36" version="1.1" xmlns="http://www.w3.org/2000/svg" xmlns:xlink="http://www.w3.org/1999/xlink" xml:space="preserve" xmlns:serif="http://www.serif.com/" style="fill-rule:evenodd;clip-rule:evenodd;stroke-linejoin:round;stroke-miterlimit:1.41421;">
    <g transform="matrix(1,0,0,1,-58.95,-65.995)">
        <g transform="matrix(1,0,0,1,9.58464,-6.1289)">
            <g transform="matrix(0.999857,0,0,0.999857,-10.088,7.5331)">
                <g id="_-" serif:id=" " transform="matrix(1.00014,0,0,1.00014,0.114648,-6.02468)">
                    <path d="M81.726,106.521C74.406,106.546 69.085,106.505 61.765,106.505C60.52,106.497 59.39,105.428 59.365,104.133C59.306,94.728 59.365,85.323 59.365,75.918C59.373,74.672 60.443,73.543 61.737,73.518C65.373,73.495 68.008,73.482 71.644,73.479L70.567,75.503C67.302,75.51 65.036,75.518 61.771,75.518C61.558,75.519 61.372,75.7 61.365,75.91C61.186,85.31 61.186,94.714 61.365,104.113C61.371,104.32 61.554,104.502 61.763,104.506C69.084,104.552 74.406,104.639 81.726,104.556L81.726,106.521ZM85.518,84.448C85.508,81.602 85.481,78.756 85.427,75.91C85.42,75.703 85.238,75.522 85.029,75.518C82.105,75.499 80.18,75.494 77.255,75.494L75.905,73.48C79.288,73.484 81.671,73.497 85.055,73.518C86.258,73.541 87.361,74.557 87.424,75.798C87.425,75.829 87.426,75.86 87.427,75.89C87.445,78.743 87.452,81.595 87.453,84.448L85.518,84.448Z" style="fill:rgb(217,217,217);fill-rule:nonzero;"/>
                </g>
                <g transform="matrix(0.0999506,0,0,0.0999506,70.6796,73.7078)">
                    <path d="M-18.937,83.66C-28.304,83.635 -37.671,83.603 -47.037,83.563C-60.371,83.396 -71.205,67.371 -63.706,54.329C-37.059,8.87 -10.218,-36.475 16.806,-81.711C20.329,-87.499 26.615,-91.151 33.634,-91.122C40.228,-91.041 46.625,-87.487 50.14,-81.711C76.301,-37.92 102.291,5.974 128.099,49.975L109.819,50.075C86.015,8.545 60.845,-32.195 36.464,-73.391C35.844,-74.439 34.656,-75.12 33.444,-75.115C32.264,-75.1 31.128,-74.452 30.515,-73.445C3.547,-28.303 -23.049,17.06 -49.83,62.312C-51.066,64.4 -49.482,67.481 -46.962,67.555C-34.627,67.813 -22.291,67.953 -9.954,68.014L-18.937,83.66Z" style="fill:rgb(253,186,5);fill-rule:nonzero;"/>
                </g>
                <g transform="matrix(0.995255,0,0,0.774806,45.3169,20.0224)">
                    <path d="M49.787,74.333C50.991,74.352 52.122,75.493 52.417,76.984C52.587,77.842 52.492,78.773 52.157,79.556C48.868,87.09 45.556,94.606 42.218,102.105C41.741,103.156 40.841,103.847 39.871,103.863C31.783,103.906 25.704,103.907 17.616,103.863C16.412,103.844 15.281,102.703 14.986,101.212C14.816,100.354 14.911,99.423 15.246,98.64C18.535,91.106 21.847,83.589 25.185,76.091C25.662,75.039 26.576,74.349 27.532,74.333C35.62,74.289 41.699,74.29 49.787,74.333ZM27.558,76.914C27.303,76.916 27.058,77.095 26.928,77.375C23.545,84.831 20.185,92.309 16.997,99.907C16.767,100.465 17.105,101.273 17.633,101.282C25.714,101.326 31.787,101.499 39.866,101.281C40.115,101.272 40.352,101.091 40.478,100.814C43.812,93.324 47.219,85.884 50.406,78.289C50.636,77.73 50.297,76.923 49.77,76.914C41.696,76.871 35.632,76.914 27.558,76.914Z" style="fill:rgb(217,217,217);fill-rule:nonzero;"/>
                </g>
            </g>
        </g>
    </g>
</svg>
