<?xml version="1.0" encoding="UTF-8" standalone="no"?>
<!DOCTYPE svg PUBLIC "-//W3C//DTD SVG 1.1//EN" "http://www.w3.org/Graphics/SVG/1.1/DTD/svg11.dtd">
<svg width="100%" height="100%" viewBox="0 0 1000 1000" version="1.1" xmlns="http://www.w3.org/2000/svg" xmlns:xlink="http://www.w3.org/1999/xlink" xml:space="preserve" xmlns:serif="http://www.serif.com/" style="fill-rule:evenodd;clip-rule:evenodd;stroke-linejoin:round;stroke-miterlimit:1.41421;">
    <g transform="matrix(0.1,0,0,-0.1,0,512)">
        <path d="M1670.9,4988.2C1438.25,4938.47 722.54,4952.86 722.54,4952.86L743,1027.78L845.302,-4731.62L1680.5,-4748.4L8317.6,-4748.4L9134.24,-4772.54L9236.54,4973.32L8319.5,4990.1C8319.5,4990.1 1862.2,5030.3 1670.9,4988.2ZM8472.67,4349.35L8472.67,1893.5L1526.87,2016.62L1506.77,4328.79L8472.67,4349.35ZM8431.75,1144.93L8370.37,-4046.37L1527.33,-3984.99L1568.25,1185.85L8431.75,1144.93Z" style="fill:rgb(232,232,232);fill-rule:nonzero;"/>
        <path d="M2971.9,90.2C2537.6,-66.7 2411.3,-602.4 2732.7,-921.9C2857.1,-1048.2 2971.9,-1094.1 3163.2,-1094.1C3354.5,-1094.1 3469.3,-1048.2 3593.7,-921.9C3720,-797.5 3765.9,-682.7 3765.9,-491.4C3765.9,-300.1 3720,-185.3 3593.7,-60.9C3436.9,96 3169,161 2971.9,90.2Z" style="fill:rgb(255,190,0);fill-rule:nonzero;"/>
        <path d="M4808.7,90.2C4374.4,-66.7 4248.1,-602.4 4569.5,-921.9C4693.9,-1048.2 4808.7,-1094.1 5000,-1094.1C5191.3,-1094.1 5306.1,-1048.2 5430.5,-921.9C5556.8,-797.5 5602.7,-682.7 5602.7,-491.4C5602.7,-300.1 5556.8,-185.3 5430.5,-60.9C5273.6,96 5005.7,161 4808.7,90.2Z" style="fill:rgb(255,190,0);fill-rule:nonzero;"/>
        <path d="M6645.4,90.2C6211.1,-66.7 6084.8,-602.4 6406.2,-921.9C6530.6,-1048.2 6645.4,-1094.1 6836.7,-1094.1C7028,-1094.1 7142.8,-1048.2 7267.2,-921.9C7393.5,-797.5 7439.4,-682.7 7439.4,-491.4C7439.4,-300.1 7393.5,-185.3 7267.2,-60.9C7110.3,96 6842.5,161 6645.4,90.2Z" style="fill:rgb(255,190,0);fill-rule:nonzero;"/>
        <path d="M2971.9,-1746.5C2537.6,-1903.4 2411.3,-2439.1 2732.7,-2758.6C2857.1,-2884.9 2971.9,-2930.8 3163.2,-2930.8C3354.5,-2930.8 3469.3,-2884.9 3593.7,-2758.6C3720,-2634.2 3765.9,-2519.4 3765.9,-2328.1C3765.9,-2136.8 3720,-2022 3593.7,-1897.6C3436.9,-1740.8 3169,-1675.7 2971.9,-1746.5Z" style="fill:rgb(255,190,0);fill-rule:nonzero;"/>
        <path d="M4808.7,-1746.5C4374.4,-1903.4 4248.1,-2439.1 4569.5,-2758.6C4693.9,-2884.9 4808.7,-2930.8 5000,-2930.8C5191.3,-2930.8 5306.1,-2884.9 5430.5,-2758.6C5556.8,-2634.2 5602.7,-2519.4 5602.7,-2328.1C5602.7,-2136.8 5556.8,-2022 5430.5,-1897.6C5273.6,-1740.8 5005.7,-1675.7 4808.7,-1746.5Z" style="fill:rgb(255,190,0);fill-rule:nonzero;"/>
        <path d="M6645.4,-1746.5C6211.1,-1903.4 6084.8,-2439.1 6406.2,-2758.6C6530.6,-2884.9 6645.4,-2930.8 6836.7,-2930.8C7028,-2930.8 7142.8,-2884.9 7267.2,-2758.6C7393.5,-2634.2 7439.4,-2519.4 7439.4,-2328.1C7439.4,-2136.8 7393.5,-2022 7267.2,-1897.6C7110.3,-1740.8 6842.5,-1675.7 6645.4,-1746.5Z" style="fill:rgb(255,190,0);fill-rule:nonzero;"/>
    </g>
</svg>
