<?xml version="1.0" encoding="UTF-8" standalone="no"?>
<!DOCTYPE svg PUBLIC "-//W3C//DTD SVG 1.1//EN" "http://www.w3.org/Graphics/SVG/1.1/DTD/svg11.dtd">
<svg width="100%" height="100%" viewBox="0 0 37 42" version="1.1" xmlns="http://www.w3.org/2000/svg" xmlns:xlink="http://www.w3.org/1999/xlink" xml:space="preserve" xmlns:serif="http://www.serif.com/" style="fill-rule:evenodd;clip-rule:evenodd;stroke-linejoin:round;stroke-miterlimit:1.41421;">
    <g transform="matrix(1,0,0,1,-518.867,-63.2712)">
        <g transform="matrix(0.636412,0,0,0.661063,310.979,-548.182)">
            <g transform="matrix(0.999404,0,0,0.999404,0.108725,0.5222)">
                <g transform="matrix(1.71086,0,0,1.64706,-476.374,817.847)">
                    <path d="M488.892,65.047C491.342,65.07 493.586,67.161 493.593,69.777L493.593,84.074C496.351,87.851 499.12,91.62 501.865,95.406C503.164,97.222 503.024,99.912 501.517,101.582C500.478,102.733 498.851,103.334 497.319,103.093C496.114,102.905 495.004,102.213 494.28,101.228L486.983,91.231C483.13,92.263 479.28,93.308 475.423,94.328C473.601,94.797 471.545,94.098 470.407,92.61C469.5,91.423 469.197,89.807 469.593,88.367C470.046,86.718 471.395,85.353 473.067,84.9L484.13,81.936C484.13,77.873 484.117,73.811 484.13,69.748C484.152,67.406 486.122,65.18 488.619,65.053C488.71,65.048 488.801,65.047 488.892,65.047Z" style="fill:rgb(204,204,204);fill-rule:nonzero;"/>
                </g>
                <g transform="matrix(0.796874,-0.604145,0.604145,0.796874,-616.199,1154.47)">
                    <path d="M902,433.943C902,430.663 899.311,428 896,428C892.689,428 890,430.663 890,433.943L890,460.057C890,463.337 892.689,466 896,466C899.311,466 902,463.337 902,460.057L902,433.943Z" style="fill:rgb(146,44,47);"/>
                </g>
                <g transform="matrix(1,0,0,1,-536,499)">
                    <path d="M890,455.333L890,433.776C890,430.588 892.689,428 896,428C899.311,428 902,430.588 902,433.776L902,457.984L896,460L890,455.333Z" style="fill:rgb(59,126,27);"/>
                </g>
                <path d="M360,959L357.647,965.8L336.518,971.249C333.203,972.104 329.84,970.195 329.013,966.988C328.186,963.782 330.206,960.484 333.522,959.629L354.014,954.344L360,959Z" style="fill:rgb(0,58,216);"/>
                <g transform="matrix(0.785774,0,0,0.785774,-148.684,216.573)">
                    <path d="M650.241,908.411L647.919,913.005L647.919,915.54L646.314,915.54L646.314,913.034L644.052,908.411L645.886,908.411L647.035,911.071C647.054,911.12 647.109,911.314 647.199,911.652L647.218,911.652C647.262,911.414 647.313,911.227 647.373,911.091L648.541,908.411L650.241,908.411Z" style="fill:rgb(217,217,217);fill-rule:nonzero;"/>
                </g>
                <g transform="matrix(0.785774,0,0,0.785774,-173.606,248.895)">
                    <path d="M649.997,915.54L644.256,915.54L644.256,914.615L647.909,909.719L644.519,909.719L644.519,908.411L649.987,908.411L649.987,909.311L646.413,914.237L649.997,914.237L649.997,915.54Z" style="fill:rgb(217,217,217);fill-rule:nonzero;"/>
                </g>
                <g transform="matrix(0.785774,0,0,0.785774,-132.704,263.334)">
                    <path d="M650.442,915.54L648.538,915.54L647.31,913.218C647.264,913.132 647.216,912.973 647.166,912.741L647.146,912.741C647.123,912.85 647.069,913.016 646.982,913.238L645.749,915.54L643.836,915.54L646.107,911.975L644.029,908.411L645.983,908.411L647.002,910.549C647.082,910.718 647.153,910.918 647.216,911.15L647.236,911.15C647.276,911.011 647.35,910.804 647.46,910.529L648.593,908.411L650.383,908.411L648.245,911.946L650.442,915.54Z" style="fill:rgb(217,217,217);fill-rule:nonzero;"/>
                </g>
            </g>
        </g>
    </g>
</svg>
