<?xml version="1.0" encoding="UTF-8" standalone="no"?>
<!DOCTYPE svg PUBLIC "-//W3C//DTD SVG 1.1//EN" "http://www.w3.org/Graphics/SVG/1.1/DTD/svg11.dtd">
<svg width="100%" height="100%" viewBox="0 0 31 33" version="1.1" xmlns="http://www.w3.org/2000/svg" xmlns:xlink="http://www.w3.org/1999/xlink" xml:space="preserve" xmlns:serif="http://www.serif.com/" style="fill-rule:evenodd;clip-rule:evenodd;stroke-linejoin:round;stroke-miterlimit:1.41421;">
    <g transform="matrix(1,0,0,1,-164.615,-68.5406)">
        <g transform="matrix(1,0,0,1,99.375,0)">
            <g transform="matrix(1.00121,0,0,1.00121,-0.097447,-0.127009)">
                <g transform="matrix(0.995255,0,0,0.856132,52.9943,11.6806)">
                    <path d="M42.209,66.507C42.425,66.611 42.646,66.719 42.81,66.91C42.976,67.103 43.096,67.344 43.157,67.608C43.187,67.739 43.187,67.877 43.202,68.011L43.202,100.938C43.193,102.559 42.043,104.04 40.593,104.126C40.558,104.128 40.523,104.129 40.488,104.129C32.015,104.192 23.541,104.13 15.068,104.13C13.629,104.119 12.332,102.663 12.323,100.938L12.323,68.011C12.363,67.657 12.345,67.55 12.502,67.233C12.898,66.437 13.995,66.195 14.61,66.91C14.776,67.103 14.896,67.344 14.957,67.608C14.987,67.739 14.987,67.877 15.002,68.011C15.002,78.984 15.002,89.956 15.002,100.928C15.002,100.974 15.033,101.014 15.071,101.015C23.53,101.078 31.989,101.015 40.448,101.015C40.489,101.015 40.523,100.978 40.523,100.928L40.523,68.011C40.553,67.742 40.586,67.466 40.702,67.233C40.879,66.876 41.181,66.611 41.516,66.507C41.74,66.437 41.977,66.472 42.209,66.507Z" style="fill:rgb(217,217,217);fill-rule:nonzero;"/>
                </g>
                <g transform="matrix(0.0499186,0,0,0.0499186,77.4216,69.4592)">
                    <path d="M186.111,38.729L216.383,-2.937C217.591,-4.534 218.022,-4.911 218.876,-5.648C221.516,-7.93 224.901,-9.311 228.39,-9.525C229.585,-9.599 229.857,-9.546 230.235,-9.533C241.424,-8.717 249.701,5.003 242.716,15.435C242.602,15.605 242.482,15.771 242.364,15.94L212.092,57.605L261.073,73.52C268.708,76.177 273.582,84.663 271.74,92.475C269.77,100.832 260.309,106.639 251.785,104.255C251.572,104.195 251.361,104.127 251.15,104.063L202.169,88.148L202.169,139.649C201.997,147.723 195.479,154.967 187.473,155.649C178.663,156.398 170.247,148.736 170.054,139.649L170.054,88.148L121.073,104.063C110.98,107.113 99.459,98.602 100.081,87.863C100.452,81.467 105.004,75.658 111.15,73.52L160.131,57.605L129.859,15.94C123.313,6.557 129.19,-8.845 141.988,-9.533C142.398,-9.555 142.808,-9.553 143.218,-9.551C145.219,-9.467 145.774,-9.327 146.866,-9.045C150.045,-8.224 152.947,-6.409 155.079,-3.903C155.433,-3.487 155.51,-3.373 155.84,-2.937L186.111,38.729Z" style="fill:rgb(253,186,5);fill-rule:nonzero;"/>
                </g>
                <g transform="matrix(0.211999,0,0,0.211999,70.025,74.418)">
                    <path d="M50.076,13.241C53.197,13.28 56.221,14.988 57.858,17.678C70.599,39.005 83.254,60.384 95.817,81.817C98.948,87.262 95.11,95.51 87.958,95.6C62.653,95.706 37.347,95.706 12.042,95.6C5.756,95.521 0.648,87.966 4.183,81.817C16.746,60.384 29.401,39.005 42.142,17.678C43.803,14.95 46.773,13.227 50.076,13.241ZM49.986,20.788C49.43,20.795 48.895,21.1 48.605,21.575C35.89,42.858 23.352,64.245 10.725,85.58C10.142,86.567 10.889,88.017 12.078,88.052C37.334,88.58 62.602,88.053 87.865,88.053C89.001,88.053 89.879,86.671 89.304,85.63C77.12,64.028 64.041,42.944 51.41,21.601C51.112,21.098 50.558,20.786 49.986,20.788Z" style="fill:rgb(253,186,5);fill-rule:nonzero;"/>
                </g>
            </g>
        </g>
    </g>
</svg>
