<?xml version="1.0" encoding="UTF-8" standalone="no"?>
<!DOCTYPE svg PUBLIC "-//W3C//DTD SVG 1.1//EN" "http://www.w3.org/Graphics/SVG/1.1/DTD/svg11.dtd">
<svg width="100%" height="100%" viewBox="0 0 30 36" version="1.1" xmlns="http://www.w3.org/2000/svg" xmlns:xlink="http://www.w3.org/1999/xlink" xml:space="preserve" xmlns:serif="http://www.serif.com/" style="fill-rule:evenodd;clip-rule:evenodd;stroke-linejoin:round;stroke-miterlimit:1.41421;">
    <g transform="matrix(1,0,0,1,-12.3136,-65.3699)">
        <g transform="matrix(0.99983,0,0,0.99983,-0.122704,0.114323)">
            <path d="M29.91,65.268C30.255,65.294 30.574,65.424 30.834,65.672L41.128,75.966C41.38,76.231 41.524,76.568 41.533,76.944L41.533,98.084C41.525,99.463 40.342,100.706 38.914,100.733C30.981,100.784 23.048,100.733 15.116,100.733C13.739,100.725 12.494,99.542 12.467,98.114C12.403,88.048 12.467,77.982 12.467,67.916C12.475,66.528 13.661,65.276 15.116,65.267L29.856,65.267C29.874,65.267 29.892,65.268 29.91,65.268ZM15.133,67.933L15.133,98.067L38.867,98.067L38.867,77.475L29.325,67.933C24.594,67.933 19.864,67.933 15.133,67.933Z" style="fill:rgb(217,217,217);fill-rule:nonzero;"/>
        </g>
        <g transform="matrix(0.212997,0,0,0.212997,16.3583,72.9494)">
            <path d="M50.076,13.241C53.197,13.28 56.221,14.988 57.858,17.678C70.599,39.005 83.254,60.384 95.817,81.817C98.951,87.267 95.05,95.511 87.958,95.6C62.653,95.706 37.347,95.706 12.042,95.6C5.761,95.521 0.618,88.017 4.183,81.817C16.746,60.384 29.401,39.005 42.142,17.678C43.803,14.95 46.773,13.227 50.076,13.241ZM49.986,20.788C49.43,20.795 48.895,21.1 48.605,21.576C35.89,42.858 23.352,64.245 10.725,85.58C10.152,86.549 10.868,88.007 12.064,88.052C37.32,88.791 62.598,88.053 87.865,88.053C89.004,88.053 89.873,86.681 89.31,85.642C77.307,63.935 64.044,42.948 51.41,21.601C51.118,21.107 50.558,20.786 49.986,20.788Z" style="fill:rgb(253,186,5);fill-rule:nonzero;"/>
        </g>
    </g>
</svg>
