<?xml version="1.0" encoding="UTF-8" standalone="no"?>
<!DOCTYPE svg PUBLIC "-//W3C//DTD SVG 1.1//EN" "http://www.w3.org/Graphics/SVG/1.1/DTD/svg11.dtd">
<svg width="100%" height="100%" viewBox="0 0 41 37" version="1.1" xmlns="http://www.w3.org/2000/svg" xmlns:xlink="http://www.w3.org/1999/xlink" xml:space="preserve" xmlns:serif="http://www.serif.com/" style="fill-rule:evenodd;clip-rule:evenodd;stroke-linejoin:round;stroke-miterlimit:1.41421;">
    <g transform="matrix(1,0,0,1,-57.9927,-64.5782)">
        <g transform="matrix(1,0,0,1,0,-6.1289)">
            <g transform="matrix(1.00044,0,0,1.00044,-0.16112,6.07878)">
                <g transform="matrix(0.0999506,0,0,0.0999506,70.6796,73.8472)">
                    <path d="M182.177,222.905C182.172,229.475 182.169,236.046 182.169,242.616C182.081,256.53 170.281,269.203 156.188,269.919C155.838,269.937 155.489,269.945 155.139,269.952C70.77,270.477 -13.602,269.954 -97.973,269.954C-111.866,269.868 -124.561,258.067 -125.276,243.973C-125.294,243.623 -125.303,243.274 -125.309,242.924C-125.903,148.798 -125.311,54.668 -125.311,-39.461C-125.224,-53.372 -113.426,-66.048 -99.33,-66.764C-98.981,-66.781 -98.631,-66.79 -98.282,-66.797C-61.343,-67.031 -24.403,-67.162 12.538,-67.192L-3.402,-40.259C-34.897,-40.193 -66.393,-40.119 -97.889,-40.119C-98.296,-40.116 -98.624,-39.804 -98.631,-39.431C-99.183,48.022 -98.708,135.479 -98.64,222.934L-103.13,230.865C-106.153,236.205 -106.112,242.75 -103.021,248.052C-99.93,253.354 -94.255,256.614 -88.118,256.614C-26.245,256.614 114.288,256.614 153.035,256.614C159.25,256.614 164.985,253.271 168.047,247.863L182.177,222.905ZM155.606,47.711C155.546,18.682 155.489,-10.347 155.489,-39.377C155.489,-39.772 155.178,-40.111 154.801,-40.119C126.631,-40.297 98.461,-40.356 70.291,-40.355L54.415,-67.181C87.99,-67.137 121.565,-67.009 155.14,-66.797C168.973,-66.534 181.416,-54.958 182.134,-40.818C182.152,-40.468 182.16,-40.119 182.167,-39.769C182.351,-10.61 182.421,18.551 182.43,47.711L155.606,47.711Z" style="fill:rgb(217,217,217);fill-rule:nonzero;"/>
                </g>
                <g transform="matrix(0.0999506,0,0,0.0999506,70.6796,73.8472)">
                    <path d="M-18.996,82.265C-28.343,82.24 -37.69,82.208 -47.037,82.168C-60.371,82.001 -71.205,65.976 -63.706,52.934C-37.059,7.475 -10.218,-37.87 16.806,-83.106C20.315,-88.871 26.615,-92.546 33.634,-92.517C40.253,-92.436 46.667,-88.812 50.14,-83.106C76.129,-39.603 101.949,4.002 127.589,47.711L109.263,47.711C85.623,6.517 60.655,-33.91 36.464,-74.786C35.84,-75.84 34.657,-76.515 33.444,-76.51C32.268,-76.495 31.129,-75.849 30.515,-74.84C3.547,-29.698 -23.049,15.665 -49.83,60.917C-51.058,62.993 -49.511,66.064 -46.991,66.159C-34.743,66.518 -22.492,66.712 -10.239,66.799L-18.996,82.265Z" style="fill:rgb(253,186,5);fill-rule:nonzero;"/>
                </g>
                <g transform="matrix(0.995255,0,0,0.774806,45.3169,20.0224)">
                    <path d="M50.795,73.903C52.146,73.924 53.416,75.205 53.747,76.878C53.937,77.841 53.831,78.886 53.455,79.765C50.165,87.3 46.851,94.819 43.513,102.32C42.977,103.501 41.952,104.276 40.878,104.293C32.789,104.337 24.698,104.335 16.609,104.293C15.179,104.27 13.847,102.842 13.605,101.005C13.49,100.131 13.614,99.212 13.948,98.431C17.238,90.895 20.552,83.376 23.89,75.876C24.426,74.695 25.451,73.92 26.525,73.903C34.615,73.859 42.705,73.86 50.795,73.903ZM26.553,77.344C26.416,77.345 26.284,77.44 26.214,77.589C22.785,85 19.6,92.593 16.294,100.095C16.158,100.403 16.345,100.847 16.631,100.851C24.709,100.893 32.791,101.154 40.866,100.851C40.999,100.845 41.125,100.747 41.193,100.599C44.523,93.117 47.804,85.6 51.109,78.1C51.244,77.795 51.058,77.349 50.772,77.344C42.699,77.302 34.626,77.344 26.553,77.344Z" style="fill:rgb(217,217,217);fill-rule:nonzero;"/>
                </g>
            </g>
        </g>
    </g>
</svg>
