<?xml version="1.0" encoding="UTF-8" standalone="no"?>
<!DOCTYPE svg PUBLIC "-//W3C//DTD SVG 1.1//EN" "http://www.w3.org/Graphics/SVG/1.1/DTD/svg11.dtd">
<svg width="100%" height="100%" viewBox="0 0 33 28" version="1.1" xmlns="http://www.w3.org/2000/svg" xmlns:xlink="http://www.w3.org/1999/xlink" xml:space="preserve" xmlns:serif="http://www.serif.com/" style="fill-rule:evenodd;clip-rule:evenodd;stroke-linejoin:round;stroke-miterlimit:1.41421;">
    <g transform="matrix(1,0,0,1,-469.99,-70.1891)">
        <g transform="matrix(0.998871,0,0,0.998871,0.550461,0.0907718)">
            <g transform="matrix(0.100117,0,0,0.100117,423.514,63.7514)">
                <path d="M619.192,188.931C617.996,193.166 617.356,197.633 617.356,202.249C617.356,206.864 617.996,211.331 619.192,215.566L480.62,215.566C479.471,215.415 478.293,215.412 477.173,215.112C467.399,212.493 463.397,196.814 473.961,190.715C476.677,189.147 477.592,189.329 480.62,188.931L619.192,188.931ZM713.463,188.931L767.644,188.931C768.793,189.082 769.942,189.233 771.091,189.385C773.913,190.553 774.844,190.615 777.061,192.831C781.875,197.645 782.151,206.576 777.061,211.666C775.408,213.319 773.349,214.507 771.091,215.112C769.971,215.412 768.793,215.415 767.644,215.566L713.463,215.566C714.659,211.331 715.298,206.864 715.298,202.249C715.298,197.633 714.659,193.166 713.463,188.931Z" style="fill:rgb(204,204,204);fill-rule:nonzero;"/>
            </g>
            <g transform="matrix(0.100117,0,0,0.100117,423.514,53.7773)">
                <path d="M698.192,188.931C696.996,193.166 696.356,197.633 696.356,202.249C696.356,206.864 696.996,211.331 698.192,215.566L480.62,215.566C479.471,215.415 478.293,215.412 477.173,215.112C467.399,212.493 463.397,196.814 473.961,190.715C476.677,189.147 477.592,189.329 480.62,188.931L698.192,188.931Z" style="fill:rgb(204,204,204);fill-rule:nonzero;"/>
            </g>
            <g transform="matrix(0.100117,0,0,0.100117,423.514,73.7882)">
                <path d="M549.463,188.931L767.644,188.931C768.793,189.082 769.942,189.233 771.091,189.385C773.913,190.553 774.844,190.615 777.061,192.831C781.875,197.645 782.151,206.576 777.061,211.666C775.408,213.319 773.349,214.507 771.091,215.112C769.971,215.412 768.793,215.415 767.644,215.566L549.463,215.566C550.659,211.331 551.298,206.864 551.298,202.249C551.298,197.633 550.659,193.166 549.463,188.931Z" style="fill:rgb(204,204,204);fill-rule:nonzero;"/>
            </g>
            <g transform="matrix(1,0,0,1,-2.15584,0)">
                <circle cx="500.368" cy="74" r="3.156" style="fill:rgb(0,81,255);"/>
            </g>
            <g transform="matrix(1,0,0,1,-2.15584,0)">
                <path d="M500.393,70.178C502.142,70.194 503.801,71.547 504.126,73.301C504.566,75.672 502.347,78.238 499.692,77.763C498.131,77.484 496.817,76.131 496.586,74.557C496.283,72.488 497.945,70.324 500.123,70.185C500.213,70.18 500.303,70.177 500.393,70.178ZM500.352,71.511C499.227,71.522 498.167,72.375 497.933,73.483C497.696,74.603 498.341,75.846 499.4,76.294C500.561,76.785 502.057,76.228 502.612,75.078C503.319,73.611 502.227,71.551 500.416,71.511C500.395,71.511 500.373,71.511 500.352,71.511Z" style="fill:rgb(204,204,204);fill-rule:nonzero;"/>
            </g>
            <g transform="matrix(-1,-1.22465e-16,1.22465e-16,-1,974.156,168.019)">
                <circle cx="500.368" cy="74" r="3.156" style="fill:rgb(44,44,44);"/>
            </g>
            <g transform="matrix(-1,-1.22465e-16,1.22465e-16,-1,974.156,168.019)">
                <path d="M500.343,77.822C498.599,77.806 496.948,76.462 496.614,74.723C496.377,73.488 496.796,72.146 497.698,71.265C498.751,70.237 500.427,69.894 501.813,70.46C503.408,71.113 504.43,72.94 504.135,74.652C503.838,76.378 502.252,77.782 500.442,77.822C500.409,77.822 500.376,77.823 500.343,77.822ZM500.384,76.489C501.505,76.479 502.56,75.635 502.8,74.532C503.045,73.409 502.399,72.156 501.336,71.706C500.18,71.217 498.69,71.766 498.131,72.908C497.415,74.37 498.482,76.448 500.32,76.489C500.341,76.489 500.363,76.489 500.384,76.489Z" style="fill:rgb(204,204,204);fill-rule:nonzero;"/>
            </g>
            <g transform="matrix(1,0,0,1,-10.1704,10)">
                <circle cx="500.368" cy="74" r="3.156" style="fill:rgb(44,44,44);"/>
            </g>
            <g transform="matrix(1,0,0,1,-10.1704,10)">
                <path d="M500.393,70.178C502.142,70.194 503.801,71.547 504.126,73.301C504.566,75.672 502.347,78.238 499.692,77.763C498.131,77.484 496.817,76.131 496.586,74.557C496.283,72.491 497.931,70.324 500.123,70.185C500.213,70.18 500.303,70.177 500.393,70.178ZM500.352,71.511C499.229,71.522 498.168,72.37 497.933,73.483C497.696,74.603 498.341,75.846 499.4,76.294C500.561,76.785 502.057,76.228 502.612,75.078C503.319,73.611 502.227,71.552 500.416,71.511C500.395,71.511 500.373,71.511 500.352,71.511Z" style="fill:rgb(204,204,204);fill-rule:nonzero;"/>
            </g>
        </g>
    </g>
</svg>
