<?xml version="1.0" encoding="UTF-8" standalone="no"?>
<!DOCTYPE svg PUBLIC "-//W3C//DTD SVG 1.1//EN" "http://www.w3.org/Graphics/SVG/1.1/DTD/svg11.dtd">
<svg width="100%" height="100%" viewBox="0 0 31 33" version="1.1" xmlns="http://www.w3.org/2000/svg" xmlns:xlink="http://www.w3.org/1999/xlink" xml:space="preserve" xmlns:serif="http://www.serif.com/" style="fill-rule:evenodd;clip-rule:evenodd;stroke-linejoin:round;stroke-miterlimit:1.41421;">
    <g transform="matrix(1,0,0,1,-113.615,-68.7209)">
        <g transform="matrix(1,0,0,1,48.375,0)">
            <g transform="matrix(1.00121,0,0,1.00121,-0.097447,0.0532704)">
                <g transform="matrix(0.995255,0,0,0.856132,52.9943,11.6806)">
                    <path d="M42.209,66.507C42.425,66.611 42.646,66.719 42.81,66.91C42.976,67.103 43.096,67.344 43.157,67.608C43.187,67.739 43.187,67.877 43.202,68.011L43.202,100.938C43.193,102.559 42.043,104.04 40.593,104.126C40.558,104.128 40.523,104.129 40.488,104.129C32.015,104.192 23.541,104.13 15.068,104.13C13.629,104.119 12.332,102.663 12.323,100.938L12.323,68.011C12.363,67.657 12.345,67.55 12.502,67.233C12.898,66.437 13.995,66.195 14.61,66.91C14.776,67.103 14.896,67.344 14.957,67.608C14.987,67.739 14.987,67.877 15.002,68.011C15.002,78.984 15.002,89.956 15.002,100.928C15.002,100.974 15.033,101.014 15.071,101.015C23.53,101.078 31.989,101.015 40.448,101.015C40.489,101.015 40.523,100.978 40.523,100.928L40.523,68.011C40.553,67.742 40.586,67.466 40.702,67.233C40.879,66.876 41.181,66.611 41.516,66.507C41.74,66.437 41.977,66.472 42.209,66.507Z" style="fill:rgb(217,217,217);fill-rule:nonzero;"/>
                </g>
                <g transform="matrix(0.211999,0,0,0.211999,70.025,74.418)">
                    <path d="M50.076,13.241C53.197,13.28 56.221,14.988 57.858,17.678C70.599,39.005 83.254,60.384 95.817,81.817C98.948,87.262 95.11,95.51 87.958,95.6C62.653,95.706 37.347,95.706 12.042,95.6C5.756,95.521 0.648,87.966 4.183,81.817C16.746,60.384 29.401,39.005 42.142,17.678C43.803,14.95 46.773,13.227 50.076,13.241ZM49.986,20.788C49.43,20.795 48.895,21.1 48.605,21.575C35.89,42.858 23.352,64.245 10.725,85.58C10.142,86.567 10.889,88.017 12.078,88.052C37.334,88.58 62.602,88.053 87.865,88.053C89.001,88.053 89.879,86.671 89.304,85.63C77.12,64.028 64.041,42.944 51.41,21.601C51.112,21.098 50.558,20.786 49.986,20.788Z" style="fill:rgb(253,186,5);fill-rule:nonzero;"/>
                </g>
            </g>
        </g>
    </g>
</svg>
