<?xml version="1.0" encoding="UTF-8" standalone="no"?>
<!DOCTYPE svg PUBLIC "-//W3C//DTD SVG 1.1//EN" "http://www.w3.org/Graphics/SVG/1.1/DTD/svg11.dtd">
<svg width="100%" height="100%" viewBox="0 0 29 36" version="1.1" xmlns="http://www.w3.org/2000/svg" xmlns:xlink="http://www.w3.org/1999/xlink" xml:space="preserve" xmlns:serif="http://www.serif.com/" style="fill-rule:evenodd;clip-rule:evenodd;stroke-linejoin:round;stroke-miterlimit:1.41421;">
    <g transform="matrix(1,0,0,1,-12.4806,-66.5094)">
        <g transform="matrix(0.999116,0,0,0.999116,-0.296871,1.57776)">
            <path d="M29.923,64.99C30.129,65.005 30.326,65.077 30.473,65.186C30.511,65.215 30.543,65.243 30.578,65.276L40.913,75.611C41.008,75.711 41.087,75.826 41.141,75.975C41.179,76.081 41.197,76.192 41.2,76.304C41.2,83.769 41.211,91.233 41.2,98.698C41.197,99.411 40.849,100.115 40.269,100.549C39.874,100.844 39.383,101.009 38.887,101.011C30.962,101.024 23.038,101.024 15.113,101.011C14.385,101.007 13.67,100.644 13.241,100.051C12.958,99.661 12.802,99.178 12.8,98.698C12.785,88.233 12.785,77.767 12.8,67.302C12.803,66.589 13.152,65.885 13.731,65.451C14.128,65.154 14.621,64.99 15.119,64.989L29.885,64.989C29.898,64.989 29.911,64.99 29.923,64.99ZM15.121,66.989C14.954,66.989 14.801,67.132 14.8,67.308C14.785,77.769 14.8,88.229 14.8,98.69C14.8,98.856 14.941,99.009 15.118,99.011C23.038,99.047 30.959,99.011 38.879,99.011C39.048,99.011 39.2,98.865 39.2,98.69L39.2,76.726L29.463,66.989C24.682,66.989 19.901,66.989 15.121,66.989Z" style="fill:rgb(217,217,217);fill-rule:nonzero;"/>
        </g>
        <g transform="matrix(0.999116,0,0,0.999116,-0.296871,1.57776)">
            <g transform="matrix(0.211999,0,0,0.211999,16.4,71.4629)">
                <path d="M50.019,13.241C53.067,13.25 56.061,14.864 57.728,17.469C57.783,17.554 57.836,17.64 57.887,17.727C70.546,39.066 83.228,60.392 95.797,81.783C97.288,84.333 97.458,87.586 96.205,90.286C95.145,92.569 93.102,94.38 90.701,95.156C89.798,95.448 88.847,95.597 87.9,95.6C62.627,95.626 37.354,95.679 12.081,95.6C9.127,95.584 6.241,94.074 4.556,91.62C3.131,89.545 2.613,86.864 3.168,84.403C3.377,83.477 3.733,82.583 4.212,81.767C16.827,60.401 29.42,39.024 42.122,17.711C43.724,15.036 46.75,13.277 49.905,13.241C49.943,13.241 49.981,13.241 50.019,13.241ZM49.996,20.788C49.441,20.79 48.896,21.096 48.607,21.573C35.78,42.794 23.348,64.251 10.719,85.591C10.466,86.019 10.419,86.57 10.61,87.037C10.851,87.63 11.461,88.051 12.116,88.053C37.369,88.079 62.623,88.053 87.877,88.053C88.369,88.053 88.866,87.815 89.171,87.418C89.563,86.909 89.619,86.167 89.284,85.597C76.68,64.248 64.031,42.926 51.404,21.591C51.115,21.102 50.569,20.787 49.996,20.788Z" style="fill:rgb(253,186,5);fill-rule:nonzero;"/>
            </g>
        </g>
    </g>
</svg>
