<?xml version="1.0" encoding="UTF-8" standalone="no"?>
<!DOCTYPE svg PUBLIC "-//W3C//DTD SVG 1.1//EN" "http://www.w3.org/Graphics/SVG/1.1/DTD/svg11.dtd">
<svg width="100%" height="100%" viewBox="0 0 24 21" version="1.1" xmlns="http://www.w3.org/2000/svg" xmlns:xlink="http://www.w3.org/1999/xlink" xml:space="preserve" xmlns:serif="http://www.serif.com/" style="fill-rule:evenodd;clip-rule:evenodd;stroke-linejoin:round;stroke-miterlimit:1.41421;">
    <g transform="matrix(0.999254,0,0,0.999254,-1433.73,-1021.42)">
        <g transform="matrix(0.1,0,0,0.1,1301.73,929.282)">
            <path d="M1447.09,929.048C1458.91,929.344 1470.36,935.891 1476.61,946.055C1503.74,991.488 1530.78,1037.17 1557.63,1082.95C1557.79,1083.23 1557.79,1083.23 1557.94,1083.51C1567.07,1100.27 1559.62,1124.19 1541.54,1132.66C1532.73,1136.79 1522.33,1135.88 1512.19,1135.92C1463.28,1136.08 1414.36,1136.06 1365.43,1135.86C1365.11,1135.86 1365.11,1135.86 1364.8,1135.85C1345.85,1135.17 1329.06,1116.75 1330.8,1097.02C1331.66,1087.3 1337.71,1078.78 1342.85,1070.02C1367.2,1028.57 1391.68,987.255 1416.28,946.057C1416.44,945.801 1416.44,945.801 1416.6,945.546C1422.97,935.534 1434.36,929.139 1446.38,929.042C1446.74,929.042 1446.74,929.042 1447.09,929.048Z" style="fill:rgb(3,146,0);fill-rule:nonzero;"/>
        </g>
        <g transform="matrix(0.64671,0,0,0.64671,1422.56,591.862)">
            <path d="M31.846,691.506L31.846,688.166C32.224,688.483 33.335,689.15 33.778,689.308C34.221,689.467 35.432,689.69 35.883,689.69C36.148,689.69 36.774,689.622 36.971,689.574C37.169,689.527 37.616,689.341 37.748,689.257C37.881,689.172 38.148,688.891 38.213,688.776C38.279,688.661 38.367,688.311 38.367,688.177C38.367,687.995 38.226,687.538 38.122,687.395C38.018,687.251 37.633,686.879 37.452,686.757C37.272,686.636 36.693,686.307 36.445,686.194C36.198,686.081 35.475,685.758 35.188,685.641C34.459,685.337 32.987,684.295 32.629,683.857C32.27,683.418 31.784,681.932 31.784,681.311C31.784,680.825 32.049,679.651 32.244,679.302C32.44,678.952 33.161,678.145 33.497,677.919C33.833,677.693 34.889,677.227 35.332,677.121C35.774,677.015 37.045,676.866 37.54,676.866C38.026,676.866 39.193,676.948 39.568,677.006C39.944,677.065 40.882,677.318 41.199,677.44L41.199,680.559C41.042,680.451 40.58,680.183 40.395,680.101C40.211,680.018 39.697,679.826 39.502,679.772C39.306,679.717 38.78,679.604 38.587,679.578C38.394,679.552 37.897,679.516 37.723,679.516C37.484,679.516 36.896,679.58 36.701,679.626C36.506,679.671 36.059,679.851 35.924,679.934C35.79,680.016 35.507,680.293 35.434,680.408C35.36,680.523 35.26,680.886 35.26,681.029C35.26,681.185 35.372,681.578 35.455,681.702C35.537,681.826 35.854,682.155 36.006,682.266C36.158,682.376 36.659,682.681 36.876,682.787C37.093,682.894 37.756,683.201 38.029,683.314C38.403,683.47 39.312,683.936 39.609,684.112C39.906,684.288 40.597,684.845 40.81,685.067C41.023,685.288 41.464,685.998 41.576,686.282C41.689,686.567 41.843,687.496 41.843,687.874C41.843,688.395 41.574,689.623 41.376,689.977C41.179,690.331 40.453,691.134 40.114,691.353C39.776,691.572 38.709,692.015 38.26,692.11C37.811,692.206 36.525,692.341 36.026,692.341C35.514,692.341 34.195,692.218 33.733,692.131C33.27,692.045 32.185,691.679 31.846,691.506Z" style="fill:rgb(45,0,0);fill-rule:nonzero;"/>
        </g>
        <g transform="matrix(0.212997,0,0,0.212997,1435.72,1020.94)">
            <path d="M50.076,13.241C53.197,13.28 56.221,14.988 57.858,17.678C70.599,39.005 83.254,60.384 95.817,81.817C98.951,87.267 95.05,95.511 87.958,95.6C62.653,95.706 37.347,95.706 12.042,95.6C5.761,95.521 0.618,88.017 4.183,81.817C16.746,60.384 29.401,39.005 42.142,17.678C43.803,14.95 46.773,13.227 50.076,13.241ZM49.986,20.788C49.43,20.795 48.895,21.1 48.605,21.576C35.89,42.858 23.352,64.245 10.725,85.58C10.152,86.549 10.868,88.007 12.064,88.052C37.32,88.791 62.598,88.053 87.865,88.053C89.004,88.053 89.873,86.681 89.31,85.642C77.307,63.935 64.044,42.948 51.41,21.601C51.118,21.107 50.558,20.786 49.986,20.788Z" style="fill:rgb(54,255,0);fill-rule:nonzero;"/>
        </g>
    </g>
</svg>
