<?xml version="1.0" encoding="UTF-8" standalone="no"?>
<!DOCTYPE svg PUBLIC "-//W3C//DTD SVG 1.1//EN" "http://www.w3.org/Graphics/SVG/1.1/DTD/svg11.dtd">
<svg width="100%" height="100%" viewBox="0 0 37 36" version="1.1" xmlns="http://www.w3.org/2000/svg" xmlns:xlink="http://www.w3.org/1999/xlink" xml:space="preserve" xmlns:serif="http://www.serif.com/" style="fill-rule:evenodd;clip-rule:evenodd;stroke-linejoin:round;stroke-miterlimit:1.41421;">
    <g transform="matrix(1,0,0,1,-671.771,-66.0231)">
        <g transform="matrix(0.998048,0,0,0.998048,1.3471,-0.760143)">
            <g transform="matrix(1,0,0,1,51.0917,-1.23758)">
                <path d="M653.768,68.175C655.518,68.192 657.141,69.698 657.158,71.566C657.178,78.014 657.178,84.462 657.158,90.909C657.142,92.672 655.635,94.282 653.768,94.3C643.862,94.332 633.955,94.332 624.049,94.3C622.298,94.283 620.676,92.777 620.658,90.909C620.638,84.462 620.638,78.014 620.658,71.566C620.675,69.804 622.182,68.193 624.049,68.175C633.955,68.144 643.862,68.144 653.768,68.175ZM624.072,70.175C623.337,70.177 622.666,70.813 622.658,71.578C622.638,78.024 622.555,84.47 622.659,90.915C622.674,91.636 623.298,92.288 624.052,92.3C633.959,92.394 643.868,92.456 653.774,92.3C654.497,92.284 655.146,91.661 655.158,90.906C655.219,84.458 655.262,78.008 655.158,71.56C655.142,70.84 654.528,70.187 653.764,70.175C643.867,70.081 633.97,70.175 624.072,70.175Z" style="fill:rgb(217,217,217);fill-rule:nonzero;"/>
            </g>
        </g>
        <g transform="matrix(0.998048,0,0,0.998048,1.3471,-0.760143)">
            <g transform="matrix(0.548846,0,0,0.233857,339.337,80.1373)">
                <path d="M655.167,64.899C656.636,64.965 657.951,67.922 657.98,71.502C657.997,77.992 657.997,84.483 657.98,90.973C657.952,94.417 656.701,97.508 655.167,97.576C644.328,97.737 633.489,97.737 622.65,97.576C621.184,97.511 619.865,94.573 619.837,90.973C619.818,84.483 619.818,77.992 619.837,71.502C619.864,68.061 621.117,64.968 622.65,64.899C633.489,64.738 644.328,64.738 655.167,64.899ZM623.48,73.451L623.48,89.024L654.336,89.024L654.336,73.451C644.051,73.451 633.766,73.451 623.48,73.451Z" style="fill:rgb(217,217,217);fill-rule:nonzero;"/>
            </g>
        </g>
        <g transform="matrix(0.998048,0,0,0.998048,1.3471,-0.760143)">
            <path d="M696.024,73.401C696.729,74.048 697.328,74.803 697.797,75.637L698.089,76.161L695.942,77.938C695.951,77.967 695.961,77.995 695.971,78.024C696.103,78.427 696.195,78.842 696.246,79.264L698.953,79.95L698.918,80.548C698.856,81.517 698.639,82.473 698.273,83.376L698.045,83.93L695.316,83.36C695.3,83.385 695.284,83.411 695.268,83.436C695.034,83.791 694.766,84.123 694.469,84.425L695.622,86.969L695.132,87.314C694.336,87.87 693.453,88.296 692.519,88.573L691.943,88.74L690.688,86.251C690.658,86.255 690.628,86.258 690.598,86.261C690.176,86.3 689.751,86.297 689.327,86.253L688.057,88.74L687.481,88.573C686.551,88.297 685.667,87.872 684.868,87.314L684.378,86.969L685.541,84.436C685.52,84.414 685.499,84.393 685.478,84.371C685.183,84.064 684.921,83.731 684.692,83.373L681.955,83.93L681.727,83.376C681.363,82.476 681.144,81.52 681.082,80.548L681.047,79.95L683.752,79.28C683.756,79.25 683.759,79.22 683.763,79.19C683.819,78.769 683.916,78.355 684.053,77.953L681.911,76.161L682.203,75.637C682.679,74.791 683.29,74.024 684.011,73.369L684.457,72.969L686.668,74.666C686.693,74.65 686.719,74.635 686.745,74.619C687.109,74.4 687.494,74.217 687.893,74.074L687.959,71.282L688.55,71.183C689.508,71.028 690.488,71.028 691.45,71.183L692.041,71.282L692.093,74.069C692.121,74.079 692.149,74.089 692.177,74.1C692.575,74.248 692.957,74.434 693.319,74.658L695.543,72.969C695.703,73.113 695.864,73.256 696.024,73.401ZM689.96,72.398C689.734,72.4 689.507,72.411 689.282,72.432L689.222,75.078L688.707,75.216C688.118,75.377 687.561,75.645 687.066,76.006L686.637,76.323L684.539,74.712C684.202,75.06 683.901,75.439 683.636,75.843L685.667,77.539C685.35,78.266 685.082,79.009 685.048,79.804L685.028,80.337L682.461,80.973C682.522,81.453 682.632,81.925 682.782,82.384C682.782,82.384 685.374,81.853 685.374,81.853L685.624,82.326C685.912,82.865 686.3,83.35 686.759,83.749L687.164,84.097L686.06,86.501C686.474,86.753 686.912,86.962 687.363,87.13L688.565,84.772L689.09,84.871C689.69,84.982 690.308,84.982 690.91,84.871L691.435,84.772L692.626,87.134C693.081,86.967 693.518,86.755 693.93,86.507C693.93,86.507 692.836,84.097 692.836,84.097L693.241,83.749C693.701,83.349 694.087,82.865 694.376,82.325L694.626,81.853L697.215,82.394C697.367,81.938 697.474,81.464 697.538,80.984L694.972,80.337L694.952,79.804C694.926,79.194 694.789,78.591 694.547,78.028L694.333,77.539L696.37,75.852C696.106,75.446 695.803,75.068 695.469,74.72L693.363,76.323L692.934,76.006C692.44,75.645 691.881,75.377 691.293,75.216L690.778,75.078L690.729,72.433C690.475,72.409 690.218,72.398 689.96,72.398ZM690.019,77.018C691.392,77.031 692.679,78.089 692.932,79.455C693.178,80.783 692.396,82.233 691.144,82.754C689.757,83.331 687.973,82.663 687.313,81.293C686.769,80.164 687.038,78.695 687.956,77.83C688.497,77.32 689.233,77.025 689.981,77.018C689.994,77.018 690.006,77.018 690.019,77.018ZM689.989,78.352C688.906,78.362 688.011,79.639 688.505,80.696C688.858,81.45 689.836,81.843 690.613,81.531C691.46,81.19 691.9,80.067 691.459,79.233C691.18,78.703 690.601,78.35 689.989,78.352Z" style="fill:rgb(253,186,5);fill-rule:nonzero;"/>
        </g>
    </g>
</svg>
