<?xml version="1.0" encoding="iso-8859-1"?>
<!-- Generator: Adobe Illustrator 19.1.0, SVG Export Plug-In . SVG Version: 6.00 Build 0)  -->
<svg version="1.1" id="Capa_1" xmlns="http://www.w3.org/2000/svg" xmlns:xlink="http://www.w3.org/1999/xlink" x="0px" y="0px"
	 viewBox="0 0 63 63" style="enable-background:new 0 0 63 63;" xml:space="preserve">
<g>
	<g>
		<g id="group-23svg">
			<path id="path-1_14_" d="M62.5,57.5c0,3.038-2.462,5.5-5.5,5.5H6c-3.038,0-5.5-2.462-5.5-5.5v-52C0.5,2.462,2.962,0,6,0h51
				c3.038,0,5.5,2.462,5.5,5.5V57.5z M59.5,5.5C59.5,4.119,58.381,3,57,3H6C4.619,3,3.5,4.119,3.5,5.5v52C3.5,58.881,4.619,60,6,60
				h51c1.381,0,2.5-1.119,2.5-2.5V5.5z"/>
			<path id="path-2_14_" d="M31.591,40.002c-4.235,0-7.679-3.444-7.679-7.678s3.444-7.679,7.679-7.679
				c4.234,0,7.678,3.445,7.678,7.679S35.825,40.002,31.591,40.002z M31.591,27.645c-2.58,0-4.679,2.099-4.679,4.679
				c0,2.58,2.099,4.678,4.679,4.678s4.679-2.098,4.679-4.678S34.171,27.645,31.591,27.645z"/>
			<path id="path-3_14_" d="M31.591,46.876c-8.025,0-14.553-6.528-14.553-14.552c0-8.025,6.528-14.553,14.553-14.553
				c8.023,0,14.552,6.528,14.552,14.553C46.143,40.348,39.614,46.876,31.591,46.876z M31.591,20.771
				c-6.37,0-11.553,5.183-11.553,11.553s5.183,11.552,11.553,11.552s11.552-5.182,11.552-11.552S37.961,20.771,31.591,20.771z"/>
			<path id="path-4_14_" d="M31.591,52.774c-11.277,0-20.45-9.174-20.45-20.45c0-11.277,9.173-20.451,20.45-20.451
				c11.275,0,20.449,9.174,20.449,20.451C52.04,43.6,42.866,52.774,31.591,52.774z M31.591,14.874c-9.622,0-17.45,7.828-17.45,17.45
				s7.828,17.45,17.45,17.45c9.621,0,17.449-7.828,17.449-17.45S41.212,14.874,31.591,14.874z"/>
			<path id="path-5_14_" d="M50.073,34h-37c-0.828,0-1.5-0.671-1.5-1.5c0-0.829,0.672-1.5,1.5-1.5h37c0.828,0,1.5,0.671,1.5,1.5
				C51.573,33.329,50.901,34,50.073,34z"/>
			<path id="path-6_13_" d="M31,52.5c-0.828,0-1.5-0.671-1.5-1.5V14c0-0.829,0.672-1.5,1.5-1.5s1.5,0.671,1.5,1.5v37
				C32.5,51.829,31.828,52.5,31,52.5z"/>
			<path id="path-7_11_" d="M56.606,55.929c0,1.143-0.926,2.069-2.069,2.069s-2.069-0.926-2.069-2.069s0.926-2.069,2.069-2.069
				S56.606,54.786,56.606,55.929z"/>
			<path id="path-8_10_" d="M50.399,55.929c0,1.143-0.926,2.069-2.069,2.069s-2.069-0.926-2.069-2.069s0.926-2.069,2.069-2.069
				S50.399,54.786,50.399,55.929z"/>
			<path id="path-9_8_" d="M43.158,55.929c0,1.143-0.927,2.069-2.07,2.069c-1.142,0-2.069-0.926-2.069-2.069
				s0.927-2.069,2.069-2.069C42.231,53.86,43.158,54.786,43.158,55.929z"/>
			<path id="path-10_6_" d="M14.073,58h-6c-0.828,0-1.5-0.671-1.5-1.5s0.672-1.5,1.5-1.5h6c0.828,0,1.5,0.671,1.5,1.5
				S14.901,58,14.073,58z"/>
		</g>
	</g>
	<g>
	</g>
	<g>
	</g>
	<g>
	</g>
	<g>
	</g>
	<g>
	</g>
	<g>
	</g>
	<g>
	</g>
	<g>
	</g>
	<g>
	</g>
	<g>
	</g>
	<g>
	</g>
	<g>
	</g>
	<g>
	</g>
	<g>
	</g>
	<g>
	</g>
</g>
<g>
</g>
<g>
</g>
<g>
</g>
<g>
</g>
<g>
</g>
<g>
</g>
<g>
</g>
<g>
</g>
<g>
</g>
<g>
</g>
<g>
</g>
<g>
</g>
<g>
</g>
<g>
</g>
<g>
</g>
</svg>
