<?xml version="1.0" encoding="UTF-8" standalone="no"?>
<!DOCTYPE svg PUBLIC "-//W3C//DTD SVG 1.1//EN" "http://www.w3.org/Graphics/SVG/1.1/DTD/svg11.dtd">
<svg width="100%" height="100%" viewBox="0 0 10 16" version="1.1" xmlns="http://www.w3.org/2000/svg" xmlns:xlink="http://www.w3.org/1999/xlink" xml:space="preserve" xmlns:serif="http://www.serif.com/" style="fill-rule:evenodd;clip-rule:evenodd;stroke-linejoin:round;stroke-miterlimit:1.41421;">
    <g transform="matrix(1,0,0,1,-311.05,-165)">
        <g transform="matrix(0.1,0,0,0.1,279.945,153.5)">
            <path d="M320.535,195C320.521,181.653 320.504,168.679 320.548,154.742C320.742,134.39 337.936,115.492 359.777,115.007C360.12,115.002 360.462,115 360.805,115.001C381.339,115.196 400.339,132.901 400.547,154.743L400.578,164.969L380.578,165.031C380.554,156.987 380.977,148.781 376.432,142.853C371.148,135.964 361.085,133.168 352.997,136.475C345.692,139.462 340.574,146.999 340.548,155.016L340.548,195L410.045,195L410.045,275L311.05,275L311.05,195L320.535,195ZM390.548,215L330.548,215L330.548,255L390.548,255L390.548,215Z" style="fill:rgb(18,18,18);fill-rule:nonzero;"/>
        </g>
    </g>
</svg>
