# This file uses centimeters as units for non-parametric coordinates.

v -0.044806 -0.043802 0.000033
v 0.044806 -0.043802 0.000033
v -0.044806 0.045811 0.000033
v 0.044806 0.045811 0.000033
v -0.044806 0.045811 -0.074644
v 0.044806 0.045811 -0.074644
v -0.044806 -0.043802 -0.074644
v 0.044806 -0.043802 -0.074644
v -0.060000 0.104891 -0.180009
v 0.060000 0.104891 -0.180009
v 0.060000 -0.064691 -0.180009
v -0.060000 -0.064691 -0.180009
v -0.060000 0.098701 -0.315685
v 0.060000 0.098701 -0.315685
v 0.060000 -0.065402 -0.315685
v -0.060000 -0.065402 -0.315685
v -0.052228 0.050949 -0.370796
v 0.052228 0.050949 -0.370796
v 0.052228 -0.057345 -0.370796
v -0.052228 -0.057345 -0.370796
vt 0.375000 0.000000
vt 0.625000 0.000000
vt 0.375000 0.250000
vt 0.625000 0.250000
vt 0.375000 0.500000
vt 0.625000 0.500000
vt 0.375000 0.750000
vt 0.625000 0.750000
vt 0.375000 1.000000
vt 0.625000 1.000000
vt 0.875000 0.000000
vt 0.875000 0.250000
vt 0.125000 0.000000
vt 0.125000 0.250000
vt 0.375000 0.500000
vt 0.625000 0.500000
vt 0.625000 0.750000
vt 0.375000 0.750000
vt 0.375000 0.500000
vt 0.625000 0.500000
vt 0.625000 0.750000
vt 0.375000 0.750000
vt 0.375000 0.500000
vt 0.625000 0.500000
vt 0.625000 0.750000
vt 0.375000 0.750000
vn 0.000000 0.000000 1.000000
vn 0.000000 0.000000 1.000000
vn 0.000000 0.000000 1.000000
vn 0.000000 0.000000 1.000000
vn 0.000000 1.000000 0.000000
vn 0.000000 1.000000 0.000000
vn 0.000000 0.985062 0.172200
vn 0.000000 0.940493 0.339813
vn 0.000000 0.000000 -1.000000
vn 0.000000 0.000000 -1.000000
vn 0.000000 0.000000 -1.000000
vn 0.000000 0.000000 -1.000000
vn 0.000000 -0.991454 0.130455
vn 0.000000 -0.997862 0.065355
vn 0.000000 -1.000000 0.000000
vn 0.000000 -1.000000 0.000000
vn 1.000000 0.000000 0.000000
vn 0.998858 0.000000 0.047783
vn 1.000000 0.000000 0.000000
vn 0.995433 0.000000 0.095466
vn -0.997429 0.000000 0.071658
vn -1.000000 0.000000 0.000000
vn -0.997429 0.000000 0.071658
vn -1.000000 0.000000 0.000000
vn 0.000000 0.872239 0.489081
vn 0.000000 0.872239 0.489081
vn 0.997429 0.000000 0.071658
vn 0.997429 0.000000 0.071658
vn 0.000000 -0.980907 0.194475
vn 0.000000 -0.980907 0.194475
vn -0.997429 0.000000 0.071658
vn -0.997429 0.000000 0.071658
vn 0.000000 0.998961 -0.045576
vn 0.000000 0.998961 -0.045576
vn 0.000000 0.962333 -0.271873
vn 0.000000 0.874924 -0.484260
vn 0.998907 0.000000 -0.046743
vn 0.995629 0.000000 -0.093393
vn 0.000000 -0.999986 0.005240
vn 0.000000 -0.999986 0.005240
vn 0.000000 -0.998989 -0.044950
vn 0.000000 -0.995473 -0.095046
vn -0.998907 0.000000 -0.046743
vn -0.995629 0.000000 -0.093393
vn 0.000000 0.755762 -0.654846
vn 0.000000 0.755762 -0.654846
vn 0.990202 0.000000 -0.139645
vn 0.990202 0.000000 -0.139645
vn 0.000000 -0.989480 -0.144671
vn 0.000000 -0.989480 -0.144671
vn -0.990202 0.000000 -0.139646
vn -0.990202 0.000000 -0.139646
f 1/1/1 2/2/2 3/3/3
f 3/3/3 2/2/2 4/4/4
f 3/3/5 4/4/6 5/5/7
f 5/5/7 4/4/6 6/6/8
f 17/23/9 18/24/10 20/26/11
f 20/26/11 18/24/10 19/25/12
f 7/7/13 8/8/14 1/9/15
f 1/9/15 8/8/14 2/10/16
f 2/2/17 8/11/18 4/4/19
f 4/4/19 8/11/18 6/12/20
f 7/13/21 1/1/22 5/14/23
f 5/14/23 1/1/22 3/3/24
f 5/5/7 6/6/8 9/15/25
f 9/15/25 6/6/8 10/16/26
f 8/8/18 11/17/27 6/6/20
f 6/6/20 11/17/27 10/16/28
f 8/8/14 7/7/13 11/17/29
f 11/17/29 7/7/13 12/18/30
f 7/7/21 5/5/23 12/18/31
f 12/18/31 5/5/23 9/15/32
f 9/15/33 10/16/34 13/19/35
f 13/19/35 10/16/34 14/20/36
f 10/16/28 11/17/27 14/20/37
f 14/20/37 11/17/27 15/21/38
f 11/17/39 12/18/40 15/21/41
f 15/21/41 12/18/40 16/22/42
f 9/15/32 13/19/43 12/18/31
f 12/18/31 13/19/43 16/22/44
f 13/19/35 14/20/36 17/23/45
f 17/23/45 14/20/36 18/24/46
f 14/20/37 15/21/38 18/24/47
f 18/24/47 15/21/38 19/25/48
f 15/21/41 16/22/42 19/25/49
f 19/25/49 16/22/42 20/26/50
f 13/19/43 17/23/51 16/22/44
f 16/22/44 17/23/51 20/26/52
