<?xml version="1.0" encoding="UTF-8" standalone="no"?>
<!DOCTYPE svg PUBLIC "-//W3C//DTD SVG 1.1//EN" "http://www.w3.org/Graphics/SVG/1.1/DTD/svg11.dtd">
<svg width="100%" height="100%" viewBox="0 0 38 32" version="1.1" xmlns="http://www.w3.org/2000/svg" xmlns:xlink="http://www.w3.org/1999/xlink" xml:space="preserve" xmlns:serif="http://www.serif.com/" style="fill-rule:evenodd;clip-rule:evenodd;stroke-linejoin:round;stroke-miterlimit:1.41421;">
    <g transform="matrix(1,0,0,1,-1079.15,-68.1337)">
        <g transform="matrix(0.998804,0,0,0.998804,1.60007,0.338661)">
            <g transform="matrix(1.0012,0,0,1.0012,-1.71455,-1.04488)">
                <path d="M1092.18,92.947C1088.76,92.946 1085.34,92.938 1081.92,92.924C1080.39,92.905 1079.06,91.399 1079.29,89.849C1079.34,89.513 1079.45,89.188 1079.62,88.893C1083.3,82.626 1087,76.373 1090.72,70.136C1091.2,69.356 1092.08,68.85 1093,68.839C1093.02,68.839 1093.02,68.839 1093.05,68.839C1093.96,68.85 1094.84,69.35 1095.32,70.136C1097.07,73.059 1098.81,75.985 1100.54,78.914L1099.4,80.826C1097.5,77.583 1095.59,74.352 1093.6,71.158C1093.48,70.96 1093.25,70.835 1093.02,70.836C1092.78,70.839 1092.56,70.968 1092.44,71.168C1088.71,77.399 1084.91,83.584 1081.35,89.906C1081.12,90.318 1081.44,90.92 1081.94,90.926C1085.74,90.942 1089.54,90.983 1093.35,90.997L1092.18,92.947Z" style="fill:rgb(217,217,217);fill-rule:nonzero;"/>
            </g>
            <g transform="matrix(0.292793,0,0,0.292793,1088.2,71.5387)">
                <path d="M50.076,13.241C53.198,13.28 56.221,14.988 57.858,17.678C70.599,39.005 83.254,60.384 95.817,81.817C98.42,86.344 96.311,92.891 91.352,94.918C90.278,95.357 89.122,95.585 87.958,95.6C62.653,95.706 37.347,95.706 12.042,95.6C6.773,95.533 2.184,90.299 3.064,84.937C3.244,83.841 3.628,82.782 4.183,81.817C16.746,60.384 29.401,39.005 42.142,17.678C43.765,15.011 46.775,13.28 49.924,13.241C50,13.241 50,13.241 50.076,13.241ZM49.98,20.072C49.18,20.082 48.408,20.521 47.991,21.206C35.264,42.512 22.261,63.662 10.071,85.281C9.297,86.681 10.375,88.747 12.099,88.769C37.379,88.875 62.666,89.297 87.94,88.768C89.537,88.722 90.741,86.748 89.929,85.281C77.733,63.652 65.078,42.274 51.988,21.173C51.562,20.497 50.773,20.068 49.98,20.072Z" style="fill:rgb(253,186,5);fill-rule:nonzero;"/>
            </g>
        </g>
    </g>
</svg>
