<?xml version="1.0" encoding="UTF-8" standalone="no"?>
<!DOCTYPE svg PUBLIC "-//W3C//DTD SVG 1.1//EN" "http://www.w3.org/Graphics/SVG/1.1/DTD/svg11.dtd">
<svg width="100%" height="100%" viewBox="0 0 34 36" version="1.1" xmlns="http://www.w3.org/2000/svg" xmlns:xlink="http://www.w3.org/1999/xlink" xml:space="preserve" xmlns:serif="http://www.serif.com/" style="fill-rule:evenodd;clip-rule:evenodd;stroke-linejoin:round;stroke-miterlimit:1.41421;">
    <g transform="matrix(1,0,0,1,-265.271,-119.336)">
        <g transform="matrix(1,0,0,1,0,3.29508)">
            <g transform="matrix(0.999416,0,0,0.999416,258.235,109.413)">
                <path d="M26.265,6.637L26.6,6.701L32.556,8.37C32.683,8.42 32.816,8.458 32.937,8.521C33.263,8.69 33.314,8.78 33.569,9.036L38.456,15.054C38.623,15.294 38.623,15.294 38.753,15.556L40.724,20.358C40.837,20.732 40.837,20.733 40.874,21.122L40.853,30.161C40.823,30.507 40.76,30.85 40.59,31.148C40.533,31.248 40.459,31.337 40.394,31.431L34.835,38.15C34.584,38.403 34.583,38.404 34.292,38.608L30.091,41.028C29.698,41.202 29.696,41.202 29.275,41.287L22.121,41.941C21.737,41.939 21.736,41.939 21.36,41.863L15.414,40.065C15.294,40.016 15.169,39.978 15.055,39.917C14.748,39.754 14.699,39.671 14.455,39.43L9.476,33.443C9.298,33.193 9.298,33.192 9.16,32.917L7.187,28.058C7.078,27.69 7.078,27.688 7.041,27.306L7.041,18.34C7.071,17.992 7.133,17.647 7.304,17.347C7.362,17.247 7.436,17.157 7.502,17.063L13.134,10.277C13.398,10.014 13.399,10.013 13.707,9.803L18.153,7.35C18.553,7.182 18.555,7.182 18.983,7.105L25.924,6.631C26.038,6.633 26.152,6.635 26.265,6.637Z" style="fill:rgb(23,23,23);fill-rule:nonzero;"/>
                <path d="M26.163,7.632L26.33,7.664L32.286,9.333C32.564,9.46 32.566,9.461 32.793,9.666L37.679,15.685L37.828,15.935L39.799,20.738C39.855,20.925 39.856,20.925 39.874,21.12L39.853,30.158C39.83,30.359 39.84,30.417 39.749,30.602C39.715,30.67 39.665,30.73 39.624,30.794L34.064,37.513C33.939,37.639 33.939,37.64 33.793,37.742L29.592,40.162C29.395,40.249 29.394,40.249 29.184,40.291L22.03,40.945C21.838,40.944 21.837,40.944 21.649,40.906L15.703,39.108C15.441,38.985 15.44,38.983 15.224,38.79L10.245,32.804L10.087,32.541L8.114,27.682C8.059,27.498 8.059,27.497 8.041,27.306L8.041,18.34C8.049,18.264 8.049,18.186 8.067,18.111C8.114,17.909 8.16,17.871 8.271,17.701L13.904,10.916C14.035,10.784 14.036,10.784 14.19,10.679L18.636,8.225C18.836,8.142 18.837,8.141 19.051,8.103L25.992,7.629C26.049,7.63 26.106,7.631 26.163,7.632Z" style="fill:rgb(68,182,255);fill-rule:nonzero;"/>
                <path d="M14.673,11.554L19.119,9.101L26.061,8.627L32.016,10.296L36.903,16.315L38.874,21.117L38.853,30.156L33.294,36.875L29.093,39.295L21.939,39.949L15.993,38.151L11.014,32.164L9.041,27.306L9.041,18.34L14.673,11.554Z" style="fill:rgb(81,81,81);"/>
                <g transform="matrix(0.100058,0,0,0.100058,-4.23832,15.9128)">
                    <path d="M278.37,-66.097C278.553,-66.277 278.779,-66.487 279.076,-66.761L302.214,-81.764L304.025,-82.485C304.675,-82.476 305.325,-82.467 305.975,-82.458L307.766,-81.688L309.125,-80.29L309.847,-78.479L309.82,-76.529L309.049,-74.738L307.651,-73.378L297.495,-66.793L362.564,-64.041C365.538,-63.738 365.958,-63.325 367.061,-60.723L378.526,-28.479L435.822,45.355L436.609,45.404C438.456,46.307 440.025,47.645 440.284,49.566C440.371,50.21 440.204,50.863 440.164,51.512L439.307,53.263L437.846,54.554L367.949,95.238L368.904,173.43L432.86,137.024L434.71,136.409C435.359,136.455 436.007,136.502 436.655,136.548C438.163,137.303 438.789,137.339 439.675,138.895C439.997,139.46 440.085,140.128 440.291,140.745L440.151,142.69C439.284,144.421 439.268,144.442 437.804,145.71L368.28,185.285L334.681,241.006C333.376,242.438 333.355,242.453 331.603,243.276L329.655,243.367C329.044,243.146 328.377,243.041 327.821,242.705C326.287,241.78 326.268,241.154 325.551,239.627L325.46,237.679L326.122,235.845L354.885,188.144L253.219,196.128C258.785,212.513 262.747,226.824 267.137,242.244L267.294,244.187C266.701,246.03 266.688,246.053 265.434,247.529L263.699,248.418C261.768,248.575 261.743,248.572 259.9,247.978L258.414,246.715L257.524,244.98L243.451,195.548L146.03,165.78C144.323,164.863 144.303,164.847 143.078,163.348L142.516,161.481C142.581,160.834 142.521,160.162 142.711,159.541C143.234,157.828 143.837,157.657 145.143,156.589L146.462,156.192L147.652,73.991L125.661,21.99L125.267,20.08C125.389,19.442 125.389,18.767 125.633,18.165C126.306,16.506 126.922,16.388 128.317,15.441L130.227,15.046C130.865,15.168 131.504,15.29 132.142,15.413L133.771,16.484L134.866,18.097L153.194,61.435L196.955,-12.911L183.443,-45.268C182.431,-48.175 184.13,-51.458 187.312,-52.136L251.634,-61.802C245.295,-63.322 238.269,-64.955 230.368,-66.749C230.368,-66.749 227.183,-67.873 226.595,-70.549C225.922,-73.605 228.535,-76.715 231.962,-76.596L232.582,-76.495L278.37,-66.097ZM358.36,97.617L252.481,104.913C252.696,134.751 252.845,156.901 252.068,186.193L358.969,177.799C358.657,143.3 360.032,119.622 358.36,97.617ZM156.424,158.506L242.542,184.82L242.87,104.087L157.576,78.93L156.424,158.506ZM328.033,4.032L264.892,8.329C260.828,39.015 256.335,66.926 253.45,94.828L357.371,87.667C350.595,66.745 342.337,44.491 328.033,4.032ZM160.175,69.276L243.67,93.903L255.001,6.917L205.294,-7.374L160.175,69.276ZM337.081,1.662L365.838,84.902L426.473,49.61L373.039,-19.248L337.081,1.662ZM283.417,-51.314L267.476,-1.864L322.662,-5.62C309.399,-22.348 296.822,-36.299 283.417,-51.314ZM215.27,-14.905L257.286,-2.826L272.615,-50.379L215.27,-14.905ZM298.212,-48.922L332.739,-7.375L362.746,-24.823C331.38,-36.554 315.552,-43.152 298.212,-48.922ZM195.136,-43.205L204.76,-20.156L257.064,-52.511L195.136,-43.205ZM306.117,-56.425L365.842,-34.318L358.774,-54.198L306.117,-56.425Z" style="fill:rgb(68,182,255);fill-rule:nonzero;"/>
                </g>
            </g>
        </g>
    </g>
</svg>
