<svg height="512pt" viewBox="0 0 512 512" width="512pt" xmlns="http://www.w3.org/2000/svg"><path d="m472 50c0 5.523438-4.476562 10-10 10s-10-4.476562-10-10 4.476562-10 10-10 10 4.476562 10 10zm0 0"/><path d="m472 462c0 5.523438-4.476562 10-10 10s-10-4.476562-10-10 4.476562-10 10-10 10 4.476562 10 10zm0 0"/><path d="m256 66c5.441406 0 9.859375-4.339844 10-9.75 0-.078125 0-.171875 0-.25 0-5.519531-4.480469-10-10-10s-10 4.480469-10 10v.25c.140625 5.410156 4.558594 9.75 10 9.75zm0 0"/><path d="m60 50c0 5.523438-4.476562 10-10 10s-10-4.476562-10-10 4.476562-10 10-10 10 4.476562 10 10zm0 0"/><path d="m60 462c0 5.523438-4.476562 10-10 10s-10-4.476562-10-10 4.476562-10 10-10 10 4.476562 10 10zm0 0"/><path d="m482 0h-452c-16.542969 0-30 13.457031-30 30v452c0 16.542969 13.457031 30 30 30h452c16.542969 0 30-13.457031 30-30v-452c0-16.542969-13.457031-30-30-30zm10 482c0 5.515625-4.484375 10-10 10h-452c-5.515625 0-10-4.484375-10-10v-452c0-5.515625 4.484375-10 10-10h452c5.515625 0 10 4.484375 10 10zm0 0"/><path d="m306 136c0-27.570312-22.429688-50-50-50s-50 22.429688-50 50c0 14.425781 4.164062 17.996094 24.238281 77.144531-7.027343 4.210938-12.882812 10.066407-17.09375 17.09375-57.835937-19.628906-62.660156-24.238281-77.144531-24.238281-27.570312 0-50 22.429688-50 50s22.429688 50 50 50c14.425781 0 17.996094-4.164062 77.144531-24.238281 4.210938 7.027343 10.066407 12.882812 17.09375 17.09375-19.628906 57.835937-24.238281 62.660156-24.238281 77.144531 0 27.570312 22.429688 50 50 50s50-22.429688 50-50c0-14.425781-4.164062-17.996094-24.238281-77.144531 7.027343-4.210938 12.882812-10.066407 17.09375-17.09375 57.835937 19.628906 62.660156 24.238281 77.144531 24.238281 27.570312 0 50-22.429688 50-50s-22.429688-50-50-50c-14.425781 0-17.996094 4.164062-77.148438 24.238281-4.210937-7.027343-10.0625-12.882812-17.089843-17.09375 19.628906-57.835937 24.238281-62.660156 24.238281-77.144531zm-20 120c0 16.953125-14.066406 30.53125-31 29.976562-16.238281-.53125-29-13.917968-29-29.976562 0-16.640625 13.550781-30 30-30 16.574219 0 30 13.464844 30 30zm-150 30c-16.542969 0-30-13.457031-30-30s13.457031-30 30-30c8.976562 0 9.015625 1.917969 70.480469 23.09375-.316407 2.277344-.480469 4.582031-.480469 6.90625s.164062 4.628906.480469 6.90625c-61.558594 21.207031-61.507813 23.09375-70.480469 23.09375zm150 90c0 16.542969-13.457031 30-30 30s-30-13.457031-30-30c0-8.976562 1.917969-9.015625 23.09375-70.480469 2.277344.3125 4.582031.480469 6.90625.480469s4.628906-.167969 6.90625-.480469c21.207031 61.558594 23.09375 61.507813 23.09375 70.480469zm90-150c16.542969 0 30 13.457031 30 30s-13.457031 30-30 30c-8.976562 0-9.015625-1.917969-70.480469-23.09375.3125-2.277344.480469-4.582031.480469-6.90625s-.167969-4.628906-.480469-6.90625c61.558594-21.207031 61.507813-23.09375 70.480469-23.09375zm-113.09375-19.519531c-2.277344-.3125-4.582031-.480469-6.90625-.480469s-4.628906.167969-6.90625.480469c-21.207031-61.558594-23.09375-61.507813-23.09375-70.480469 0-16.542969 13.457031-30 30-30s30 13.457031 30 30c0 8.976562-1.917969 9.015625-23.09375 70.480469zm0 0"/><path d="m297.90625 50.183594c-5.40625-1.160156-10.71875 2.28125-11.875 7.679687-1.15625 5.402344 2.28125 10.71875 7.683594 11.875 89.664062 19.214844 152.285156 95.808594 152.285156 186.261719 0 104.765625-85.234375 190-190 190s-190-85.234375-190-190c0-90.453125 62.621094-167.046875 152.285156-186.261719 5.398438-1.15625 8.839844-6.472656 7.683594-11.875-1.15625-5.398437-6.476562-8.839843-11.875-7.683593-97.800781 20.960937-168.09375 103.828124-168.09375 205.820312 0 115.792969 94.207031 210 210 210s210-94.207031 210-210c0-103.097656-71.425781-185.101562-168.09375-205.816406zm0 0"/></svg>