<?xml version="1.0" encoding="UTF-8" standalone="no"?>
<!DOCTYPE svg PUBLIC "-//W3C//DTD SVG 1.1//EN" "http://www.w3.org/Graphics/SVG/1.1/DTD/svg11.dtd">
<svg width="100%" height="100%" viewBox="0 0 508 508" version="1.1" xmlns="http://www.w3.org/2000/svg" xmlns:xlink="http://www.w3.org/1999/xlink" xml:space="preserve" xmlns:serif="http://www.serif.com/" style="fill-rule:evenodd;clip-rule:evenodd;stroke-linejoin:round;stroke-miterlimit:2;">
    <g>
        <path d="M389.6,462L283.6,123.2C279.6,130.4 273.2,136 265.6,138.8L378.8,500C383.6,495.6 395.6,482.8 389.6,462Z" style="fill:rgb(255,152,22);fill-rule:nonzero;"/>
        <path d="M223.6,122.8L117.6,462C111.2,482.8 123.2,495.6 128.4,500L241.6,138.8C234,135.6 227.6,130 223.6,122.8Z" style="fill:rgb(255,162,0);fill-rule:nonzero;"/>
    </g>
    <path d="M244.8,135.6C247.6,136.4 250.8,136.8 253.6,136.8C260.4,136.8 266.8,134.4 271.6,130.4L275.2,127.2C280,122 283.2,114.8 283.2,107.2C283.2,90.8 270,77.6 253.6,77.6C237.2,77.6 224,90.8 224,107.2C224,114.4 226.8,121.2 231.2,126.4L236,130.8C238.4,132.8 241.6,134.4 244.8,135.6ZM254,89.6C264,89.6 271.6,97.6 271.6,107.2C271.6,117.2 263.6,124.8 254,124.8C252,124.8 250.4,124.4 248.8,124C241.2,121.6 236.4,114.8 236.4,107.2C236,97.6 244,89.6 254,89.6Z" style="fill:rgb(213,152,39);fill-rule:nonzero;"/>
    <g>
        <path d="M275.6,127.2L272,130.4C273.2,129.6 274.4,128.4 275.6,127.2Z" style="fill:rgb(204,204,204);fill-rule:nonzero;"/>
        <path d="M236,130.8L231.2,126.4C232.8,128 234.4,129.6 236,130.8Z" style="fill:rgb(204,204,204);fill-rule:nonzero;"/>
    </g>
    <path d="M261.6,15.2C261.6,9.6 257.2,5.2 251.6,5.2C246,5.6 241.6,10 241.6,15.2L241.6,74L246.4,74C248.8,74 251.2,73.2 253.6,73.2C256,73.2 258.4,74 260.8,74L261.6,74L261.6,15.2Z" style="fill:rgb(254,174,13);fill-rule:nonzero;"/>
    <path d="M246.4,74L261.2,74C258.8,74 256.4,73.2 254,73.2C251.6,73.2 248.8,74 246.4,74Z" style="fill:rgb(204,204,204);fill-rule:nonzero;"/>
    <path d="M254.8,278L252.8,278C250.4,278 246,279.2 246,281.2L246,333.6C246,335.6 250.4,338 252.8,338L254.8,338C257.2,338 257.6,335.6 257.6,333.6L257.6,281.2C257.6,279.2 257.2,278 254.8,278Z" style="fill:rgb(210,165,51);fill-rule:nonzero;"/>
    <path d="M377.6,507.6C377.2,507.6 376.8,507.6 376.4,507.2C375.2,506.8 374.4,506 374,504.8L259.6,140C258.8,138 260,135.6 262.4,134.8C264.4,134 266.8,135.2 267.6,137.6L380,496.4C385.2,490.8 393.2,479.6 388,462.4L280.8,120C280,118 281.2,115.6 283.6,114.8C285.6,114 288,115.2 288.8,117.6L396,460C404.8,489.6 380.8,506.4 380.4,506.4C379.2,507.2 378.4,507.6 377.6,507.6Z" style="fill:rgb(231,231,231);fill-rule:nonzero;stroke:rgb(231,231,231);stroke-width:1px;"/>
    <path d="M129.6,507.6C128.8,507.6 128,507.2 127.2,506.8C126.8,506.8 102.8,490 111.6,460.4L218.8,117.6C219.6,115.6 221.6,114.4 224,114.8C226,115.6 227.2,117.6 226.8,120L119.6,462.8C114.8,479.6 122.4,491.2 127.6,496.4L240,137.6C240.8,135.6 242.8,134.4 245.2,134.8C247.2,135.6 248.4,137.6 248,140L133.6,504.8C133.2,506 132.4,506.8 131.2,507.2C130.4,507.6 130,507.6 129.6,507.6Z" style="fill:rgb(231,231,231);fill-rule:nonzero;stroke:rgb(231,231,231);stroke-width:1px;"/>
    <path d="M254.4,143.2C250.4,143.2 246.8,142.4 243.6,141.6C228.4,137.2 218.4,123.2 218.4,107.2C218.4,87.2 234,71.6 254,71.6C273.6,71.6 289.6,87.2 290,107.6C290,127.6 274.4,143.2 254.4,143.2ZM254,79.6C238.4,79.6 226.4,91.6 226.4,107.2C226.4,119.6 234.4,130.4 246,133.6C248.4,134.4 251.2,135.2 254.4,135.2C270,135.2 282,123.2 282,107.6C281.6,92 269.2,79.6 254,79.6ZM254,127.2C252,127.2 250,126.8 248.4,126.4C240,123.6 234,116 234,107.2C234,96.4 242.8,87.6 253.6,87.6C264.4,87.6 273.2,96.4 273.2,107.2C273.6,112.4 271.6,117.2 268,121.2C264.4,125.2 259.2,127.2 254,127.2ZM253.6,95.6C247.2,95.6 242,100.8 242,107.2C242,112.4 245.6,117.2 250.4,118.4C251.6,118.8 252.8,119.2 254,119.2C256.8,119.2 260,118 262,115.6C264,113.2 265.2,110.4 265.2,107.2C265.2,100.8 260,95.6 253.6,95.6Z" style="fill:rgb(231,231,231);fill-rule:nonzero;stroke:rgb(231,231,231);stroke-width:1px;"/>
    <path d="M263.2,78C260.8,78 259.2,76.4 259.2,74L259.2,15.2C259.2,12 258.4,8 253.6,8C249.2,8 243.6,11.2 243.6,15.2L243.6,74C243.6,76.4 242,78 239.6,78C237.2,78 235.6,76.4 235.6,74L235.6,15.2C235.6,6.4 245.2,0 253.6,0C261.6,0 267.2,6 267.2,15.2L267.2,74C267.2,76.4 265.6,78 263.2,78Z" style="fill:rgb(231,231,231);fill-rule:nonzero;stroke:rgb(231,231,231);stroke-width:1px;"/>
    <path d="M241.6,312L217.6,312C215.2,312 213.6,310.4 213.6,308C213.6,305.6 215.2,304 217.6,304L241.6,304C244,304 245.6,305.6 245.6,308C245.6,310.4 244,312 241.6,312Z" style="fill:rgb(231,231,231);fill-rule:nonzero;stroke:rgb(231,231,231);stroke-width:1px;"/>
    <path d="M161.6,312L141.6,312C139.2,312 137.6,310.4 137.6,308C137.6,305.6 139.2,304 141.6,304L161.6,304C164,304 165.6,305.6 165.6,308C165.6,310.4 164,312 161.6,312Z" style="fill:rgb(231,231,231);fill-rule:nonzero;stroke:rgb(231,231,231);stroke-width:1px;"/>
    <path d="M365.6,312L357.6,312C355.2,312 353.6,310.4 353.6,308C353.6,305.6 355.2,304 357.6,304L365.6,304C368,304 369.6,305.6 369.6,308C369.6,310.4 368,312 365.6,312Z" style="fill:rgb(231,231,231);fill-rule:nonzero;stroke:rgb(231,231,231);stroke-width:1px;"/>
    <path d="M309.6,312L261.6,312C259.2,312 257.6,310.4 257.6,308C257.6,305.6 259.2,304 261.6,304L309.6,304C312,304 313.6,305.6 313.6,308C313.6,310.4 312,312 309.6,312Z" style="fill:rgb(231,231,231);fill-rule:nonzero;stroke:rgb(231,231,231);stroke-width:1px;"/>
    <path d="M254.4,344L252,344C246,344 239.6,340.4 239.6,334.8L239.6,282.4C239.6,276.8 246.4,272 252,272L254.4,272C259.6,272 263.6,276.4 263.6,282.4L263.6,334.8C263.6,340.4 260,344 254.4,344ZM252,280C250,280 248,281.6 247.6,282.4L247.6,334.8C248,334.8 250,336 252,336L255.6,336L255.6,282.4C255.6,282 255.6,280 254.4,280L252,280Z" style="fill:rgb(231,231,231);fill-rule:nonzero;stroke:rgb(231,231,231);stroke-width:1px;"/>
    <path d="M139.6,318C137.2,318 135.6,316.4 135.6,314L135.6,298C135.6,295.6 137.2,294 139.6,294C142,294 143.6,295.6 143.6,298L143.6,314C143.6,316.4 142,318 139.6,318Z" style="fill:rgb(231,231,231);fill-rule:nonzero;stroke:rgb(231,231,231);stroke-width:1px;"/>
    <path d="M363.6,318C361.2,318 359.6,316.4 359.6,314L359.6,298C359.6,295.6 361.2,294 363.6,294C366,294 367.6,295.6 367.6,298L367.6,314C367.6,316.4 366,318 363.6,318Z" style="fill:rgb(231,231,231);fill-rule:nonzero;stroke:rgb(231,231,231);stroke-width:1px;"/>
</svg>
