<?xml version="1.0" encoding="UTF-8" standalone="no"?>
<!DOCTYPE svg PUBLIC "-//W3C//DTD SVG 1.1//EN" "http://www.w3.org/Graphics/SVG/1.1/DTD/svg11.dtd">
<svg width="100%" height="100%" viewBox="0 0 512 512" version="1.1" xmlns="http://www.w3.org/2000/svg" xmlns:xlink="http://www.w3.org/1999/xlink" xml:space="preserve" xmlns:serif="http://www.serif.com/" style="fill-rule:evenodd;clip-rule:evenodd;stroke-linejoin:round;stroke-miterlimit:2;">
    <path d="M220.587,181.589C202.752,157.354 174.507,145.066 136.534,145.066C64.257,145.066 36.694,162.303 17.067,190.378L17.067,366.933L230.4,366.933L230.4,324.437C230.4,324.01 230.4,323.498 230.485,322.986C230.57,322.474 230.656,322.047 230.826,321.535C248.064,266.069 244.224,213.675 220.587,181.589ZM128,324.267C90.368,324.267 59.733,293.632 59.733,256C59.733,218.368 90.368,187.733 128,187.733C165.632,187.733 196.267,218.368 196.267,256C196.267,293.632 165.632,324.267 128,324.267Z" style="fill:rgb(255,137,7);fill-rule:nonzero;"/>
    <path d="M128,187.733C90.368,187.733 59.733,218.368 59.733,256C59.733,293.632 90.368,324.267 128,324.267C165.632,324.267 196.267,293.632 196.267,256C196.267,218.368 165.632,187.733 128,187.733ZM128,307.2C99.755,307.2 76.8,284.245 76.8,256C76.8,227.755 99.755,204.8 128,204.8C156.245,204.8 179.2,227.755 179.2,256C179.2,284.245 156.245,307.2 128,307.2Z" style="fill:rgb(145,145,145);fill-rule:nonzero;"/>
    <path d="M503.467,315.733L250.795,315.733L254.635,304.128C254.635,304.128 263.68,299.179 286.72,283.904C288.853,282.453 290.133,280.064 290.133,277.589L290.133,242.346C290.133,240.042 289.109,237.909 287.317,236.458C276.821,227.925 254.208,216.063 254.208,216.063C250.197,199.167 243.627,184.063 234.325,171.434C213.419,143.019 179.627,128 136.533,128C55.125,128 23.637,150.016 1.45,183.04C0.512,184.405 0,186.027 0,187.733L0,375.466C0,380.16 3.84,384 8.533,384L238.933,384C243.626,384 247.466,380.16 247.466,375.467L247.466,366.934L494.933,366.934L494.933,375.467C494.933,380.16 498.773,384 503.466,384C508.159,384 511.999,380.16 511.999,375.467L511.999,324.267C512,319.573 508.16,315.733 503.467,315.733ZM257.792,239.019L273.067,247.467L273.067,273.067L256.854,282.198C258.731,267.179 258.987,252.672 257.792,239.019ZM230.827,321.536C230.656,322.048 230.571,322.475 230.486,322.987C230.401,323.499 230.401,324.011 230.401,324.438L230.401,366.934L17.067,366.934L17.067,190.379C36.694,162.304 64.256,145.067 136.534,145.067C174.507,145.067 202.753,157.355 220.587,181.59C244.224,213.675 248.064,266.069 230.827,321.536ZM494.934,349.867L247.467,349.867L247.467,332.8L494.934,332.8L494.934,349.867Z" style="fill:rgb(132,132,132);fill-rule:nonzero;stroke:rgb(175,175,175);stroke-opacity:0;stroke-width:1px;"/>
    <path d="M220.587,181.589C215.663,174.899 209.869,169.216 203.384,164.352C203.427,164.412 203.478,164.463 203.521,164.523C227.158,196.608 230.998,249.003 213.761,304.47C213.59,304.982 213.505,305.409 213.42,305.921C213.335,306.433 213.335,306.945 213.335,307.372L213.335,349.868L17.067,349.868L17.067,366.935L230.4,366.935L230.4,324.439C230.4,324.012 230.4,323.5 230.485,322.988C230.57,322.476 230.656,322.049 230.826,321.537C248.064,266.069 244.224,213.675 220.587,181.589Z" style="fill:rgb(249,138,37);fill-rule:nonzero;"/>
</svg>
