<?xml version="1.0" encoding="UTF-8" standalone="no"?>
<!DOCTYPE svg PUBLIC "-//W3C//DTD SVG 1.1//EN" "http://www.w3.org/Graphics/SVG/1.1/DTD/svg11.dtd">
<svg width="100%" height="100%" viewBox="0 0 512 512" version="1.1" xmlns="http://www.w3.org/2000/svg" xmlns:xlink="http://www.w3.org/1999/xlink" xml:space="preserve" xmlns:serif="http://www.serif.com/" style="fill-rule:evenodd;clip-rule:evenodd;stroke-linejoin:round;stroke-miterlimit:2;">
    <g>
        <g transform="matrix(1.29799,0,0,1.30747,-77.3778,-80.1715)">
            <path d="M308.688,155.312C311.816,158.44 315.904,160 320,160C324.096,160 328.184,158.44 331.312,155.312C337.56,149.064 337.56,138.936 331.312,132.688L267.312,68.688C261.064,62.44 250.936,62.44 244.688,68.688L180.688,132.688C174.44,138.936 174.44,149.064 180.688,155.312C186.936,161.56 197.064,161.56 203.312,155.312L240,118.624L240,208C240,216.832 247.168,224 256,224C264.832,224 272,216.832 272,208L272,118.624L308.688,155.312Z" style="fill:rgb(89,89,89);fill-rule:nonzero;"/>
        </g>
        <g transform="matrix(1.29799,0,0,1.30747,-77.3778,-80.1715)">
            <path d="M379.312,180.688C373.064,174.44 362.936,174.44 356.688,180.688C350.44,186.936 350.44,197.064 356.688,203.312L393.376,240L304,240C295.168,240 288,247.168 288,256C288,264.832 295.168,272 304,272L393.376,272L356.688,308.688C350.44,314.936 350.44,325.064 356.688,331.312C359.816,334.44 363.904,336 368,336C372.096,336 376.184,334.44 379.312,331.312L443.312,267.312C449.56,261.064 449.56,250.936 443.312,244.688L379.312,180.688Z" style="fill:rgb(89,89,89);fill-rule:nonzero;"/>
        </g>
        <g transform="matrix(1.29799,0,0,1.30747,-77.3778,-80.1715)">
            <path d="M308.688,356.688L272,393.376L272,304C272,295.168 264.832,288 256,288C247.168,288 240,295.168 240,304L240,393.376L203.312,356.688C197.064,350.44 186.936,350.44 180.688,356.688C174.44,362.936 174.44,373.064 180.688,379.312L244.688,443.312C247.816,446.44 251.904,448 256,448C260.096,448 264.184,446.44 267.312,443.312L331.312,379.312C337.56,373.064 337.56,362.936 331.312,356.688C325.064,350.44 314.936,350.44 308.688,356.688Z" style="fill:rgb(89,89,89);fill-rule:nonzero;"/>
        </g>
        <g transform="matrix(1.29799,0,0,1.30747,-77.3778,-81.479)">
            <path d="M155.312,180.688C149.064,174.44 138.936,174.44 132.688,180.688L68.688,244.688C62.44,250.936 62.44,261.064 68.688,267.312L132.688,331.312C135.816,334.44 139.904,336 144,336C148.096,336 152.184,334.44 155.312,331.312C161.56,325.064 161.56,314.936 155.312,308.688L118.624,272L208,272C216.832,272 224,264.832 224,256C224,247.168 216.832,240 208,240L118.624,240L155.312,203.312C161.56,197.064 161.56,186.936 155.312,180.688Z" style="fill:rgb(89,89,89);fill-rule:nonzero;"/>
        </g>
    </g>
</svg>
