<?xml version="1.0" encoding="UTF-8" standalone="no"?>
<!DOCTYPE svg PUBLIC "-//W3C//DTD SVG 1.1//EN" "http://www.w3.org/Graphics/SVG/1.1/DTD/svg11.dtd">
<svg width="100%" height="100%" viewBox="0 0 22 22" version="1.1" xmlns="http://www.w3.org/2000/svg" xmlns:xlink="http://www.w3.org/1999/xlink" xml:space="preserve" xmlns:serif="http://www.serif.com/" style="fill-rule:evenodd;clip-rule:evenodd;stroke-linejoin:round;stroke-miterlimit:1.41421;">
    <g transform="matrix(1,0,0,1,-1011.82,-145.664)">
        <g transform="matrix(0.999303,0,0,0.999303,1.02667,23.4919)">
            <g transform="matrix(0.100092,0,0,0.100092,801.328,107.678)">
                <path d="M2214.44,145.664L2307.11,145.664C2307.35,145.676 2307.59,145.688 2307.83,145.7C2311.48,146.24 2314.26,149.251 2314.44,152.991L2314.44,352.991C2314.25,356.917 2311.1,360.121 2307.11,360.317L2107.11,360.317C2103.19,360.125 2099.98,356.98 2099.79,352.991L2099.79,152.991C2099.98,149.059 2103.12,145.86 2107.11,145.664L2214.44,145.664ZM2199.79,345.664L2199.79,260.317L2114.44,260.317L2114.44,345.664L2199.79,345.664ZM2299.79,260.317L2214.44,260.317L2214.44,345.664L2299.79,345.664L2299.79,260.317ZM2299.79,160.317L2214.44,160.317L2214.44,245.664L2299.79,245.664L2299.79,160.317ZM2114.44,160.317L2114.44,245.664L2199.79,245.664L2199.79,160.317L2114.44,160.317Z" style="fill:rgb(103,103,103);fill-rule:nonzero;"/>
            </g>
        </g>
    </g>
</svg>
