<?xml version="1.0" encoding="UTF-8" standalone="no"?>
<!DOCTYPE svg PUBLIC "-//W3C//DTD SVG 1.1//EN" "http://www.w3.org/Graphics/SVG/1.1/DTD/svg11.dtd">
<svg width="100%" height="100%" viewBox="0 0 12 13" version="1.1" xmlns="http://www.w3.org/2000/svg" xmlns:xlink="http://www.w3.org/1999/xlink" xml:space="preserve" xmlns:serif="http://www.serif.com/" style="fill-rule:evenodd;clip-rule:evenodd;stroke-linejoin:round;stroke-miterlimit:1.41421;">
    <g transform="matrix(1,0,0,1,-60.9412,-415.628)">
        <g transform="matrix(0.995824,0,0,0.995824,0.267759,1.76185)">
            <g transform="matrix(0.5,0,0,1,29.7886,5.68434e-14)">
                <path d="M69.721,428.125L62.279,428.125L62.279,415.602L69.721,415.602C69.721,419.776 69.721,423.95 69.721,428.125ZM64.412,416.669L64.412,427.058L67.588,427.058L67.588,416.669C66.529,416.669 65.471,416.669 64.412,416.669Z" style="fill:rgb(217,217,217);fill-rule:nonzero;"/>
            </g>
            <g transform="matrix(0.100419,0,0,0.100419,59.8061,379.5)">
                <path d="M82.283,449.721C82.116,449.572 81.957,449.414 81.806,449.247L76.59,443.015C74.938,440.88 75.29,440.304 75.364,439.238C75.533,436.806 77.566,434.635 80.015,434.334C80.791,434.239 80.981,434.308 81.233,434.326C83.337,434.635 83.736,435.092 84.735,436.197L89.952,442.429C90.09,442.607 90.207,442.766 90.308,442.911C93.168,441.451 96.355,440.592 99.668,440.529C99.95,440.527 99.949,440.527 100.23,440.529C112.562,440.765 123.345,452.836 121.581,465.419C120.138,475.72 110.41,484.215 99.949,484.215C87.362,484.215 76.12,471.519 78.446,458.511C79.018,455.315 80.367,452.317 82.283,449.721ZM99.803,451.15C92.384,451.292 86.363,460.036 89.832,467.23C92.867,473.526 102.436,475.5 107.689,470.493C111.19,467.154 112.15,461.445 109.883,457.149C107.942,453.471 104.243,451.122 99.803,451.15ZM60.78,409.889C62.883,410.199 63.282,410.655 64.282,411.761L71.1,419.906C71.913,420.957 72.014,421.343 72.189,422.067C72.98,425.336 69.96,428.974 66.456,428.595C65.107,428.45 63.873,427.74 62.954,426.724L56.136,418.579C54.484,416.444 54.837,415.868 54.911,414.802C55.079,412.374 57.113,410.199 59.562,409.898C60.338,409.803 60.528,409.872 60.78,409.889ZM73.734,384.767C76.414,385.091 76.576,385.747 77.283,386.548C78.717,388.176 79.002,390.713 77.95,392.623C77.776,392.94 77.714,393.008 77.505,393.303L71.019,401.715C67.76,405.624 58.804,402.005 62.161,395.91C62.336,395.593 62.397,395.524 62.607,395.23L69.092,386.817C70.713,384.874 71.583,384.673 73.734,384.767ZM93.19,359.529C94.509,359.689 94.855,359.888 95.493,360.272C97.806,361.664 98.743,364.96 97.406,367.385C97.232,367.702 97.17,367.771 96.961,368.065L90.475,376.478C88.746,378.551 88.108,378.331 87.051,378.488C82.953,379.098 79.352,373.803 82.063,369.992L88.548,361.58C89.656,360.251 90.633,359.417 93.19,359.529Z" style="fill:rgb(217,217,217);fill-rule:nonzero;"/>
            </g>
        </g>
    </g>
</svg>
