<?xml version="1.0" encoding="UTF-8" standalone="no"?>
<!DOCTYPE svg PUBLIC "-//W3C//DTD SVG 1.1//EN" "http://www.w3.org/Graphics/SVG/1.1/DTD/svg11.dtd">
<svg width="100%" height="100%" viewBox="0 0 10 15" version="1.1" xmlns="http://www.w3.org/2000/svg" xmlns:xlink="http://www.w3.org/1999/xlink" xml:space="preserve" xmlns:serif="http://www.serif.com/" style="fill-rule:evenodd;clip-rule:evenodd;stroke-linejoin:round;stroke-miterlimit:1.41421;">
    <g transform="matrix(1,0,0,1,-61.3941,-354.687)">
        <g transform="matrix(0.998716,0,0,0.998716,0.230011,0.735854)">
            <g transform="matrix(1.75,0,0,1.75,-48.1974,-241.257)">
                <circle cx="65" cy="346" r="1" style="fill:rgb(217,217,217);"/>
            </g>
            <path d="M69.002,355.689C69.929,356.896 70.277,358.481 70.433,360.051C70.66,362.325 70.373,364.767 69.215,366.607C68.198,368.223 65.996,368.971 64.075,368.28C61.661,367.412 60.339,364.164 61.952,361.809C62.787,360.59 64.198,359.785 64.755,358.378C64.925,357.949 65.006,357.487 65.001,357.026L64.98,355.605C65.78,356.479 66.623,357.316 67.19,358.402C67.19,358.402 67.397,358.156 67.539,357.914C67.871,357.352 68.043,356.698 68.035,356.044L68.002,354.406C68.335,354.834 68.669,355.261 69.002,355.689ZM68.824,357.68C68.53,358.481 68.03,359.217 67.336,359.704L66.781,360.087C66.52,359.48 66.266,358.868 65.906,358.316C65.906,358.316 65.907,358.299 65.859,358.453C65.478,359.648 64.576,360.64 63.703,361.455C62.929,362.181 62.285,363.103 62.283,364.216C62.281,366.022 63.96,367.616 65.909,367.451C66.984,367.361 67.946,366.743 68.496,365.718C69.638,363.589 69.653,360.963 69.138,358.72C69.057,358.366 68.958,358.016 68.836,357.673C68.836,357.673 68.84,357.635 68.824,357.68Z" style="fill:rgb(217,217,217);fill-rule:nonzero;"/>
        </g>
    </g>
</svg>
