<?xml version="1.0" encoding="UTF-8" standalone="no"?>
<!DOCTYPE svg PUBLIC "-//W3C//DTD SVG 1.1//EN" "http://www.w3.org/Graphics/SVG/1.1/DTD/svg11.dtd">
<svg width="100%" height="100%" viewBox="0 0 12 15" version="1.1" xmlns="http://www.w3.org/2000/svg" xmlns:xlink="http://www.w3.org/1999/xlink" xml:space="preserve" xmlns:serif="http://www.serif.com/" style="fill-rule:evenodd;clip-rule:evenodd;stroke-linejoin:round;stroke-miterlimit:1.41421;">
    <g transform="matrix(1,0,0,1,-59.2644,-474.28)">
        <g transform="matrix(9.99853,0,0,9.99853,-545.304,-3471.85)">
            <g transform="matrix(0.00994651,0,0,0.00994651,59.916,389.995)">
                <path d="M173.919,620.115L127.954,620.115L127.954,604.783C119.192,606.94 109.913,607.162 100.851,605.009C75.321,598.942 55.353,574.399 55.267,547.289L55.267,470.022L101.393,470.022C101.453,476.477 101.513,482.931 101.573,489.386C101.843,489.326 102.113,489.268 102.384,489.21C120.2,485.524 139.649,490.492 153.422,502.425C166.235,513.526 173.437,530.378 173.652,547.281L173.919,547.281L173.919,620.115ZM163.254,581.095C157.051,589.76 148.423,596.678 138.619,601.096L138.619,609.45C146.831,609.45 155.042,609.45 163.254,609.45L163.254,581.095ZM90.827,480.687L65.932,480.687C65.932,502.99 65.862,525.293 65.933,547.596C66.15,570.434 83.856,591.669 106.885,595.34C123.446,597.98 141.18,591.357 151.962,578.452C161.761,566.724 165.531,550.251 161.808,535.413C157.149,516.843 140.683,501.787 121.407,499.086C113.863,498.029 106.082,498.766 98.841,501.224L98.356,501.393L91.044,504.007L90.827,480.687ZM117.238,572.29C120.945,572.41 123.797,576.869 121.67,580.417C118.511,585.412 115.672,591.31 111.319,590.692C107.875,590.203 105.588,585.854 107.528,582.616C110.393,578.087 112.465,572.251 117.238,572.29ZM114.845,528.209C125.594,528.415 135.035,538.896 133.487,549.941C132.227,558.937 123.734,566.354 114.599,566.354C103.608,566.354 93.793,555.267 95.824,543.911C97.36,535.323 105.324,528.382 114.354,528.209C114.6,528.207 114.599,528.207 114.845,528.209ZM114.49,538.873C108.085,538.996 103.428,548.121 108.728,553.295C113.044,557.51 121.994,555.112 122.925,548.461C123.592,543.702 119.709,538.841 114.49,538.873ZM145.254,539.511C148.712,539.666 152.703,542.875 156.003,545.622C159.719,548.715 156.231,558.125 149.793,554.26C144.531,550.929 137.702,547.593 140.325,542.427C141.25,540.604 142.965,539.463 145.254,539.511ZM76.782,539.511C80.233,539.665 84.23,542.875 87.53,545.622C91.367,548.815 87.537,557.991 81.32,554.26C76.058,550.929 69.229,547.593 71.852,542.427C72.779,540.602 74.525,539.464 76.782,539.511ZM117.238,503.817C120.924,503.937 123.797,508.396 121.67,511.945C118.914,516.303 116.745,521.728 112.732,522.231C108.857,522.717 105.224,517.989 107.528,514.144C110.393,509.615 112.447,503.778 117.238,503.817Z" style="fill:rgb(217,217,217);fill-rule:nonzero;"/>
            </g>
        </g>
    </g>
</svg>
