<?xml version="1.0" encoding="UTF-8" standalone="no"?>
<!DOCTYPE svg PUBLIC "-//W3C//DTD SVG 1.1//EN" "http://www.w3.org/Graphics/SVG/1.1/DTD/svg11.dtd">
<svg width="100%" height="100%" viewBox="0 0 62 64" version="1.1" xmlns="http://www.w3.org/2000/svg" xmlns:xlink="http://www.w3.org/1999/xlink" xml:space="preserve" xmlns:serif="http://www.serif.com/" style="fill-rule:evenodd;clip-rule:evenodd;stroke-linejoin:round;stroke-miterlimit:10;">
    <g id="_x31_8_x5F_model_x5F_preparation">
        <g>
            <g>
                <path d="M31,34L17,26L17,9L31,17L31,34Z" style="fill:none;fill-rule:nonzero;stroke:rgb(191,191,191);stroke-width:2px;"/>
                <path d="M31,17L45,9L45,26L31,34" style="fill:none;fill-rule:nonzero;stroke:rgb(191,191,191);stroke-width:2px;"/>
                <path d="M17,9L31,1L45,9" style="fill:none;fill-rule:nonzero;stroke:rgb(191,191,191);stroke-width:1.6px;"/>
            </g>
            <g>
                <path d="M15,63L1,55L1,38L15,46L15,63Z" style="fill:none;fill-rule:nonzero;stroke:rgb(191,191,191);stroke-width:2px;"/>
                <path d="M15,46L29,38L29,55L15,63" style="fill:none;fill-rule:nonzero;stroke:rgb(191,191,191);stroke-width:2px;"/>
                <path d="M1,38L15,30L29,38" style="fill:none;fill-rule:nonzero;stroke:rgb(191,191,191);stroke-width:1.6px;"/>
            </g>
            <g>
                <path d="M47,63L33,55L33,38L47,46L47,63Z" style="fill:none;fill-rule:nonzero;stroke:rgb(191,191,191);stroke-width:2px;"/>
                <path d="M47,46L61,38L61,55L47,63" style="fill:none;fill-rule:nonzero;stroke:rgb(191,191,191);stroke-width:2px;"/>
                <path d="M33,38L47,30L61,38" style="fill:none;fill-rule:nonzero;stroke:rgb(191,191,191);stroke-width:2px;"/>
            </g>
        </g>
    </g>
</svg>
