<?xml version="1.0" encoding="UTF-8" standalone="no"?>
<!DOCTYPE svg PUBLIC "-//W3C//DTD SVG 1.1//EN" "http://www.w3.org/Graphics/SVG/1.1/DTD/svg11.dtd">
<svg width="100%" height="100%" viewBox="0 0 1000 1000" version="1.1" xmlns="http://www.w3.org/2000/svg" xmlns:xlink="http://www.w3.org/1999/xlink" xml:space="preserve" xmlns:serif="http://www.serif.com/" style="fill-rule:evenodd;clip-rule:evenodd;stroke-linejoin:round;stroke-miterlimit:2;">
    <g>
        <path d="M648.6,57.1C666.4,57.1 684.9,63.4 703.7,76C723,88.9 741.8,107.9 758.2,131.1C774.6,154.4 788.5,181.4 797.9,209.2C807.5,237.2 812.6,265.2 812.6,290.6C812.6,340.8 791.5,402.4 757.5,451.6C724.5,499.3 684.6,527.8 650.9,527.8C638.4,527.8 626.6,524.1 614.7,516.3C613.3,515.5 612.2,514.7 611.4,514.1C611.4,508.5 612.1,498.9 612.8,489.7C614.3,467.5 616.6,434.1 616.6,383.8C616.6,329.3 600.7,277.3 586.6,231.6C574.5,192.1 563.2,155 565.2,126.6C566.6,108.5 573.1,87.3 611.5,67C624,60.2 636,57.1 648.6,57.1M648.6,17.6C630.4,17.6 611.7,22 593.2,31.7C451,106.4 577.2,240.5 577.2,383.5C577.2,526.4 558,526.3 593.2,549.2C612.1,561.5 631.6,567 650.9,567C753.5,567 851.9,410.7 851.9,290.5C852.1,168.4 755.6,17.6 648.6,17.6Z" style="fill:rgb(89,89,89);fill-rule:nonzero;"/>
        <path d="M322.4,438.6C381.9,438.6 432.4,454.5 457.6,481.1C470.6,494.8 476.4,511.1 475.4,531C475.3,532.6 475.3,533.9 475.1,535C470.2,537.7 461.7,542 453.3,546.1C433.3,555.8 403.1,570.5 359.6,595.7C312.5,623 275.3,662.7 242.7,697.8C203.9,739.5 170.3,775.5 135.7,775.5C121.4,775.5 105.8,770 87.7,758.5C74.1,750 64.5,739.3 58.2,726C52,713.1 49.2,697.8 49.4,680.5C50.1,645.1 64.2,603.9 89,564.7C113.9,525.1 146.7,492.3 181.1,472.6C218.4,450.9 269.9,438.6 322.4,438.6M322.4,399.3C265.1,399.3 205.9,412.7 161.4,438.5C37.6,509.8 -54.2,715.5 66.7,791.8C92.3,808 114.9,814.8 135.8,814.8C225.1,814.8 279,687.8 379.4,629.7C503.1,558.3 512.7,574.9 514.9,533C519.7,441.7 424.2,399.3 322.4,399.3Z" style="fill:rgb(89,89,89);fill-rule:nonzero;"/>
        <path d="M563.3,628.2C568.2,631.1 576,636.4 583.9,641.6C602.3,654.1 630.1,672.8 673.8,697.9C720.9,725.2 774,737.4 820.7,748.1C860.8,757.3 898.8,766.1 922.4,782.1C937.5,792.4 952.5,808.7 950.9,852C949.7,881.5 935.6,904.1 907.6,921.1C879.2,938.4 839.1,948 794.6,948C744.2,948 693.9,935.7 656.6,914.2C621.7,894.1 586.9,858.3 561,816.1C535.4,774.2 521.3,730.2 522.1,695.2C522.9,664 535.4,642.7 560.1,630.1C561.1,629.2 562.3,628.6 563.3,628.2M563.8,587.5C557.5,587.5 551.1,590 541.7,594.8C414.4,659.6 512.6,876.8 636.4,948.2C680.9,974 738.5,987.4 794.1,987.4C893,987.4 986.1,944.9 989.8,853.5C996.2,693 816.9,735.2 693.1,663.7C600.5,610.3 582.7,587.5 563.8,587.5Z" style="fill:rgb(89,89,89);fill-rule:nonzero;"/>
        <path d="M114.9,356C106.8,356 98.6,353 92.3,347C79.1,334.5 78.6,313.7 91.1,300.5C99.5,291.7 105.1,278 108.1,259.8C111.9,236 109.3,214.7 100.6,199.8C96.2,192.3 89.4,184.7 82.1,176.8C76.8,170.9 71.3,164.9 65.9,158C44.5,130.6 37,101 44.5,74.7C52.4,47 74.3,30.2 89,19.3C103.5,8.3 124.1,11.2 135,25.6C146,40.1 143.1,60.7 128.7,71.6C121,77.4 109.7,86.1 107.7,92.7C106.5,97.1 109.1,106.5 117.7,117.6C121.5,122.4 125.9,127.3 130.7,132.5C139.5,142.1 149.3,152.9 157.1,166.3C174,194.8 179.4,230.7 172.9,270.3C167.7,301.8 156.2,327.2 138.6,345.7C132.3,352.5 123.5,356 114.9,356Z" style="fill:rgb(89,89,89);fill-rule:nonzero;"/>
        <path d="M258.6,356C250.5,356 242.3,353 236,347C222.8,334.5 222.3,313.7 234.8,300.5C243.2,291.7 248.8,278 251.8,259.8C255.6,236 253,214.7 244.3,199.8C239.9,192.3 233.1,184.7 225.8,176.8C220.5,170.9 215,164.9 209.6,158C188.2,130.6 180.7,101 188.2,74.7C196.1,47 218.1,30.3 232.7,19.3C247.2,8.3 267.8,11.2 278.7,25.6C289.7,40.1 286.8,60.7 272.4,71.6C264.7,77.4 253.4,86.1 251.4,92.7C250.2,97.1 252.8,106.5 261.4,117.6C265.2,122.4 269.6,127.3 274.4,132.5C283.2,142.1 293,152.9 300.8,166.3C317.7,194.8 323.1,230.7 316.6,270.3C311.4,301.8 299.9,327.2 282.3,345.7C275.9,352.5 267.3,356 258.6,356Z" style="fill:rgb(89,89,89);fill-rule:nonzero;"/>
        <path d="M395.3,356C387.2,356 379,353 372.7,347C359.5,334.5 359,313.7 371.5,300.5C379.9,291.7 385.5,278 388.5,259.8C392.3,236 389.7,214.7 381,199.8C376.6,192.3 369.8,184.7 362.5,176.8C357.2,170.9 351.7,164.9 346.3,158C324.9,130.6 317.4,101 324.9,74.7C332.8,47 354.8,30.3 369.4,19.3C383.9,8.3 404.5,11.2 415.4,25.6C426.4,40.1 423.5,60.7 409.1,71.6C401.4,77.4 390.1,86.1 388.1,92.7C386.9,97.1 389.5,106.5 398.1,117.6C401.9,122.4 406.3,127.3 411.1,132.5C419.9,142.1 429.7,152.9 437.5,166.3C454.4,194.8 459.8,230.7 453.3,270.3C448.1,301.8 436.6,327.2 419,345.7C412.7,352.5 404,356 395.3,356Z" style="fill:rgb(89,89,89);fill-rule:nonzero;"/>
    </g>
</svg>
