<?xml version="1.0" encoding="UTF-8" standalone="no"?>
<!DOCTYPE svg PUBLIC "-//W3C//DTD SVG 1.1//EN" "http://www.w3.org/Graphics/SVG/1.1/DTD/svg11.dtd">
<svg width="100%" height="100%" viewBox="0 0 12 14" version="1.1" xmlns="http://www.w3.org/2000/svg" xmlns:xlink="http://www.w3.org/1999/xlink" xml:space="preserve" xmlns:serif="http://www.serif.com/" style="fill-rule:evenodd;clip-rule:evenodd;stroke-linejoin:round;stroke-miterlimit:1.41421;">
    <g transform="matrix(1,0,0,1,-251.6,-255.448)">
        <g transform="matrix(0.100017,0,0,0.100017,231.719,235.92)">
            <path d="M249.26,201.932L309.47,227.476L309.47,287.687L265.681,322.353L205.47,296.81L205.47,238.424L249.26,201.932Z" style="fill:rgb(0,80,253);"/>
            <path d="M199.711,235.039C199.916,234.679 200.157,234.337 200.435,234.019C200.743,233.666 200.84,233.597 201.187,233.284L244.977,196.793C246.275,195.795 247.081,195.133 249.848,195.268C250.771,195.386 251.003,195.444 251.873,195.774L311.58,221.104C311.965,221.222 312.187,221.351 312.527,221.525C312.614,221.57 312.7,221.617 312.784,221.666C313.625,222.113 313.823,222.361 314.244,222.789C314.948,223.506 315.454,224.389 315.756,225.342C315.995,226.025 316.134,226.746 316.16,227.476L316.16,287.687C316.097,289.384 315.499,291.032 314.361,292.252C314.056,292.578 313.962,292.642 313.623,292.932L269.833,327.599C268.518,328.563 268.044,328.679 267.151,328.88C266.682,328.986 266.206,329.032 265.73,329.023C265.138,329.039 264.541,328.973 263.959,328.818C263.553,328.71 263.459,328.662 263.068,328.512L202.857,302.968C200.443,301.844 198.873,299.499 198.78,296.81L198.78,238.424C198.831,236.977 198.962,236.738 199.191,236.116C199.33,235.738 199.504,235.378 199.711,235.039ZM212.16,248.529L212.16,292.381L258.991,312.248L258.991,268.396L220.606,252.112L212.16,248.529ZM272.371,267.101L272.371,308.524L302.78,284.45L302.78,241.76C292.644,250.207 282.507,258.654 272.371,267.101ZM218.174,236.546L225.832,239.794L264.535,256.214L296.767,229.354L250.406,209.686L218.174,236.546Z" style="fill:rgb(69,177,246);fill-rule:nonzero;"/>
        </g>
    </g>
</svg>
