<?xml version="1.0" encoding="UTF-8" standalone="no"?>
<!DOCTYPE svg PUBLIC "-//W3C//DTD SVG 1.1//EN" "http://www.w3.org/Graphics/SVG/1.1/DTD/svg11.dtd">
<svg width="100%" height="100%" viewBox="0 0 718 668" version="1.1" xmlns="http://www.w3.org/2000/svg" xmlns:xlink="http://www.w3.org/1999/xlink" xml:space="preserve" xmlns:serif="http://www.serif.com/" style="fill-rule:evenodd;clip-rule:evenodd;stroke-linecap:round;stroke-linejoin:round;stroke-miterlimit:1.5;">
    <g>
        <g>
            <g>
                <path d="M377.71,397.551L581.318,532.234" style="fill:none;stroke:rgb(204,161,0);stroke-width:10px;"/>
                <g transform="matrix(1.05556,0,0,1,-25.3412,3.96135)">
                    <path d="M427.621,363.485L627.269,510.843" style="fill:none;stroke:rgb(204,160,0);stroke-width:9.73px;"/>
                </g>
                <g transform="matrix(0.627283,0.00137313,-0.00137313,0.627283,221.291,191.094)">
                    <path d="M632,521.738C644.285,518.273 655.642,518.027 664.999,527.499C671.558,534.137 667.794,557.358 668.05,566.247C668.334,576.101 671.328,589.816 666.893,599.209C664.619,604.025 660.307,607.691 655.552,609.741C652.644,610.995 640.654,607.818 639.929,608.806C634.2,616.618 627.416,630.381 617.474,633.88C604.89,638.309 601.566,631.881 599.747,621.483C595.074,594.763 589.569,568.127 584.588,541.65C592.537,543.224 601.202,543.006 609.054,541.033C622.443,537.667 625.266,533.806 632,521.738Z" style="fill:rgb(168,168,168);stroke:rgb(128,128,128);stroke-width:14.13px;stroke-miterlimit:4;"/>
                </g>
                <g transform="matrix(0.639441,0,0,0.707667,213.208,146.101)">
                    <path d="M663.863,532.451C667.747,523.88 656.888,523.186 651.771,526.431C644.552,531.009 640.144,538.046 633.708,543.45C622.565,552.805 607.145,551.072 594.698,557.621C583.567,563.477 598.788,566.449 604.452,565.969C611.769,565.349 619.415,564.08 626.299,561.455C641.432,555.683 652.885,544.06 663.863,532.451Z" style="fill:white;stroke:white;stroke-width:1.31px;stroke-miterlimit:4;"/>
                </g>
            </g>
        </g>
        <g transform="matrix(0.637498,0,0,0.637498,3.95241,2.82873)">
            <path d="M275.186,23.076C334.11,15.87 393.59,12.054 452.884,9.42C483.081,8.079 513.601,7.087 543.816,8.47C557.744,9.108 575.437,8.732 586.644,18.068C597.188,26.852 604.469,40.883 610.594,52.906C637.92,106.547 656.37,165.269 669.561,223.872C675.933,252.184 678.425,280.662 676.791,309.662C676.038,323.037 673.814,336.789 669.682,349.551C666.52,359.316 654.184,375.933 659.923,385.347C667.118,397.151 675.514,408.095 683.218,419.558C690.265,430.043 700.982,440.252 705.39,452.235C709.974,464.696 709.473,480.663 709.82,493.764C710.169,506.94 711.272,521.155 708.33,534.11C706.256,543.244 687.923,553.133 680.613,558.148C668.475,566.473 656.704,575.339 644.653,583.796C621.439,600.087 598.019,616.275 574.123,631.547C562.085,639.24 549.823,646.936 536.99,653.25C523.984,659.649 512.196,665.579 501.48,653.729C480.414,630.432 458.225,608.105 436.457,585.468C393.756,541.064 351.52,496.229 309.326,451.342C225.413,362.073 143.474,270.396 70.118,172.2C53.74,150.279 34.71,123.129 28.064,96.3C26.751,91.001 22.301,83.783 28.684,80.833C35.402,77.728 42.227,75.142 49.342,73.052C63.937,68.765 78.61,64.94 93.404,61.4C149.595,47.955 206.421,37.497 262.998,25.873C267.09,25.033 271.17,24.241 275.186,23.076Z" style="fill:rgb(168,168,168);fill-opacity:0;stroke:rgb(113,113,113);stroke-width:15.69px;stroke-miterlimit:4;"/>
            <path d="M24.764,84.044C46.842,65.958 84.132,64.022 111.289,60.2C141.368,55.967 171.677,53.884 201.981,52.153C231.161,50.486 260.649,49.337 289.879,50.104C305.603,50.517 321.414,50.643 337.107,51.807C350.435,52.796 369.639,53.003 380.976,60.858C403.379,76.38 414.8,112.248 425.033,136.287C436.952,164.289 445.907,193.761 455.079,222.743C472.671,278.332 487.368,337.276 484.848,395.938C484.229,410.355 482.661,424.793 479.113,438.815C475.672,452.415 468.111,464.875 464.646,478.115C461.859,488.765 473.388,500.848 479.432,509.414C487.592,520.978 495.783,532.518 503.898,544.113C512.188,555.96 516.714,565.097 518.12,579.676C519.458,593.554 519.828,607.655 519.828,621.586C519.828,630.49 522.657,656.327 513.664,660.271C509.336,662.168 498.835,659.462 494.269,659.076C486.472,658.416 478.69,657.684 470.904,656.911C354.598,645.369 240.035,615.872 127.709,584.64C111.746,580.202 96.059,574.771 80.293,569.684C67.42,565.532 53.038,562.174 41.556,554.886C17.658,539.718 18.793,504.322 16.851,479.307C12.164,418.929 11.299,358.539 10.933,298.01C10.714,261.806 11.725,225.531 13.117,189.358C13.819,171.132 14.881,152.964 16.297,134.781C17.546,118.701 17.366,98.711 24.764,84.044Z" style="fill:rgb(168,168,168);fill-opacity:0;stroke:rgb(121,121,121);stroke-width:15.69px;stroke-miterlimit:4;"/>
            <path d="M659.12,573.227L582.406,625.944C588.432,615.702 586.031,598.952 585.907,587.503C585.758,573.797 585.083,559.976 583.429,546.363C580.152,519.372 559.413,497.829 544.488,475.891C538.872,467.636 525.269,453.371 530.351,443.224C536.629,430.693 542.083,418.538 545.308,404.812C551.921,376.668 551.646,346.957 548.464,318.347C542.103,261.137 522.776,202.946 502.647,149.271C492.32,121.733 481.959,92.135 465.541,67.518C457.805,55.919 449.578,42.483 434.668,39.927C419.379,37.305 404.232,36.533 388.746,35.981C335.705,34.09 282.073,43.782 229.296,40.428C287.833,28.824 346.137,21.164 405.824,17.197C434.358,15.301 463.892,13.669 492.428,16.066C505.999,17.206 521.58,17.666 531.227,28.553C541.01,39.596 548.698,51.783 555.538,64.836C583.041,117.325 603.399,176.197 617.135,233.798C630.531,289.983 637.26,348.798 609.766,401.936C604.025,413.034 623.053,431.602 629.371,440.504C638.576,453.474 650.708,466.324 657.791,480.585C663.878,492.841 663.196,511.152 663.196,524.609C663.196,538.21 666.932,561.517 659.12,573.227Z" style="fill-opacity:0;stroke:rgb(128,128,128);stroke-width:15.69px;stroke-miterlimit:4;"/>
        </g>
    </g>
</svg>
