<?xml version="1.0" encoding="UTF-8" standalone="no"?>
<!DOCTYPE svg PUBLIC "-//W3C//DTD SVG 1.1//EN" "http://www.w3.org/Graphics/SVG/1.1/DTD/svg11.dtd">
<svg width="100%" height="100%" viewBox="0 0 28 32" version="1.1" xmlns="http://www.w3.org/2000/svg" xmlns:xlink="http://www.w3.org/1999/xlink" xml:space="preserve" xmlns:serif="http://www.serif.com/" style="fill-rule:evenodd;clip-rule:evenodd;stroke-linejoin:round;stroke-miterlimit:1.41421;">
    <g transform="matrix(1,0,0,1,-931.317,-68.15)">
        <g transform="matrix(-0.999041,0,0,0.999041,1838.13,-0.418769)">
            <g transform="matrix(-1.00096,0,0,1.00096,1839.89,0.419171)">
                <path d="M945.508,72.425L945.508,68.15L954.068,73.424L945.508,78.698L945.508,74.423L944.946,74.423C940.432,74.445 936.279,77.176 934.407,81.125C932.525,85.095 933.124,89.985 935.78,93.368C938.578,96.932 943.394,98.559 947.695,97.536C951.908,96.533 955.356,93.053 956.359,88.889C956.653,87.668 956.683,86.403 956.685,85.137L958.683,85.14L958.682,86.182C958.672,88.111 958.257,90.054 957.453,91.817C955.32,96.5 950.485,99.683 945.424,99.843C941.098,99.981 936.798,97.941 934.158,94.537C931.047,90.525 930.461,84.892 932.548,80.383C934.777,75.57 939.799,72.45 944.939,72.425L945.508,72.425Z" style="fill:rgb(217,217,217);"/>
            </g>
        </g>
    </g>
</svg>
