<?xml version="1.0" encoding="UTF-8" standalone="no"?>
<!DOCTYPE svg PUBLIC "-//W3C//DTD SVG 1.1//EN" "http://www.w3.org/Graphics/SVG/1.1/DTD/svg11.dtd">
<svg width="100%" height="100%" viewBox="0 0 38 37" version="1.1" xmlns="http://www.w3.org/2000/svg" xmlns:xlink="http://www.w3.org/1999/xlink" xml:space="preserve" xmlns:serif="http://www.serif.com/" style="fill-rule:evenodd;clip-rule:evenodd;stroke-linejoin:round;stroke-miterlimit:1.41421;">
    <g transform="matrix(1,0,0,1,-722.292,-65.995)">
        <g transform="matrix(0.999554,0,0,0.999554,-101.63,-0.935896)">
            <g transform="matrix(0.100055,0,0,0.100055,752.9,61.2359)">
                <path d="M725.515,161.871C721.472,159.994 718.369,156.086 717.909,151.425L713.539,100.742C713.043,94.04 718.295,87.619 725.147,86.941L1069.42,57.258C1069.83,57.228 1070.24,57.216 1070.66,57.217C1076.98,57.394 1082.58,62.447 1083.22,68.864L1087.59,119.551C1088.08,126.235 1082.83,132.674 1075.98,133.352L819.232,155.488C899.905,155.228 980.579,155.355 1061.25,155.868C1072.63,156.084 1082.79,165.792 1083.02,177.636C1083.47,250.074 1083.02,322.515 1083.02,394.955C1082.95,406.415 1073.13,416.748 1061.25,416.972C954.247,417.664 847.24,416.974 740.236,416.974C728.863,416.9 718.446,407.227 718.219,395.205C717.765,322.766 718.218,250.325 718.218,177.886C718.256,171.798 721.08,165.992 725.515,161.871ZM740.3,175.856C739.198,175.863 738.242,176.783 738.208,177.86C736.843,250.191 738.207,322.548 738.207,394.892C738.207,395.999 739.148,396.964 740.239,396.984C847.135,397.675 954.036,396.985 1060.93,396.985C1062.04,396.985 1063.01,396.043 1063.03,394.953C1063.48,322.62 1063.03,250.283 1063.03,177.949C1063.03,176.824 1062.06,175.856 1060.93,175.856C954.057,175.856 847.178,175.856 740.3,175.856ZM781.039,102.185L734.076,106.234L737.203,142.498L756.929,140.797L781.039,102.185ZM833.875,97.63L809.764,136.242L858.27,132.059L882.381,93.448L833.875,97.63ZM983.722,84.71L935.216,88.892L911.106,127.504L959.74,123.311C959.991,122.801 960.263,122.299 960.558,121.807L983.722,84.71ZM1036.56,80.155L1012.45,118.767L1067.05,114.059L1063.92,77.795L1036.56,80.155Z" style="fill:rgb(217,217,217);fill-rule:nonzero;"/>
            </g>
        </g>
        <g transform="matrix(0.999554,0,0,0.999554,-101.63,-0.935896)">
            <g transform="matrix(1,0,0,1,63.1818,0)">
                <path d="M783.685,93.697L775.952,93.697L775.952,85.964L783.685,85.964C783.685,88.542 783.685,91.12 783.685,93.697ZM777.285,87.297L777.285,92.364L782.352,92.364L782.352,87.297C780.663,87.297 778.974,87.297 777.285,87.297Z" style="fill:rgb(253,186,5);fill-rule:nonzero;"/>
            </g>
        </g>
    </g>
</svg>
