<?xml version="1.0" encoding="UTF-8" standalone="no"?>
<!DOCTYPE svg PUBLIC "-//W3C//DTD SVG 1.1//EN" "http://www.w3.org/Graphics/SVG/1.1/DTD/svg11.dtd">
<svg width="100%" height="100%" viewBox="0 0 41 42" version="1.1" xmlns="http://www.w3.org/2000/svg" xmlns:xlink="http://www.w3.org/1999/xlink" xml:space="preserve" xmlns:serif="http://www.serif.com/" style="fill-rule:evenodd;clip-rule:evenodd;stroke-linejoin:round;stroke-miterlimit:1.41421;">
    <g transform="matrix(1,0,0,1,-564.881,-63.2131)">
        <g transform="matrix(1,0,0,1,328.786,3.05257)">
            <g transform="matrix(0.0439576,0,0,0.0439576,233.815,58.5714)">
                <path d="M281.387,273.547L284.721,135.547L326.721,82.88L512,49.547L706.054,96.213L738.054,147.547L739.387,430.213L678.721,495.547L387.387,512L306.054,553.547L282.721,630.213L282.721,739.547L170.054,743.547L71.387,675.547L67.387,380.88L120.721,314.213L281.387,273.547Z" style="fill:rgb(75,114,164);"/>
            </g>
        </g>
        <g transform="matrix(1,0,0,1,328.786,3.05257)">
            <g transform="matrix(-0.0439576,-5.38326e-18,5.38326e-18,-0.0439576,278.927,103.632)">
                <path d="M281.387,273.547L284.721,135.547L326.721,82.88L512,49.547L706.054,96.213L738.054,147.547L739.387,430.213L671.721,506.547L387.387,512L306.054,553.547L282.721,630.213L282.721,739.547L170.054,743.547L71.387,675.547L67.387,380.88L120.721,314.213L281.387,273.547Z" style="fill:rgb(198,148,15);"/>
            </g>
        </g>
        <g transform="matrix(1,0,0,1,328.786,3.05257)">
            <g transform="matrix(0.0439576,0,0,0.0439576,233.815,58.5714)">
                <path d="M267.534,266.367L267.534,165.548C267.645,132.442 285.662,100.478 312.832,80.979C326.352,71.277 341.932,64.792 357.752,59.174C408.399,41.189 462.893,36.092 516.851,36.153C578.363,36.222 641.858,43.459 694.158,74.615C722.788,91.671 747.053,117.811 755.742,150.169C757.814,157.882 758.285,165.746 758.193,174.189C757.883,204.942 757.987,235.717 758.234,266.51C772.618,266.559 787.002,266.624 801.386,266.599C826.301,266.482 851.873,266.751 876.159,273.141C897.686,278.806 917.756,289.352 934.041,305.199C951.804,322.485 964.259,345.065 968.902,369.605C972.081,386.404 972.132,403.72 972.134,420.907L972.134,523.375C971.834,557.457 971.79,591.655 972.136,625.62C972.22,650.49 958.365,674.211 941.016,692.685C910.664,725.007 866.528,741.244 822.608,749.863C801.392,754.027 779.837,756.351 758.267,757.366L758.267,858.113C758.154,891.083 740.271,922.973 713.242,942.484C699.652,952.295 683.974,958.831 668.05,964.486C617.525,982.428 563.147,987.566 508.951,987.507C447.351,987.44 383.943,980.201 331.644,949.045C303.194,932.096 278.819,906.109 270.059,873.492C267.991,865.793 267.516,857.914 267.609,849.471C267.916,818.987 267.816,788.481 267.574,757.957C243.755,758.047 219.837,758.523 197.089,757.846C160.638,756.761 123.71,749.073 95.819,724.63C75.053,706.43 60.105,681.807 55.005,654.323C51.917,637.68 51.867,620.536 51.866,603.513L51.866,501.046C52.164,466.962 52.206,432.759 51.864,398.802C51.791,378.84 61.032,359.685 73.241,343.341C102.514,304.153 152.153,284.176 201.311,274.253C223.131,269.849 245.323,267.392 267.534,266.367ZM758.285,297.169C758.32,325.071 758.378,352.939 758.25,381.118C758.11,405.767 756.207,430.925 745.733,453.165C734.735,476.518 715.492,496.362 693.675,508.238C662.082,525.435 624.753,527.464 589.264,527.009C588.681,527.002 588.098,526.997 587.516,526.994C537.901,526.91 488.287,527.219 438.673,527.333C411.166,527.396 382.63,527.217 356.873,537.617C332.085,547.624 311.509,568.979 303.601,594.433C298.006,612.442 298.205,631.81 298.204,650.975L298.204,753.307C298.496,786.825 298.643,820.159 298.228,853.809C298.051,868.137 305.143,881.723 313.712,893.102C335.961,922.645 373.012,938.078 410.171,946.737C444.548,954.749 480.281,957.042 515.189,956.824C568.912,956.488 623.284,950.429 673.237,929.634C691.529,922.019 708.207,909.802 717.905,892.747C723.917,882.173 727.559,870.108 727.6,858.06L727.6,757.839L510.323,756.728L510.48,726.062L741.413,727.243C794.552,726.416 849.317,718.958 893.693,691.811C915.532,678.45 934.481,658.425 940.344,634.103C941.458,629.482 941.452,624.684 941.398,619.727C941.075,587.748 941.198,555.792 941.462,523.87L941.467,523.24C941.467,484.03 942.105,445.213 941.375,405.479C940.975,383.735 938.09,361.198 925.829,342.843C915.575,327.492 901.009,315.187 884.152,308.107C858.366,297.278 829.248,297.219 801.142,297.266C801.095,297.272 801.046,297.272 800.998,297.266L758.285,297.169ZM636.18,808.646C657.788,808.646 675.331,826.188 675.331,847.796C675.331,869.403 657.788,886.946 636.18,886.946C614.573,886.946 597.03,869.403 597.03,847.796C597.03,826.188 614.573,808.646 636.18,808.646ZM267.517,727.256C267.482,699.098 267.422,670.978 267.552,642.542C267.696,617.17 269.769,591.255 281.018,568.529C291.476,547.401 308.484,529.326 328.454,517.507C356.115,501.136 389.42,496.589 422.217,496.497C422.999,496.497 423.781,496.498 424.563,496.5C479.047,496.761 532.963,496.451 587.126,496.327C587.619,496.328 588.113,496.33 588.606,496.334C615.58,496.588 643.356,496.232 668.476,486.225C693.537,476.241 714.296,454.668 722.2,429.227C727.81,411.172 727.596,391.774 727.597,372.685L727.597,270.353C727.305,236.836 727.158,203.5 727.573,169.851C727.75,155.542 720.658,141.937 712.089,130.558C690.067,101.312 653.641,85.946 616.879,77.217C582.18,68.977 546.298,66.613 510.613,66.836C456.89,67.173 402.516,73.232 352.565,94.026C334.276,101.64 317.593,113.858 307.897,130.912C301.884,141.489 298.241,153.551 298.201,165.599L298.201,265.821L515.478,266.932L515.322,297.598L292.251,296.458C236.46,296.535 177.765,303.828 130.758,332.335C108.771,345.669 89.62,365.572 83.656,390.317C82.542,394.939 82.548,399.736 82.602,404.694C82.925,436.673 82.803,468.628 82.538,500.551L82.533,501.18C82.533,540.39 81.896,579.204 82.625,618.941C83.024,640.685 85.909,663.221 98.171,681.577C108.426,696.93 122.993,709.234 139.849,716.313C165.643,727.147 194.757,727.201 222.858,727.154C222.905,727.148 222.954,727.154 223.002,727.154L267.517,727.256ZM391.181,135.979C412.788,135.979 430.331,153.522 430.331,175.129C430.331,196.737 412.788,214.279 391.181,214.279C369.573,214.279 352.031,196.737 352.031,175.129C352.031,153.522 369.573,135.979 391.181,135.979Z" style="fill:rgb(205,205,205);"/>
            </g>
        </g>
    </g>
</svg>
