<?xml version="1.0" encoding="UTF-8" standalone="no"?>
<!DOCTYPE svg PUBLIC "-//W3C//DTD SVG 1.1//EN" "http://www.w3.org/Graphics/SVG/1.1/DTD/svg11.dtd">
<svg width="100%" height="100%" viewBox="0 0 31 37" version="1.1" xmlns="http://www.w3.org/2000/svg" xmlns:xlink="http://www.w3.org/1999/xlink" xml:space="preserve" xmlns:serif="http://www.serif.com/" style="fill-rule:evenodd;clip-rule:evenodd;stroke-linejoin:round;stroke-miterlimit:1.41421;">
    <g transform="matrix(1,0,0,1,-113.95,-66.0574)">
        <g transform="matrix(1,0,0,1,48.375,0)">
            <g transform="matrix(1.00112,0,0,1.00112,-0.0906691,0.0641994)">
                <g transform="matrix(0.995255,0,0,0.856132,52.9943,11.6806)">
                    <path d="M42.173,63.396C42.266,63.452 42.368,63.491 42.453,63.562C42.625,63.707 42.752,63.912 42.818,64.146C42.85,64.262 42.851,64.387 42.867,64.507L42.867,102.722C42.859,104.145 41.85,105.446 40.576,105.522C40.545,105.523 40.514,105.524 40.483,105.525C32.012,105.587 23.541,105.525 15.069,105.525C13.81,105.516 12.666,104.259 12.658,102.722L12.658,64.507C12.701,64.192 12.682,64.089 12.85,63.821C13.215,63.235 14.09,63.205 14.475,63.821C14.643,64.089 14.624,64.192 14.667,64.507C14.667,77.248 14.459,89.992 14.667,102.731C14.674,102.973 14.857,103.184 15.067,103.189C23.532,103.251 31.999,103.376 40.463,103.189C40.674,103.181 40.856,102.967 40.858,102.714L40.858,64.507C40.891,64.265 40.927,64.017 41.05,63.821C41.174,63.621 41.35,63.473 41.552,63.396C41.75,63.322 41.965,63.358 42.173,63.396Z" style="fill:rgb(217,217,217);fill-rule:nonzero;"/>
                </g>
                <g transform="matrix(0.211999,0,0,0.211999,70.025,72.4629)">
                    <path d="M50.076,13.241C53.184,13.279 56.201,14.955 57.858,17.678C70.599,39.005 83.254,60.384 95.817,81.817C98.948,87.262 95.11,95.51 87.958,95.6C62.653,95.706 37.347,95.706 12.042,95.6C5.761,95.521 0.618,88.017 4.183,81.817C16.746,60.384 29.401,39.005 42.142,17.678C43.803,14.95 46.773,13.227 50.076,13.241ZM49.986,20.788C49.43,20.795 48.895,21.1 48.605,21.575C35.891,42.858 23.352,64.245 10.725,85.58C10.149,86.555 10.873,88.017 12.077,88.052C37.334,88.58 62.602,88.053 87.865,88.053C89.008,88.053 89.878,86.67 89.303,85.63C77.12,64.028 64.041,42.944 51.41,21.601C51.112,21.098 50.558,20.786 49.986,20.788Z" style="fill:rgb(253,186,5);fill-rule:nonzero;"/>
                </g>
            </g>
        </g>
    </g>
</svg>
