<?xml version="1.0" encoding="UTF-8" standalone="no"?>
<!DOCTYPE svg PUBLIC "-//W3C//DTD SVG 1.1//EN" "http://www.w3.org/Graphics/SVG/1.1/DTD/svg11.dtd">
<svg width="100%" height="100%" viewBox="0 0 43 46" version="1.1" xmlns="http://www.w3.org/2000/svg" xmlns:xlink="http://www.w3.org/1999/xlink" xml:space="preserve" xmlns:serif="http://www.serif.com/" style="fill-rule:evenodd;clip-rule:evenodd;stroke-linejoin:round;stroke-miterlimit:1.41421;">
    <g transform="matrix(1,0,0,1,-311.525,-61.2108)">
        <g transform="matrix(1,0,0,1,257.81,8.99235)">
            <g transform="matrix(0.998951,0,0,0.998951,-2.53995,-8.92252)">
                <g transform="matrix(0.100108,0,0,0.100108,25.3543,55.9777)">
                    <path d="M566.466,326.755L566.466,62.205C566.843,60.307 566.853,60.283 567.929,58.673L569.549,57.59L571.46,57.21C572.098,57.337 572.735,57.464 573.372,57.59L574.992,58.673L576.075,60.294L576.455,62.205L576.455,327.94L731.503,430.055L732.89,431.424L733.648,433.22L733.661,435.168L732.927,436.974L731.558,438.361L729.763,439.119L727.814,439.132L726.009,438.398L570.566,336.023L320.469,399.07L318.523,399.168C316.699,398.519 316.677,398.506 315.241,397.208L314.405,395.448L314.307,393.501L314.96,391.666L316.267,390.22L318.027,389.384L566.466,326.755Z" style="fill:rgb(126,126,126);fill-rule:nonzero;"/>
                </g>
                <g transform="matrix(1,0,0,1,53.8112,60.152)">
                    <g transform="matrix(1,0,0,1,0.0577443,0.221288)">
                        <path d="M24.057,6.406C29.521,6.432 34.879,9.118 38.159,13.559C41.901,18.624 42.663,25.763 39.88,31.579C37.514,36.526 32.726,40.244 27.327,41.279C21.825,42.335 15.857,40.588 11.787,36.661C8.978,33.951 7.099,30.278 6.569,26.402C5.816,20.908 7.813,15.105 11.901,11.23C15.12,8.179 19.501,6.427 23.943,6.406C23.981,6.406 24.019,6.406 24.057,6.406Z" style="fill:rgb(23,23,23);fill-rule:nonzero;"/>
                    </g>
                    <g transform="matrix(1,0,0,1,0.0577443,0.221288)">
                        <circle cx="24" cy="24" r="15.594" style="fill:rgb(75,114,164);"/>
                    </g>
                    <path d="M31.503,38.171L31.461,36.787L29.699,36.053L29.699,34.711L31.587,34.207L32.446,31.523L31.461,30.37L28.063,31.083L25.884,30.37L26.763,28.398L25.884,25.555L28.504,24.959L28.231,23.239L27.497,21.562L28.399,19.884L29.783,19.632L31.587,21.016L34.586,20.995L37.06,19.758L38.328,16.992L39.933,21.478L39.652,27.203L38.591,31.397L35.76,35.34L31.503,38.171Z" style="fill:rgb(122,95,82);"/>
                    <path d="M11.147,14.806L12.706,18.07L13.849,19.453L17.04,20.006L17.569,21.371L16.45,22.772L13.72,22.422L13.204,23.565L13.849,25.555L16.062,26.055L17.243,27.582L16.505,29.116L13.683,29.079L12.374,30.536L13.923,33.026L13.536,36.053L10.013,32.325L8.077,26.756L8.114,21.408L9.516,17.295L11.147,14.806Z" style="fill:rgb(122,95,82);"/>
                    <g transform="matrix(0.100108,0,0,0.100108,-28.4569,-4.1743)">
                        <path d="M525.114,117.885C576.692,118.13 627.232,143.658 657.984,185.286C693.419,233.254 700.494,300.51 673.982,355.497C651.668,401.777 606.777,436.693 555.933,446.445C504.08,456.391 447.876,439.943 409.515,402.931C377.663,372.199 358.814,328.446 358.814,283.649C358.814,229.403 386.999,176.177 432.743,145.66C459.549,127.777 491.622,118.039 524.044,117.885C524.4,117.884 524.757,117.884 525.114,117.885ZM662.043,210.357C635.687,161.217 581.876,128.144 525.082,127.874C524.747,127.873 524.411,127.873 524.075,127.874C476.055,128.102 429.565,152.222 400.287,190.328C405.811,202.807 411.015,215.921 419.992,226.174C427.475,234.72 442.278,230.701 453.321,235.81C463.457,240.499 468.393,254.663 460.522,264.669C457.189,268.906 452.535,272.329 447.509,273.241C439.871,274.626 432.148,269.621 425.408,270.381C421.051,270.873 417.801,280.993 422.699,287.904C425.386,291.697 429.867,294.55 433.538,295.196C440.311,296.386 446.947,295.018 453.537,302.098C462.137,311.337 464.043,328.481 451.152,335.223C442.675,339.657 432.113,336.22 423.708,336.84C417.951,337.265 413.481,344.936 414.551,350.947C415.676,357.262 419.992,362.427 424.548,367.118C428.359,371.077 430.683,376.369 430.264,382.209C429.767,389.133 426.891,395.71 423.631,402.033C451.527,425.54 487.683,439.425 524.579,439.425C546.684,439.425 568.681,434.423 588.832,425.233C588.841,425.195 588.85,425.157 588.859,425.119C589.944,420.728 592.95,416.958 594.599,412.88C595.455,410.761 593.247,410.991 591.84,410.68C590.91,410.48 589.98,410.286 589.051,410.082C582.604,408.64 575.333,405.261 574.459,397.512C573.64,390.247 578.074,383.007 585.804,381.187C589.133,380.403 592.88,380.869 595.747,379.374C598.711,377.828 602.181,368.744 602.835,362.306C603.294,357.788 601.804,353.188 597.118,351.312C588.806,347.985 579.493,353.731 568.757,356.81C558.198,359.838 544.366,356.56 539.755,345.719C537.426,340.242 540.611,333.711 542.854,328.757C544.623,324.795 545.896,320.562 543.311,316.421C540.266,311.544 537.245,306.257 537.959,300.762C538.672,295.277 541.857,290.06 547.42,288.491C552.405,287.086 557.816,289.009 562.675,288.226C563.99,288.014 563.668,286.997 563.824,285.983C565.385,275.813 555.162,267.239 554.24,258.815C553.235,249.627 559.235,239.667 566.472,236.067C574.599,232.024 584.567,231.954 591.96,237.682C597.803,242.209 602.892,248.401 609.882,248.207C621.686,247.877 633.891,245.727 644.125,240.26C654.397,234.772 656.687,220.784 662.043,210.357ZM667.696,222.118C664.02,231.122 660.902,240.492 653.223,246.302C641.168,255.422 623.958,257.87 609.873,258.199C599.785,258.435 591.618,249.59 584.375,244.494C579.731,241.226 571.876,243.093 568.515,246.874C565.22,250.581 563.247,256.106 564.716,259.516C567.995,267.123 573.482,274.165 573.935,282.623C574.286,289.175 571.649,296.37 565.294,297.884C560.436,299.041 555.162,296.915 550.33,298.055C547.783,298.655 547.133,302.686 548.533,305.756C551.219,311.649 556.067,316.502 554.79,324.188C553.824,329.999 549.764,335.277 548.831,340.442C548.015,344.963 557.18,348.512 563.241,347.801C574.974,346.424 585.096,335.74 600.83,342.038C603.769,343.215 606.584,344.87 608.602,347.3C615.493,355.597 613.016,368.085 608.86,377.341C607.001,381.482 604.71,385.781 600.734,388.031C596.316,390.533 590.323,389.353 586.161,391.585C583.823,392.839 583.572,397.054 585.698,398.442C591.085,401.957 600.907,399.253 604.146,407.288C605.495,410.635 604.612,414.332 603.093,417.848C621.635,407.04 638.056,392.492 650.779,374.942C682.158,331.659 689.096,272.165 667.696,222.118ZM393.548,199.816C386.692,210.282 381.082,221.638 376.993,233.709C361.125,280.562 369.2,334.694 398.379,374.942C403.63,382.185 409.531,388.937 415.971,395.134C418.849,389.477 421.321,383.517 420.144,378.212C419.108,373.548 413.238,370.721 409.678,365.381C402.178,354.131 403.035,336.908 415.614,329.075C416.12,328.76 416.648,328.481 417.192,328.238C426.214,324.204 436.527,329.574 444.761,327.077C446.316,326.606 447.833,325.795 448.794,324.441C452.443,319.303 449.727,311.279 444.134,306.884C442.254,305.407 439.092,305.728 435.934,305.503C427.27,304.858 417.514,300.183 412.805,290.774C407.76,280.692 410.09,266.572 420.492,261.579C427.966,257.992 437.539,264.485 445.32,263.475C445.859,263.405 446.394,263.285 446.9,263.087C452.156,261.03 456.809,254.848 453.785,249.193C453.324,248.329 452.721,247.543 452.02,246.861C443.796,238.853 426.124,245.822 414.966,235.347C404.993,225.984 399.167,212.671 393.548,199.816Z" style="fill:rgb(19,204,98);fill-rule:nonzero;"/>
                    </g>
                </g>
                <path d="M72.407,79.636L56.901,69.405C56.35,68.983 56.583,67.967 57.429,68.038C57.628,68.084 57.669,68.12 57.727,68.153L73.288,78.42L98.115,71.79C98.115,71.79 98.703,71.72 98.949,72.125C99.194,72.527 98.964,73.08 98.502,73.239L73.907,79.807L73.957,106.098C73.911,106.914 72.518,107.13 72.457,106.1L72.407,79.636Z" style="fill:rgb(163,163,163);fill-opacity:0.7;fill-rule:nonzero;"/>
                <g transform="matrix(1.24609,0,0,1.24609,47.9577,50.8773)">
                    <path d="M27.997,8.324L28.199,8.419L40.847,16.71C41.001,16.84 41.137,16.992 41.185,17.184C41.202,17.248 41.202,17.315 41.21,17.381L41.21,38.942C41.173,39.226 41.048,39.499 40.808,39.638C40.747,39.672 40.679,39.691 40.614,39.718L20.462,45.092C20.387,45.101 20.312,45.12 20.236,45.118C20.031,45.114 19.987,45.069 19.808,44.983L7.061,36.43C6.91,36.299 6.777,36.148 6.73,35.958C6.714,35.895 6.714,35.829 6.706,35.764L6.706,14.366C6.743,14.082 6.866,13.809 7.111,13.669C7.172,13.634 7.241,13.616 7.306,13.59L27.557,8.314L27.778,8.288C27.851,8.3 27.924,8.312 27.997,8.324ZM8.311,14.986L8.311,35.336L20.4,43.447L39.605,38.326L39.605,17.814L27.617,9.957C21.181,11.633 14.746,13.31 8.311,14.986Z" style="fill:rgb(205,205,205);fill-rule:nonzero;"/>
                </g>
            </g>
        </g>
    </g>
</svg>
