<?xml version="1.0" encoding="UTF-8" standalone="no"?>
<!DOCTYPE svg PUBLIC "-//W3C//DTD SVG 1.1//EN" "http://www.w3.org/Graphics/SVG/1.1/DTD/svg11.dtd">
<svg width="100%" height="100%" viewBox="0 0 43 46" version="1.1" xmlns="http://www.w3.org/2000/svg" xmlns:xlink="http://www.w3.org/1999/xlink" xml:space="preserve" xmlns:serif="http://www.serif.com/" style="fill-rule:evenodd;clip-rule:evenodd;stroke-linejoin:round;stroke-miterlimit:2;">
    <g transform="matrix(0.998951,0,0,0.998951,-260.21,-60.8293)">
        <g>
            <g>
                <g transform="matrix(0.100108,0,0,0.100108,219.305,55.6969)">
                    <path d="M668.535,326.443L668.535,61.893L668.915,59.982L669.997,58.361L671.618,57.279L673.529,56.898C674.166,57.025 674.803,57.152 675.44,57.279C675.981,57.639 676.602,57.902 677.061,58.361C678.326,59.627 678.195,60.239 678.524,61.893L678.524,327.628L833.572,429.743L834.959,431.112C835.211,431.711 835.586,432.271 835.716,432.908C836.077,434.661 835.63,435.1 834.996,436.662L833.627,438.049C831.844,438.801 831.818,438.807 829.883,438.82L828.077,438.086L672.635,335.711L422.538,398.758L420.592,398.856L418.756,398.203C418.274,397.767 417.698,397.417 417.31,396.896C416.241,395.46 416.461,394.873 416.375,393.189L417.029,391.354C418.327,389.918 418.348,389.902 420.096,389.072L668.535,326.443Z" style="fill:rgb(126,126,126);fill-rule:nonzero;"/>
                    <g transform="matrix(3.13643,0,0,3.13643,469.643,99.4446)">
                        <g transform="matrix(0.642735,0,0,0.700938,5.2432,10.1965)">
                            <path d="M3.069,13.153L96.251,13.138L96.252,96.256L2.981,96.227L3.069,13.153ZM89.29,20.424L11.143,19.703L11.548,89.446L88.722,88.95L89.29,20.424Z" style="fill:rgb(253,186,5);fill-opacity:0.77;fill-rule:nonzero;"/>
                        </g>
                        <g transform="matrix(0.642735,0,0,0.700938,18.2492,23.8665)">
                            <path d="M3.069,13.153L96.251,13.138L96.252,96.256L2.981,96.227L3.069,13.153ZM89.29,20.424L11.143,19.703L11.548,89.446L88.722,88.95L89.29,20.424Z" style="fill:rgb(253,186,5);fill-opacity:0.77;fill-rule:nonzero;"/>
                        </g>
                        <g transform="matrix(0.642735,0,0,0.700938,32.4029,34.8362)">
                            <path d="M3.069,13.153L96.251,13.138L96.252,96.256L2.981,96.227L3.069,13.153ZM89.29,20.424L11.143,19.703L11.548,89.446L88.722,88.95L89.29,20.424Z" style="fill:rgb(253,186,5);fill-opacity:0.77;fill-rule:nonzero;"/>
                        </g>
                    </g>
                </g>
                <g transform="matrix(1,0,0,1,153.1,0)">
                    <path d="M123.476,79.324L107.969,69.093C107.419,68.671 107.652,67.655 108.498,67.726C108.697,67.772 108.737,67.808 108.795,67.841L124.357,78.108L149.184,71.478C149.184,71.478 149.772,71.408 150.018,71.813C150.263,72.215 150.033,72.768 149.571,72.927L124.976,79.495L125.025,105.786C124.996,106.314 124.779,106.386 124.574,106.475C124.121,106.671 123.558,106.326 123.525,105.788L123.476,79.324Z" style="fill:rgb(163,163,163);fill-opacity:0.7;fill-rule:nonzero;"/>
                </g>
                <g transform="matrix(1.24609,0,0,1.24609,252.126,50.5653)">
                    <path d="M27.997,8.324L28.199,8.419L40.847,16.71C41.001,16.84 41.137,16.992 41.185,17.184C41.202,17.248 41.202,17.315 41.21,17.381L41.21,38.942C41.173,39.225 41.051,39.497 40.808,39.638C40.747,39.672 40.679,39.691 40.614,39.718L20.462,45.092C20.387,45.101 20.312,45.12 20.236,45.118C20.031,45.114 19.987,45.069 19.808,44.983L7.061,36.43C6.91,36.299 6.777,36.148 6.73,35.958C6.714,35.895 6.714,35.829 6.706,35.764L6.706,14.366C6.744,14.081 6.87,13.807 7.111,13.669C7.172,13.634 7.241,13.616 7.306,13.59L27.557,8.314L27.778,8.288C27.851,8.3 27.924,8.312 27.997,8.324ZM8.311,14.986L8.311,35.336L20.4,43.447L39.605,38.326L39.605,17.814L27.617,9.957C21.181,11.633 14.746,13.31 8.311,14.986Z" style="fill:rgb(205,205,205);fill-rule:nonzero;"/>
                </g>
            </g>
        </g>
    </g>
</svg>
