<?xml version="1.0" encoding="UTF-8" standalone="no"?>
<!DOCTYPE svg PUBLIC "-//W3C//DTD SVG 1.1//EN" "http://www.w3.org/Graphics/SVG/1.1/DTD/svg11.dtd">
<svg width="100%" height="100%" viewBox="0 0 24 21" version="1.1" xmlns="http://www.w3.org/2000/svg" xmlns:xlink="http://www.w3.org/1999/xlink" xml:space="preserve" xmlns:serif="http://www.serif.com/" style="fill-rule:evenodd;clip-rule:evenodd;stroke-linejoin:round;stroke-miterlimit:1.41421;">
    <g transform="matrix(1,0,0,1,-1434.71,-1022.19)">
        <g transform="matrix(0.999254,0,0,0.999254,0.983124,0.767586)">
            <g transform="matrix(0.1,0,0,0.1,1301.73,929.282)">
                <path d="M1447.09,929.048C1458.91,929.344 1470.36,935.891 1476.61,946.055C1503.74,991.488 1530.78,1037.17 1557.63,1082.95C1557.79,1083.23 1557.79,1083.23 1557.94,1083.51C1567.07,1100.27 1559.62,1124.19 1541.54,1132.66C1532.73,1136.79 1522.33,1135.88 1512.19,1135.92C1463.28,1136.08 1414.36,1136.06 1365.43,1135.86C1365.11,1135.86 1365.11,1135.86 1364.8,1135.85C1345.85,1135.17 1329.06,1116.75 1330.8,1097.02C1331.66,1087.3 1337.71,1078.78 1342.85,1070.02C1367.2,1028.57 1391.68,987.255 1416.28,946.057C1416.44,945.801 1416.44,945.801 1416.6,945.546C1422.97,935.534 1434.36,929.139 1446.38,929.042C1446.74,929.042 1446.74,929.042 1447.09,929.048Z" style="fill:rgb(50,50,50);fill-rule:nonzero;"/>
            </g>
            <g transform="matrix(0.64671,0,0,0.64671,1422.56,591.862)">
                <path d="M33.649,688.91L33.649,686.826C34.027,687.143 34.437,687.381 34.88,687.539C35.323,687.698 35.77,687.777 36.221,687.777C36.486,687.777 36.717,687.753 36.914,687.705C37.112,687.658 37.277,687.591 37.409,687.507C37.542,687.422 37.64,687.322 37.705,687.207C37.771,687.092 37.803,686.967 37.803,686.833C37.803,686.651 37.751,686.488 37.647,686.345C37.543,686.201 37.401,686.069 37.22,685.947C37.04,685.826 36.827,685.709 36.579,685.596C36.332,685.483 36.065,685.368 35.778,685.251C35.049,684.947 34.506,684.576 34.148,684.138C33.789,683.699 33.61,683.17 33.61,682.549C33.61,682.063 33.708,681.645 33.903,681.296C34.099,680.946 34.365,680.659 34.701,680.433C35.037,680.207 35.427,680.041 35.87,679.935C36.312,679.829 36.781,679.776 37.276,679.776C37.762,679.776 38.193,679.805 38.568,679.863C38.944,679.922 39.29,680.012 39.607,680.134L39.607,682.08C39.45,681.972 39.28,681.876 39.095,681.794C38.911,681.711 38.721,681.643 38.526,681.589C38.33,681.534 38.136,681.494 37.943,681.468C37.75,681.442 37.567,681.429 37.393,681.429C37.154,681.429 36.937,681.452 36.742,681.498C36.547,681.543 36.382,681.607 36.247,681.69C36.113,681.772 36.008,681.871 35.935,681.986C35.861,682.101 35.824,682.23 35.824,682.373C35.824,682.529 35.865,682.669 35.948,682.793C36.03,682.917 36.147,683.034 36.299,683.145C36.451,683.255 36.636,683.364 36.853,683.47C37.07,683.577 37.315,683.686 37.588,683.799C37.962,683.955 38.297,684.121 38.594,684.297C38.891,684.473 39.146,684.671 39.359,684.893C39.572,685.114 39.735,685.367 39.847,685.651C39.96,685.936 40.017,686.266 40.017,686.644C40.017,687.165 39.918,687.602 39.72,687.956C39.523,688.31 39.255,688.596 38.916,688.815C38.578,689.034 38.184,689.192 37.735,689.287C37.286,689.383 36.811,689.431 36.312,689.431C35.8,689.431 35.313,689.387 34.851,689.3C34.388,689.214 33.988,689.083 33.649,688.91Z" style="fill:rgb(205,205,205);fill-rule:nonzero;"/>
            </g>
            <g transform="matrix(0.212997,0,0,0.212997,1435.72,1020.94)">
                <path d="M50.076,13.241C53.197,13.28 56.221,14.988 57.858,17.678C70.599,39.005 83.254,60.384 95.817,81.817C98.951,87.267 95.05,95.511 87.958,95.6C62.653,95.706 37.347,95.706 12.042,95.6C5.761,95.521 0.618,88.017 4.183,81.817C16.746,60.384 29.401,39.005 42.142,17.678C43.803,14.95 46.773,13.227 50.076,13.241ZM49.986,20.788C49.43,20.795 48.895,21.1 48.605,21.576C35.89,42.858 23.352,64.245 10.725,85.58C10.152,86.549 10.868,88.007 12.064,88.052C37.32,88.791 62.598,88.053 87.865,88.053C89.004,88.053 89.873,86.681 89.31,85.642C77.307,63.935 64.044,42.948 51.41,21.601C51.118,21.107 50.558,20.786 49.986,20.788Z" style="fill:rgb(253,186,5);fill-rule:nonzero;"/>
            </g>
        </g>
    </g>
</svg>
